<svg id="Layer_1" data-name="Layer 1" xmlns="http://www.w3.org/2000/svg" viewBox="0 0 48.97 20"><defs><style>.cls-1{fill:#bfbfbf;}</style></defs><path class="cls-1" d="M16,9.45l8,5.05v2L16,14v5.36L19,21v1.5l-4.5-1-4.5,1V21l3-1.67V14L5,16.5v-2l8-5.05V4a1.5,1.5,0,0,1,3,0Z" transform="translate(-5.02 -2.5)"/><path d="M53.55,9.54H52.08a.42.42,0,0,0-.3.12l-.31.3a15.48,15.48,0,0,0-2.31-3.68,2.86,2.86,0,0,0-2.24-1.06H41.05A2.88,2.88,0,0,0,38.8,6.28,15.66,15.66,0,0,0,36.49,10l-.31-.29a.41.41,0,0,0-.3-.12H34.42A.44.44,0,0,0,34,10v1a.45.45,0,0,0,.41.44l1.51.09a9.57,9.57,0,0,0-.41,3.06,3.87,3.87,0,0,0,.67,2.53v2.33a.36.36,0,0,0,.36.36h1.67a.36.36,0,0,0,.36-.36V18H49.42v1.45a.36.36,0,0,0,.36.36h1.67a.36.36,0,0,0,.36-.36V17.09a3.93,3.93,0,0,0,.67-2.53,9.57,9.57,0,0,0-.41-3.06l1.51-.09A.44.44,0,0,0,54,11V10A.43.43,0,0,0,53.55,9.54ZM40,7.29a1.31,1.31,0,0,1,1-.47h5.87a1.28,1.28,0,0,1,1,.47,14.47,14.47,0,0,1,1.72,2.55H38.32A14.85,14.85,0,0,1,40,7.29ZM38.81,16.2c-.83,0-1.51-.28-1.51-.93s.25-1.19,1.08-1.19,1.93.53,1.93,1.19S39.64,16.2,38.81,16.2Zm6.75-.14H42.41a.86.86,0,0,1-.86-.86.23.23,0,0,1,.24-.24h4.39a.24.24,0,0,1,.24.24A.86.86,0,0,1,45.56,16.06Zm3.6.14c-.83,0-1.5-.28-1.5-.93s1.1-1.19,1.93-1.19,1.07.53,1.07,1.19S50,16.2,49.16,16.2Z" transform="translate(-5.02 -2.5)"/></svg>