<svg id="Layer_1" data-name="Layer 1" xmlns="http://www.w3.org/2000/svg" xmlns:xlink="http://www.w3.org/1999/xlink" viewBox="0 0 23 22"><defs><style>.cls-1{fill:url(#linear-gradient);}</style><linearGradient id="linear-gradient" x1="12.35" y1="22.86" x2="12.35" y2="3.04" gradientUnits="userSpaceOnUse"><stop offset="0" stop-color="#ffa200"/><stop offset="1" stop-color="#fff"/></linearGradient></defs><path class="cls-1" d="M2,20,10.42,4a2.23,2.23,0,0,1,3.87,0L22.68,20a2,2,0,0,1-1.94,2.82H4A2,2,0,0,1,2,20Z" transform="translate(-0.85 -1.84)"/><path d="M20.74,23.84H4a3.14,3.14,0,0,1-2.72-1.52,2.81,2.81,0,0,1-.06-2.74h0L9.57,3.48a3.18,3.18,0,0,1,5.56,0l8.4,16.1a2.81,2.81,0,0,1-.07,2.74A3.14,3.14,0,0,1,20.74,23.84ZM2.87,20.51a.77.77,0,0,0,0,.8A1.22,1.22,0,0,0,4,21.87H20.74a1.22,1.22,0,0,0,1.07-.56.77.77,0,0,0,0-.8L13.44,4.41a1.3,1.3,0,0,0-2.18,0Z" transform="translate(-0.85 -1.84)"/><path d="M12.35,16.73a1,1,0,0,1-1-1V9.46a1,1,0,0,1,2,0v6.27A1,1,0,0,1,12.35,16.73Z" transform="translate(-0.85 -1.84)"/><path d="M12.35,19.49a1,1,0,0,1-1-1v0a1,1,0,1,1,1,1Z" transform="translate(-0.85 -1.84)"/></svg>