<svg id="Layer_1" data-name="Layer 1" xmlns="http://www.w3.org/2000/svg" viewBox="0 0 36 21"><defs><style>.cls-1{fill:#cfdfff;}.cls-2{fill:#0042ff;}</style></defs><rect class="cls-1" x="0.5" y="0.5" width="35" height="20" rx="4.46"/><path class="cls-2" d="M31.91,21.71H5.82a5,5,0,0,1-4.95-5V5.66a5,5,0,0,1,5-4.95H31.91a5,5,0,0,1,5,5V16.75A5,5,0,0,1,31.91,21.71ZM5.82,1.71a4,4,0,0,0-3.95,4V16.75a4,4,0,0,0,4,4H31.91a4,4,0,0,0,4-4V5.66a4,4,0,0,0-4-3.95Z" transform="translate(-0.87 -0.71)"/><path class="cls-2" d="M11.51,15.66l-.65-2.12H7.62L7,15.66h-2L8.08,6.73h2.31l3.15,8.93ZM10.41,12c-.59-1.92-.93-3-1-3.26s-.13-.45-.17-.59c-.13.52-.51,1.8-1.14,3.85Z" transform="translate(-0.87 -0.71)"/><path class="cls-2" d="M18.42,15.66l-2.14-7h-.05c.08,1.42.11,2.37.11,2.84v4.14H14.66V6.76h2.57l2.1,6.8h0l2.23-6.8h2.57v8.9H22.41V11.45c0-.2,0-.43,0-.69s0-.95.08-2.07h-.06l-2.29,7Z" transform="translate(-0.87 -0.71)"/><path class="cls-2" d="M30.18,8.2a1.91,1.91,0,0,0-1.64.8A3.74,3.74,0,0,0,28,11.23c0,2,.74,3,2.23,3a7.06,7.06,0,0,0,2.27-.47v1.58a6.17,6.17,0,0,1-2.44.46,3.7,3.7,0,0,1-3-1.18,5,5,0,0,1-1-3.38,5.5,5.5,0,0,1,.51-2.43A3.64,3.64,0,0,1,28,7.19a4.29,4.29,0,0,1,2.21-.56,6,6,0,0,1,2.61.63l-.61,1.53c-.33-.15-.67-.29-1-.41A3,3,0,0,0,30.18,8.2Z" transform="translate(-0.87 -0.71)"/></svg>