<svg id="Layer_1" data-name="Layer 1" xmlns="http://www.w3.org/2000/svg" viewBox="0 0 33.24 8.39"><defs><style>.cls-1{fill:#28348a;}.cls-2{fill:#00a6e6;}</style></defs><path class="cls-1" d="M11.15,7.47h2.49l1.63,5.65c.06.18.22.12.25,0l1-5.65h1.1l-1.3,7.29H13.81l-1.59-5.6c0-.15-.21-.19-.26,0l-1,5.59H9.81Z" transform="translate(-2.38 -6.37)"/><path class="cls-1" d="M6.61,7.47H9.06l.48,7.29H7.72l0-.83a.29.29,0,0,0-.3-.29H4.56l.61-1H7.1c.21,0,.47,0,.45-.27l-.2-3.27c0-.22-.19-.32-.31-.11L3.63,14.76H2.38Z" transform="translate(-2.38 -6.37)"/><path class="cls-1" d="M20.45,7.47h2.44l.58,7.29H21.64l0-.83a.29.29,0,0,0-.31-.29H18.72l.61-1H21c.22,0,.48,0,.46-.27l-.3-3.27c0-.22-.19-.32-.31-.11l-3,5.81H16.63Z" transform="translate(-2.38 -6.37)"/><polygon class="cls-2" points="28.43 8.39 33.24 0 26.43 0 21.62 8.39 28.43 8.39"/><polygon class="cls-1" points="27.08 8.39 31.89 0 26.43 0 21.62 8.39 27.08 8.39"/></svg>