<svg id="Layer_1" data-name="Layer 1" xmlns="http://www.w3.org/2000/svg" xmlns:xlink="http://www.w3.org/1999/xlink" viewBox="0 0 32 32"><defs><style>.cls-1{fill:#1e9cd8;stroke:url(#linear-gradient);}.cls-1,.cls-4{stroke-miterlimit:10;}.cls-2{fill:#0a3280;}.cls-3{fill:#f9c81d;}.cls-4{fill:url(#radial-gradient);stroke:url(#linear-gradient-2);}</style><linearGradient id="linear-gradient" x1="3.15" y1="3.56" x2="31.2" y2="31.62" gradientUnits="userSpaceOnUse"><stop offset="0.57" stop-color="#fe9940"/><stop offset="1" stop-color="#fe7800"/></linearGradient><radialGradient id="radial-gradient" cx="4.47" cy="2.33" r="7.7" gradientUnits="userSpaceOnUse"><stop offset="0" stop-color="#fff"/><stop offset="1" stop-color="#fe7e00"/></radialGradient><linearGradient id="linear-gradient-2" x1="2.68" y1="2.5" x2="14.28" y2="14.1" gradientUnits="userSpaceOnUse"><stop offset="0.21" stop-color="#ebebeb"/><stop offset="1" stop-color="#ffbf80"/></linearGradient></defs><rect class="cls-1" x="2.86" y="3.61" width="28.63" height="27.96" rx="1.62"/><path class="cls-2" d="M17.18,31.08H4.47a1.21,1.21,0,0,1-1.26-1.21V5.24A1.12,1.12,0,0,1,4.34,4.11H17.18Z"/><path class="cls-3" d="M29.75,31.06l-25.66,0a.87.87,0,0,1-.88-.88V17.92H31v11.9A1.25,1.25,0,0,1,29.75,31.06Z"/><polygon points="9.12 19.47 4 29.04 5.75 29.04 9.75 21.24 10.05 21.24 10.05 26.21 7.49 26.21 6.83 27.65 10.41 27.65 10.47 29.04 12.55 29.04 12.19 19.47 9.12 19.47"/><polygon points="29.14 19.47 26.07 19.47 20.95 29.04 22.69 29.04 26.7 21.24 27 21.24 27 26.21 24.44 26.21 23.78 27.65 27.36 27.65 27.42 29.04 29.5 29.04 29.14 19.47"/><polygon points="21.13 19.47 20.06 26.96 19.38 26.96 17.76 19.47 14.63 19.47 12.97 29.04 14.39 29.04 15.47 21.6 16.1 21.6 17.97 29.04 20.89 29.04 22.54 19.47 21.13 19.47"/><circle class="cls-4" cx="8.48" cy="8.3" r="7.7"/><path d="M6.08,13.5,6.9,6H4.33V4h8.31V6H9.38L8.28,13.5Z"/></svg>