<svg id="Layer_1" data-name="Layer 1" xmlns="http://www.w3.org/2000/svg" xmlns:xlink="http://www.w3.org/1999/xlink" viewBox="0 0 31.71 31.97"><defs><style>.cls-1{fill:#1e9cd8;stroke:url(#linear-gradient);}.cls-1,.cls-5{stroke-miterlimit:10;}.cls-2{fill:#0a3280;}.cls-3{fill:#bb93fb;}.cls-4{fill:#205;}.cls-5{fill:url(#radial-gradient);stroke:url(#linear-gradient-2);}</style><linearGradient id="linear-gradient" x1="2.87" y1="3.47" x2="30.92" y2="31.52" gradientUnits="userSpaceOnUse"><stop offset="0.57" stop-color="#8c40ff"/><stop offset="1" stop-color="#60f"/></linearGradient><radialGradient id="radial-gradient" cx="4.19" cy="2.23" r="7.7" gradientUnits="userSpaceOnUse"><stop offset="0" stop-color="#fff"/><stop offset="1" stop-color="#fe7e00"/></radialGradient><linearGradient id="linear-gradient-2" x1="2.4" y1="2.4" x2="14" y2="14" gradientUnits="userSpaceOnUse"><stop offset="0.21" stop-color="#ebebeb"/><stop offset="1" stop-color="#ffbf80"/></linearGradient></defs><rect class="cls-1" x="2.58" y="3.51" width="28.63" height="27.96" rx="1.62"/><path class="cls-2" d="M17.18,31.14H4.47a1.26,1.26,0,0,1-1.26-1.27V5.24A1.12,1.12,0,0,1,4.34,4.11H17.18Z" transform="translate(-0.28 -0.09)"/><path class="cls-3" d="M29.82,31.12l-25.66,0a.88.88,0,0,1-.88-.88V18.18H31.07v11.7A1.25,1.25,0,0,1,29.82,31.12Z" transform="translate(-0.28 -0.09)"/><polygon class="cls-4" points="8.84 19.37 3.72 28.94 5.47 28.94 9.47 21.15 9.77 21.15 9.77 26.11 7.21 26.11 6.55 27.56 10.13 27.56 10.19 28.94 12.27 28.94 11.91 19.37 8.84 19.37"/><polygon class="cls-4" points="28.86 19.37 25.79 19.37 20.67 28.94 22.41 28.94 26.42 21.15 26.72 21.15 26.72 26.11 24.16 26.11 23.5 27.56 27.08 27.56 27.14 28.94 29.22 28.94 28.86 19.37"/><polygon class="cls-4" points="20.85 19.37 19.78 26.87 19.1 26.87 17.48 19.37 14.35 19.37 12.69 28.94 14.11 28.94 15.19 21.51 15.82 21.51 17.69 28.94 20.61 28.94 22.26 19.37 20.85 19.37"/><circle class="cls-5" cx="8.2" cy="8.2" r="7.7"/><path d="M6.08,13.5,6.9,6H4.33V4h8.31V6H9.38L8.28,13.5Z" transform="translate(-0.28 -0.09)"/></svg>