<svg id="Layer_1" data-name="Layer 1" xmlns="http://www.w3.org/2000/svg" xmlns:xlink="http://www.w3.org/1999/xlink" viewBox="0 0 288 173.04"><defs><style>.cls-1{fill:url(#linear-gradient);}.cls-2{fill:url(#linear-gradient-2);}</style><linearGradient id="linear-gradient" x1="144" y1="173.8" x2="144" y2="147.73" gradientUnits="userSpaceOnUse"><stop offset="0" stop-color="#fff"/><stop offset="1" stop-color="#545454"/></linearGradient><linearGradient id="linear-gradient-2" x1="144" y1="148.83" x2="144" y2="1.96" gradientUnits="userSpaceOnUse"><stop offset="0" stop-color="#3a3a3a"/><stop offset="1" stop-color="#7e7e7e"/></linearGradient></defs><rect class="cls-1" y="146.86" width="288" height="26.17"/><path class="cls-2" d="M224.61,53l-15-48s-97.16-7-131.07,0L64.52,53A15.46,15.46,0,0,0,49.2,68.44v55.67H64v19.5a5.22,5.22,0,0,0,5.22,5.22H82.76A5.22,5.22,0,0,0,88,143.61v-19.5H200v19.5a5.22,5.22,0,0,0,5.21,5.22h13.51a5.22,5.22,0,0,0,5.21-5.22v-19.5H238.8V68.44A15.46,15.46,0,0,0,224.61,53ZM85.17,13.11s91.93-5.94,116.74,0L213.54,53H74.1ZM83,100.49a17.13,17.13,0,1,1,17.13-17.13A17.12,17.12,0,0,1,83,100.49Zm121.3,0a17.13,17.13,0,1,1,17.12-17.13A17.13,17.13,0,0,1,204.34,100.49Z" transform="translate(0 -1.96)"/></svg>