<svg id="Layer_1" data-name="Layer 1" xmlns="http://www.w3.org/2000/svg" viewBox="0 0 44 40"><defs><style>.cls-1{fill:#e0e0e0;}.cls-2{fill:#8c8c8c;}</style></defs><rect class="cls-1" width="44" height="40"/><path class="cls-2" d="M33,17l-2-6.53s-13.23-.95-17.84,0L11.18,17a2.1,2.1,0,0,0-2.08,2.1v7.58h2v2.65a.71.71,0,0,0,.71.71h1.84a.7.7,0,0,0,.7-.71V26.63H29.62v2.65a.71.71,0,0,0,.71.71h1.84a.71.71,0,0,0,.71-.71V26.63h2V19.05A2.1,2.1,0,0,0,33,17ZM14,11.52s12.51-.8,15.89,0L31.46,17h-19ZM13.7,23.41A2.33,2.33,0,1,1,16,21.08,2.33,2.33,0,0,1,13.7,23.41Zm16.51,0a2.33,2.33,0,1,1,2.33-2.33A2.33,2.33,0,0,1,30.21,23.41Z"/></svg>