<svg id="Layer_1" data-name="Layer 1" xmlns="http://www.w3.org/2000/svg" viewBox="0 0 15 11.62"><defs><style>.cls-1{fill:#1d1d1b;}</style></defs><path class="cls-1" d="M15.38,5.73,14.19,1.94s-7.69-.56-10.37,0L2.71,5.73A1.22,1.22,0,0,0,1.5,7v4.4H2.67V12.9a.42.42,0,0,0,.42.41H4.15a.42.42,0,0,0,.42-.41V11.35h8.86V12.9a.41.41,0,0,0,.41.41h1.07a.41.41,0,0,0,.41-.41V11.35H16.5V7A1.22,1.22,0,0,0,15.38,5.73Zm-11-3.16s7.27-.47,9.23,0l.92,3.16h-11ZM4.18,9.49a1.36,1.36,0,1,1,0-2.71,1.36,1.36,0,0,1,0,2.71Zm9.59,0a1.36,1.36,0,1,1,1.36-1.36A1.36,1.36,0,0,1,13.77,9.49Z" transform="translate(-1.5 -1.69)"/></svg>