<svg id="Layer_1" data-name="Layer 1" xmlns="http://www.w3.org/2000/svg" xmlns:xlink="http://www.w3.org/1999/xlink" viewBox="0 0 81.78 22.91"><defs><style>.cls-1{stroke:#707070;stroke-miterlimit:10;fill:url(#linear-gradient);}.cls-2{fill:#101010;}</style><linearGradient id="linear-gradient" x1="40.89" y1="0.21" x2="40.89" y2="21.92" gradientUnits="userSpaceOnUse"><stop offset="0.52" stop-color="#f1f1f1"/><stop offset="0.52" stop-color="#e8e8e8"/><stop offset="0.52" stop-color="#ddd"/><stop offset="0.52" stop-color="#d6d6d6"/><stop offset="0.53" stop-color="#d4d4d4"/></linearGradient></defs><rect class="cls-1" x="0.5" y="0.5" width="80.78" height="21.91"/><path class="cls-2" d="M19.58,16.62,18.29,13.3H14l-1.27,3.32H11.4L15.58,5.86H16.8L21,16.62Zm-1.7-4.52-1.2-3.24-.51-1.61c-.15.59-.3,1.13-.46,1.61L14.49,12.1Z" transform="translate(-0.11 -0.05)"/><path class="cls-2" d="M30.94,16.62H29.36l-5.73-8.9h-.06l0,.6q.09,1.34.09,2.31v6H22.45V5.91H24l.33.52,3.51,5.43,1.87,2.91h.06q0-.18-.06-1.26c0-.72,0-1.24,0-1.56v-6h1.26Z" transform="translate(-0.11 -0.05)"/><path class="cls-2" d="M40.56,16.62,39.27,13.3H35l-1.27,3.32H32.39L36.57,5.86h1.21L42,16.62ZM38.87,12.1l-1.2-3.24-.52-1.61c-.14.59-.3,1.13-.46,1.61L35.48,12.1Z" transform="translate(-0.11 -0.05)"/><path class="cls-2" d="M52,11.16a5.35,5.35,0,0,1-1.45,4.05,5.7,5.7,0,0,1-4.15,1.41h-3V5.91h3.3a5.29,5.29,0,0,1,3.89,1.37A5.25,5.25,0,0,1,52,11.16Zm-1.42,0a4.31,4.31,0,0,0-1-3.09,4,4,0,0,0-3-1H44.78v8.4h1.46Q50.59,15.46,50.59,11.2Z" transform="translate(-0.11 -0.05)"/><path class="cls-2" d="M61,16.62,59.66,13.3H55.41l-1.27,3.32H52.78L57,5.86h1.22l4.17,10.76ZM59.26,12.1l-1.2-3.24-.52-1.61a15.8,15.8,0,0,1-.46,1.61L55.87,12.1Z" transform="translate(-0.11 -0.05)"/><path class="cls-2" d="M69.89,13.75a2.67,2.67,0,0,1-1,2.21,4.43,4.43,0,0,1-2.81.8,7,7,0,0,1-2.94-.5V15a7.88,7.88,0,0,0,1.49.46,7.59,7.59,0,0,0,1.51.17,3,3,0,0,0,1.81-.46,1.52,1.52,0,0,0,.61-1.27,1.66,1.66,0,0,0-.22-.88,2.18,2.18,0,0,0-.74-.64A11,11,0,0,0,66,11.66a5.14,5.14,0,0,1-2.13-1.27,2.84,2.84,0,0,1-.64-1.91,2.41,2.41,0,0,1,.95-2,3.9,3.9,0,0,1,2.48-.74,7.2,7.2,0,0,1,3,.6l-.42,1.16a6.73,6.73,0,0,0-2.56-.57,2.4,2.4,0,0,0-1.49.41,1.36,1.36,0,0,0-.54,1.15,1.65,1.65,0,0,0,.21.87,1.88,1.88,0,0,0,.67.64,8.6,8.6,0,0,0,1.46.65,8,8,0,0,1,1.78.85,2.8,2.8,0,0,1,.87,1A2.81,2.81,0,0,1,69.89,13.75Z" transform="translate(-0.11 -0.05)"/></svg>