<svg id="Layer_1" data-name="Layer 1" xmlns="http://www.w3.org/2000/svg" viewBox="0 0 28.01 18.01"><defs><style>.cls-1{fill:#fff;stroke:#ff0706;stroke-miterlimit:10;}.cls-2{fill:#ff0706;}</style></defs><rect class="cls-1" x="0.53" y="0.52" width="26.98" height="17"/><polygon class="cls-2" points="26.35 18 0 1.19 0 0 1.86 0 28 16.68 28 18 26.35 18"/><path d="M4.38,10.59l-.7,2.29H2.16L4.75,4.79H6.63l2.63,8.09H7.68L7,10.59ZM6.69,9.47l-.63-2C5.9,7,5.77,6.44,5.65,6h0c-.12.47-.24,1-.39,1.51l-.62,2Z" transform="translate(0 0)"/><path d="M10.36,11.27a4,4,0,0,0,2,.52c.95,0,1.48-.45,1.48-1.11s-.41-1-1.44-1.34C11,8.86,10.16,8.15,10.16,7c0-1.32,1.11-2.33,2.86-2.33A4.22,4.22,0,0,1,15,5.07L14.6,6.26A3.37,3.37,0,0,0,13,5.87c-.93,0-1.34.51-1.34,1,0,.62.47.91,1.55,1.33,1.4.52,2.09,1.23,2.09,2.4S14.3,13,12.22,13A4.74,4.74,0,0,1,10,12.49Z" transform="translate(0 0)"/><path d="M17.93,12.88,16,4.79h1.57l.77,3.68c.2,1,.39,2,.52,2.81h0c.13-.85.36-1.81.59-2.83l.87-3.66h1.55l.8,3.72c.21,1,.37,1.86.49,2.74h0c.14-.89.33-1.81.55-2.8l.84-3.66h1.5l-2.17,8.09H22.3l-.84-3.8A25.15,25.15,0,0,1,21,6.51h0c-.15.86-.3,1.64-.54,2.57l-.94,3.8Z" transform="translate(0 0)"/></svg>