<svg id="Layer_1" data-name="Layer 1" xmlns="http://www.w3.org/2000/svg" viewBox="0 0 14.41 15.65"><defs><style>.cls-1{fill:#e9fafa;}.cls-2{fill:#b6c1bc;}.cls-3{fill:#0644ff;}</style></defs><path class="cls-1" d="M10.61,25.32a1,1,0,0,1-.7-.28L5.79,21a1,1,0,0,1,0-1.41c.39-.4.86-.15,1.26.24L9.9,22.15a.15.15,0,0,0,.25,0c1.34-3,4-9.35,6.41-11A1,1,0,0,1,18,11.2a1,1,0,0,1-.11,1.41C16,14.18,12.71,22,11.53,24.72a1,1,0,0,1-.72.59Z" transform="translate(-3.79 -9.68)"/><path class="cls-2" d="M10.2,24.92a1,1,0,0,1-.7-.29L5.38,20.55a1,1,0,0,1,0-1.41c.39-.4.86-.15,1.26.24l2.86,2.36a.15.15,0,0,0,.25,0c1.34-3,4-9.35,6.41-11a1,1,0,0,1,1.41.12,1,1,0,0,1-.11,1.41c-1.85,1.57-5.15,9.36-6.33,12.11a1,1,0,0,1-.72.59Z" transform="translate(-3.79 -9.68)"/><path class="cls-3" d="M9.09,23.82a1,1,0,0,1-.7-.28l-4.3-4.25a1,1,0,0,1,1.4-1.42L8.8,20.93a.16.16,0,0,0,.25-.05c1.34-3,3.73-9.31,6.14-11A1,1,0,0,1,16.6,10a1,1,0,0,1-.12,1.41c-1.84,1.57-5.29,9-6.47,11.8a1,1,0,0,1-.72.59Z" transform="translate(-3.79 -9.68)"/></svg>