<svg id="Layer_1" data-name="Layer 1" xmlns="http://www.w3.org/2000/svg" xmlns:xlink="http://www.w3.org/1999/xlink" viewBox="0 0 32 17"><defs><style>.cls-1{fill:#00737d;}.cls-2{fill:url(#linear-gradient);}.cls-3{fill:url(#linear-gradient-2);}.cls-4{fill:url(#linear-gradient-3);}</style><linearGradient id="linear-gradient" x1="8.11" y1="15.41" x2="8.11" y2="3.65" gradientUnits="userSpaceOnUse"><stop offset="0" stop-color="#b1c4c5"/><stop offset="1" stop-color="#edf5f5"/></linearGradient><linearGradient id="linear-gradient-2" x1="23.86" y1="15.41" x2="23.86" y2="3.65" xlink:href="#linear-gradient"/><linearGradient id="linear-gradient-3" x1="15.97" y1="15.41" x2="15.97" y2="3.65" gradientUnits="userSpaceOnUse"><stop offset="0" stop-color="#b1c4c5"/><stop offset="0.99" stop-color="#fff"/></linearGradient></defs><rect class="cls-1" width="32" height="17"/><path class="cls-2" d="M7,5.41V13.9a1,1,0,0,0,1,1H9.21V4.43H8A1,1,0,0,0,7,5.41Z"/><path class="cls-3" d="M24,4.43H22.74V14.88H24a1,1,0,0,0,1-1V5.41A1,1,0,0,0,24,4.43Z"/><path class="cls-4" d="M19.88,2.12H12.2V4.43H10V14.88H21.93V4.43H19.88ZM13.23,4.41l0-1.57h5.68l0,1.57Z"/></svg>