<svg id="Layer_1" data-name="Layer 1" xmlns="http://www.w3.org/2000/svg" xmlns:xlink="http://www.w3.org/1999/xlink" viewBox="0 0 13.36 10.51"><defs><style>.cls-1{stroke:#000;stroke-miterlimit:10;stroke-width:0.5px;fill:url(#linear-gradient);}.cls-2{fill:#4e4213;}</style><linearGradient id="linear-gradient" x1="1.14" y1="6.12" x2="12.84" y2="7.44" gradientUnits="userSpaceOnUse"><stop offset="0" stop-color="#ffe44f"/><stop offset="1" stop-color="#edb627"/></linearGradient></defs><path class="cls-1" d="M7,1.62C3.45,1.62.57,3.71.57,6.29A4.47,4.47,0,0,0,2.18,9.55c-.24.86-.19.49-.62,1.83A16.23,16.23,0,0,1,4,10.56,7.65,7.65,0,0,0,6.49,11c3.55,0,6.94-2.09,6.94-4.66S10.55,1.62,7,1.62Z" transform="translate(-0.32 -1.37)"/><rect class="cls-2" x="2.42" y="4.05" width="2.01" height="2.01"/><rect class="cls-2" x="5.41" y="4.05" width="2.01" height="2.01"/><rect class="cls-2" x="8.4" y="4.05" width="2.01" height="2.01"/></svg>