<svg id="Layer_1" data-name="Layer 1" xmlns="http://www.w3.org/2000/svg" viewBox="0 0 35.26 14"><defs><style>.cls-1,.cls-2{fill:#414141;}.cls-1{stroke:#e6eef6;stroke-miterlimit:10;stroke-width:0.5px;}</style></defs><polygon class="cls-1" points="12.7 13.75 1.17 13.75 0.27 0.25 1.95 0.25 3 12.01 11.02 12.01 12.05 0.25 13.89 0.25 12.7 13.75"/><path class="cls-1" d="M32.49,6.88l4.3-4.29a1,1,0,0,0,0-1.42,1,1,0,0,0-1.42,0l-4.29,4.3-4.29-4.3a1,1,0,1,0-1.42,1.42l4.3,4.29-4.3,4.29a1,1,0,0,0,0,1.42h0a1,1,0,0,0,1.42,0h0l4.29-4.3,4.29,4.3a1,1,0,0,0,1.42,0h0a1,1,0,0,0,0-1.41h0Z" transform="translate(-2.08 0)"/><polygon class="cls-2" points="18.19 6.01 13.21 6.01 13.21 7 18.19 7 18.19 9.24 21.58 6.6 18.19 3.97 18.19 6.01"/><rect class="cls-2" x="6.92" y="2.94" width="3.18" height="3.18"/><rect class="cls-2" x="3.9" y="7.97" width="3.18" height="3.18"/></svg>