<svg id="Layer_1" data-name="Layer 1" xmlns="http://www.w3.org/2000/svg" viewBox="0 0 30.06 25.06"><defs><style>.cls-1{stroke:#40969e;stroke-miterlimit:10;}.cls-2{fill:#fff;}</style></defs><rect class="cls-1" x="0.5" y="0.5" width="29.06" height="24.06"/><path class="cls-2" d="M5.7,13.72a.79.79,0,0,0,.75-.81A8.85,8.85,0,0,1,22,6.81l.34.4-.67,0a.8.8,0,0,0-.56.19.73.73,0,0,0-.27.53.78.78,0,0,0,.72.84l2.54.19a1,1,0,0,0,.3,0,.79.79,0,0,0,.45-.39.75.75,0,0,0,.09-.29l.19-2.55a.78.78,0,0,0-1.56-.11l0,.66-.34-.39A10.4,10.4,0,0,0,4.89,13,.78.78,0,0,0,5.7,13.72Z" transform="translate(0.03 0.04)"/><path class="cls-2" d="M18.87,10.79a4.89,4.89,0,0,1,1.19,1.66,5.24,5.24,0,0,1,.44,2.22,5.52,5.52,0,0,1-.88,3.11,4.89,4.89,0,0,1-2.5,1.92,2.39,2.39,0,0,0,.51,1.48,1.47,1.47,0,0,0,1.17.62,4,4,0,0,0,.73-.05l.56-.11v.63a7.33,7.33,0,0,1-1.21.34,7.72,7.72,0,0,1-1.68.18,2.81,2.81,0,0,1-2-.72,3,3,0,0,1-.87-2,6,6,0,0,1-1.89-.5,5.35,5.35,0,0,1-1.54-1.08,5,5,0,0,1-1-1.6,5.14,5.14,0,0,1-.38-2,5.83,5.83,0,0,1,.42-2.26,5.33,5.33,0,0,1,1.17-1.74,5.08,5.08,0,0,1,1.75-1.09,6.35,6.35,0,0,1,4.3,0A5.19,5.19,0,0,1,18.87,10.79ZM17,18.05a5.28,5.28,0,0,0,.47-1.47,11.59,11.59,0,0,0,.14-1.87A10.67,10.67,0,0,0,17.51,13a5.41,5.41,0,0,0-.42-1.49,3,3,0,0,0-.82-1A2,2,0,0,0,15,10.07a2.14,2.14,0,0,0-2,1.23,7.44,7.44,0,0,0-.67,3.47,10.24,10.24,0,0,0,.15,1.8A5.37,5.37,0,0,0,13,18.05a2.69,2.69,0,0,0,.82,1A2,2,0,0,0,15,19.4,2,2,0,0,0,16.22,19,2.49,2.49,0,0,0,17,18.05Z" transform="translate(0.03 0.04)"/></svg>