<svg id="Layer_1" data-name="Layer 1" xmlns="http://www.w3.org/2000/svg" xmlns:xlink="http://www.w3.org/1999/xlink" viewBox="0 0 19.28 14"><defs><style>.cls-1{fill:#919192;}.cls-2{fill:url(#linear-gradient);}.cls-3{fill:#414141;}.cls-4{fill:none;stroke:#1d1d1b;stroke-miterlimit:10;}.cls-5{fill:#1d1d1b;}</style><linearGradient id="linear-gradient" x1="9.24" y1="11.32" x2="9.24" y2="3.19" gradientUnits="userSpaceOnUse"><stop offset="0" stop-color="#fff" stop-opacity="0"/><stop offset="0.98" stop-color="#4b4b4c"/></linearGradient></defs><polygon class="cls-1" points="18.25 1.02 19.28 1.02 19.28 14 1.34 14 1.34 13.01 18.27 13.01 18.25 1.02"/><polygon class="cls-2" points="14.24 10.97 4.25 10.97 4.25 3.03 5.25 3.03 5.25 9.97 13.24 9.97 13.24 3.03 14.24 3.03 14.24 10.97"/><rect class="cls-3" x="7.29" y="7.03" width="1.95" height="1.95"/><rect class="cls-3" x="9.34" y="4" width="1.95" height="1.95"/><polyline class="cls-4" points="5.73 3.03 5.73 10.47 12.83 10.47 12.83 3.03"/><path class="cls-5" d="M28.13,13H9.86V0H28.13Zm-17-1h16V2h-16Z" transform="translate(-9.86)"/></svg>