<svg id="Layer_1" data-name="Layer 1" xmlns="http://www.w3.org/2000/svg" xmlns:xlink="http://www.w3.org/1999/xlink" viewBox="0 0 100 15"><defs><style>.cls-1{stroke:#798a99;stroke-miterlimit:10;fill:url(#linear-gradient);}</style><linearGradient id="linear-gradient" x1="50" y1="0.67" x2="50" y2="14.46" gradientUnits="userSpaceOnUse"><stop offset="0.06" stop-color="#fff"/><stop offset="0.37" stop-color="#e8e8e8"/><stop offset="1" stop-color="#b0b0b0"/></linearGradient></defs><rect class="cls-1" x="0.5" y="0.6" width="99" height="13.8"/><path d="M85,4.77A4.25,4.25,0,0,1,92.74,7.2h.84a5.09,5.09,0,0,0-7.84-4.27,4.8,4.8,0,0,0-1.33,1.25l-1.1-1.09V6.78Z"/><path d="M93.92,8.1l-1.69,2.09A4.25,4.25,0,0,1,84.5,7.76h-.84a5.1,5.1,0,0,0,5.08,5.09A5,5,0,0,0,91.49,12a5.16,5.16,0,0,0,1.34-1.25l1.09,1.09V8.1Z"/></svg>