<svg id="Layer_1" data-name="Layer 1" xmlns="http://www.w3.org/2000/svg" viewBox="0 0 33.19 8.01"><defs><style>.cls-1{fill:#424142;}</style></defs><path class="cls-1" d="M8.48,3.49A1.64,1.64,0,0,1,9.71,4a2.08,2.08,0,0,1,.52,1.26h0a3.32,3.32,0,0,1,2.66-1.72A1.91,1.91,0,0,1,14.33,4a2,2,0,0,1,.48,1.42,5.55,5.55,0,0,1-.15,1.26l-1,4.71H12.38l1-4.85a6.16,6.16,0,0,0,.12-1,1,1,0,0,0-.23-.69.94.94,0,0,0-.74-.26,1.79,1.79,0,0,0-1.09.4,3.63,3.63,0,0,0-1,1.16A6.11,6.11,0,0,0,9.9,7.87l-.74,3.5H7.89l1-4.85a6.49,6.49,0,0,0,.13-.95c0-.68-.32-1-.94-1A1.84,1.84,0,0,0,7,5a3.73,3.73,0,0,0-1,1.2A7.07,7.07,0,0,0,5.38,8l-.7,3.33H3.41L5.05,3.63h1L5.93,5.06H6a5.77,5.77,0,0,1,.83-.92,3.32,3.32,0,0,1,.76-.47A2.21,2.21,0,0,1,8.48,3.49Z" transform="translate(-3.41 -3.49)"/><path class="cls-1" d="M23.06,6.52A6.39,6.39,0,0,1,22.56,9a4.29,4.29,0,0,1-1.38,1.81,3.26,3.26,0,0,1-2,.64,2.81,2.81,0,0,1-2.12-.8,3,3,0,0,1-.77-2.17A6.37,6.37,0,0,1,16.83,6a4.32,4.32,0,0,1,1.39-1.81,3.31,3.31,0,0,1,2-.62,2.77,2.77,0,0,1,2.11.8A3,3,0,0,1,23.06,6.52Zm-1.3-.15a1.93,1.93,0,0,0-.42-1.3,1.47,1.47,0,0,0-1.15-.49,2,2,0,0,0-1.34.53,3.28,3.28,0,0,0-.93,1.44,6.14,6.14,0,0,0-.32,2A2,2,0,0,0,18,9.94a1.56,1.56,0,0,0,1.24.49,1.93,1.93,0,0,0,1.28-.5,3.34,3.34,0,0,0,.89-1.43A6.54,6.54,0,0,0,21.76,6.37Z" transform="translate(-3.41 -3.49)"/><path class="cls-1" d="M29.09,3.49a3.33,3.33,0,0,1,.84.1l-.28,1.14a4,4,0,0,0-.74-.08,2,2,0,0,0-1.19.41,3.57,3.57,0,0,0-1,1.15,5.42,5.42,0,0,0-.6,1.62l-.75,3.54H24.14l1.65-7.74h1l-.15,1.43h.07a6.55,6.55,0,0,1,.84-1,3,3,0,0,1,.7-.45A2.09,2.09,0,0,1,29.09,3.49Z" transform="translate(-3.41 -3.49)"/><path class="cls-1" d="M33.32,11.51a2.69,2.69,0,0,1-2.05-.78,2.91,2.91,0,0,1-.75-2.13A6.26,6.26,0,0,1,31,6.07a4.71,4.71,0,0,1,1.39-1.89,3.1,3.1,0,0,1,2-.69A2.47,2.47,0,0,1,36,4a1.66,1.66,0,0,1,.55,1.33,2.23,2.23,0,0,1-1.18,2A6.43,6.43,0,0,1,32.08,8h-.25l0,.54A2.12,2.12,0,0,0,32.23,10a1.63,1.63,0,0,0,1.32.51,3.22,3.22,0,0,0,1-.16,7.47,7.47,0,0,0,1.07-.43V11a5.91,5.91,0,0,1-1.22.44A4.84,4.84,0,0,1,33.32,11.51Zm1-7A1.88,1.88,0,0,0,33,5.22,4.05,4.05,0,0,0,32,7h.1a5.44,5.44,0,0,0,2.38-.41,1.27,1.27,0,0,0,.85-1.18.85.85,0,0,0-.25-.62A1.11,1.11,0,0,0,34.31,4.54Z" transform="translate(-3.41 -3.49)"/></svg>