<svg id="Layer_1" data-name="Layer 1" xmlns="http://www.w3.org/2000/svg" xmlns:xlink="http://www.w3.org/1999/xlink" viewBox="0 0 22 20"><defs><style>.cls-1{fill:url(#radial-gradient);}.cls-2{fill:#057f88;}.cls-3{fill:#82c5ca;}.cls-4{fill:#d7f4f6;}.cls-5{stroke:#6798aa;stroke-miterlimit:10;fill:url(#linear-gradient);}.cls-6{fill:#5590aa;}.cls-7{fill:#fff;}</style><radialGradient id="radial-gradient" cx="11" cy="10" r="10.51" gradientUnits="userSpaceOnUse"><stop offset="0" stop-color="#fff"/><stop offset="1" stop-color="#e7fdff"/></radialGradient><linearGradient id="linear-gradient" x1="10.6" y1="17.5" x2="10.6" y2="2.55" gradientUnits="userSpaceOnUse"><stop offset="0" stop-color="#8cdaff"/><stop offset="1" stop-color="#fafeff"/></linearGradient></defs><rect class="cls-1" width="22" height="20"/><rect class="cls-2" width="1" height="1"/><rect class="cls-3" x="1" width="1" height="1"/><rect class="cls-4" x="2" width="1" height="1"/><rect class="cls-3" y="1" width="1" height="1" transform="translate(2 1) rotate(90)"/><rect class="cls-4" y="2" width="1" height="1" transform="translate(3 2) rotate(90)"/><rect class="cls-2" y="19" width="1" height="1" transform="translate(-19 20) rotate(-90)"/><rect class="cls-3" y="18" width="1" height="1" transform="translate(-18 19) rotate(-90)"/><rect class="cls-4" y="17" width="1" height="1" transform="translate(-17 18) rotate(-90)"/><rect class="cls-3" x="1" y="19" width="1" height="1"/><rect class="cls-4" x="2" y="19" width="1" height="1"/><rect class="cls-2" x="21" y="19" width="1" height="1" transform="translate(43 39) rotate(180)"/><rect class="cls-3" x="20" y="19" width="1" height="1" transform="translate(41 39) rotate(180)"/><rect class="cls-4" x="19" y="19" width="1" height="1" transform="translate(39 39) rotate(180)"/><rect class="cls-3" x="21" y="18" width="1" height="1" transform="translate(3 40) rotate(-90)"/><rect class="cls-4" x="21" y="17" width="1" height="1" transform="translate(4 39) rotate(-90)"/><rect class="cls-2" x="21" width="1" height="1" transform="translate(22 -21) rotate(90)"/><rect class="cls-3" x="21" y="1" width="1" height="1" transform="translate(23 -20) rotate(90)"/><rect class="cls-4" x="21" y="2" width="1" height="1" transform="translate(24 -19) rotate(90)"/><rect class="cls-3" x="20" width="1" height="1" transform="translate(41 1) rotate(180)"/><rect class="cls-4" x="19" width="1" height="1" transform="translate(39 1) rotate(180)"/><rect class="cls-5" x="4.6" y="2.5" width="12" height="15"/><rect class="cls-6" x="6.61" y="4.99" width="7.98" height="0.99"/><rect class="cls-6" x="6.61" y="7.98" width="7.98" height="0.99"/><rect class="cls-6" x="6.61" y="10.96" width="7.98" height="0.99"/><rect class="cls-6" x="6.61" y="13.94" width="7.98" height="0.99"/><circle cx="15.17" cy="14.13" r="5.16"/><polygon class="cls-7" points="15.17 14.44 15.17 10.46 14.09 10.46 14.09 14.44 14.09 15.45 14.09 15.53 18.1 15.53 18.1 14.44 15.17 14.44"/></svg>