<svg id="Layer_1" data-name="Layer 1" xmlns="http://www.w3.org/2000/svg" viewBox="0 0 27.67 10.91"><defs><style>.cls-1,.cls-2{fill:#262523;stroke:#d9e1e7;stroke-miterlimit:10;}.cls-1{stroke-width:0.5px;}.cls-2{stroke-width:0.25px;}</style></defs><polygon class="cls-1" points="8.56 9.32 4.04 9.32 4.04 8.96 5.05 8.96 5.05 5.89 3.04 5.89 3.04 8.34 3.04 8.96 3.04 9.32 2.37 9.32 1.56 0.25 0.27 0.25 0.97 10.66 9.85 10.66 10.77 0.25 9.35 0.25 8.56 9.32"/><polygon class="cls-2" points="6.02 4.96 7.02 4.96 7.02 3.94 8 3.94 8 2.99 7.02 2.99 7.02 1.98 6.02 1.98 6.02 2.99 5.04 2.99 5.04 3.94 6.02 3.94 6.02 4.96"/><polygon class="cls-1" points="20.82 1.79 20.82 9.12 27.17 5.45 20.82 1.79"/><polygon class="cls-1" points="13.6 9.12 19.95 5.45 13.6 1.79 13.6 9.12"/></svg>