<svg id="Layer_1" data-name="Layer 1" xmlns="http://www.w3.org/2000/svg" xmlns:xlink="http://www.w3.org/1999/xlink" viewBox="0 0 100 14.8"><defs><style>.cls-1{stroke:#798a99;stroke-miterlimit:10;fill:url(#linear-gradient);}</style><linearGradient id="linear-gradient" x1="50" y1="0.58" x2="50" y2="14.36" gradientUnits="userSpaceOnUse"><stop offset="0.06" stop-color="#fff"/><stop offset="0.37" stop-color="#e8e8e8"/><stop offset="1" stop-color="#b0b0b0"/></linearGradient></defs><rect class="cls-1" x="0.5" y="0.5" width="99" height="13.8"/><path d="M7.19,4.79a4.24,4.24,0,0,1,7.72,2.43h.84A5.09,5.09,0,0,0,7.92,2.94,5.32,5.32,0,0,0,6.58,4.19L5.49,3.1V6.79Z" transform="translate(-0.1 -0.12)"/><path d="M16.1,8.12l-1.7,2.09A4.24,4.24,0,0,1,6.68,7.78H5.84a5.09,5.09,0,0,0,7.83,4.28A5.32,5.32,0,0,0,15,10.81L16.1,11.9V8.12Z" transform="translate(-0.1 -0.12)"/></svg>