<svg id="Layer_1" data-name="Layer 1" xmlns="http://www.w3.org/2000/svg" viewBox="0 0 30.06 25.06"><defs><style>.cls-1{fill:#00565e;stroke:#40969e;stroke-miterlimit:10;}.cls-2,.cls-3{fill:#fff;}.cls-2{opacity:0;}</style></defs><rect class="cls-1" x="0.5" y="0.5" width="29.06" height="24.06"/><rect class="cls-2" x="7.51" y="2.21" width="16.32" height="16.32"/><circle class="cls-3" cx="15.66" cy="7.32" r="3.07"/><path class="cls-3" d="M15.69,11.87c-3.07,0-5.57,2.06-5.57,4.6a.3.3,0,0,0,.31.3H21a.3.3,0,0,0,.31-.3C21.27,13.93,18.77,11.87,15.69,11.87Z" transform="translate(-0.03 0.05)"/><path class="cls-3" d="M24.3,11.31a.78.78,0,0,0-.75.81A8.84,8.84,0,0,1,8,18.21l-.34-.4.67.05a.75.75,0,0,0,.56-.18.73.73,0,0,0,.27-.54.77.77,0,0,0-.72-.83l-2.54-.19a.75.75,0,0,0-.3,0,.73.73,0,0,0-.45.39.75.75,0,0,0-.09.29l-.19,2.55a.78.78,0,0,0,1.56.11l0-.67.34.4a10.4,10.4,0,0,0,18.28-7.17A.78.78,0,0,0,24.3,11.31Z" transform="translate(-0.03 0.05)"/></svg>