<svg id="Layer_1" data-name="Layer 1" xmlns="http://www.w3.org/2000/svg" xmlns:xlink="http://www.w3.org/1999/xlink" viewBox="0 0 150.05 20.07"><defs><style>.cls-1{stroke:#798a99;fill:url(#linear-gradient);}.cls-1,.cls-2,.cls-3,.cls-4,.cls-5,.cls-6,.cls-7,.cls-8{stroke-miterlimit:10;}.cls-2,.cls-3,.cls-4,.cls-5,.cls-6,.cls-7,.cls-8{stroke:#7c9793;stroke-width:0.25px;}.cls-2{fill:url(#linear-gradient-2);}.cls-3{fill:url(#linear-gradient-3);}.cls-4{fill:url(#linear-gradient-4);}.cls-5{fill:url(#linear-gradient-5);}.cls-6{fill:url(#linear-gradient-6);}.cls-7{fill:url(#linear-gradient-7);}.cls-8{fill:url(#linear-gradient-8);}</style><linearGradient id="linear-gradient" x1="75.03" y1="0.5" x2="75.03" y2="19.68" gradientUnits="userSpaceOnUse"><stop offset="0.01" stop-color="#e2ebf4"/><stop offset="0.38" stop-color="#fff"/><stop offset="1" stop-color="#c5d8ea"/></linearGradient><linearGradient id="linear-gradient-2" x1="8.4" y1="2.82" x2="8.4" y2="15.68" gradientUnits="userSpaceOnUse"><stop offset="0" stop-color="#01cfc8"/><stop offset="1" stop-color="#069793"/></linearGradient><linearGradient id="linear-gradient-3" x1="12.87" y1="2.82" x2="12.87" y2="15.68" xlink:href="#linear-gradient-2"/><linearGradient id="linear-gradient-4" x1="21.62" y1="2.82" x2="21.62" y2="15.68" xlink:href="#linear-gradient-2"/><linearGradient id="linear-gradient-5" x1="25.27" y1="2.82" x2="25.27" y2="15.68" xlink:href="#linear-gradient-2"/><linearGradient id="linear-gradient-6" x1="23.27" y1="2.82" x2="23.27" y2="15.68" xlink:href="#linear-gradient-2"/><linearGradient id="linear-gradient-7" x1="25.54" y1="2.82" x2="25.54" y2="15.68" xlink:href="#linear-gradient-2"/><linearGradient id="linear-gradient-8" x1="24.99" y1="2.82" x2="24.99" y2="15.68" xlink:href="#linear-gradient-2"/></defs><polygon class="cls-1" points="149.55 19.57 0.5 19.57 0.5 0.5 149.47 0.5 149.55 19.57"/><path class="cls-2" d="M12.24,12.08a6,6,0,0,1-.6-.58c-.11-.14-.32-.18-.44-.24s-.85-.3-1-.17-.41.2-.51,0-.14-.24-.27-.27-.06-.18-.07-.32-.08-.28-.18-.18-.41.35-.45.22-.27-.65.06-.75a.78.78,0,0,1,.7.05c.08.09.15.33.25.3s.05-.21.08-.37.28-.36.39-.57.13-.34.27-.4a1.56,1.56,0,0,0,.35-.24c.13-.09.33-.18.41-.23a1.11,1.11,0,0,1,.52-.18c.11,0,.18,0,.09-.18a6.3,6.3,0,0,0-.39-.88,1.42,1.42,0,0,1-.28-.5c-.08-.22-.18-.4-.24-.25s-.21.34-.28.15a.48.48,0,0,0-.16-.26.61.61,0,0,0-.3-.15c-.13,0-.26,0-.25.14s-.12.35,0,.52.15.34,0,.39,0,.41-.11.4-.16,0-.16-.11,0-.32-.15-.32A.77.77,0,0,1,9,6.88c-.15-.11-.27,0-.23-.29s0-.33.15-.47.2-.21.32-.15.21.06.28,0,.22,0,.22-.13-.16-.09-.14-.23.09-.07.12-.31-.18-.62-.38-.57-.52.33-.59.21-.19-.07-.44,0A3.16,3.16,0,0,1,7,4.77s-.18-.13-.27-.06a1.21,1.21,0,0,1-.57,0c-.12,0-.22.13-.36.08A5.34,5.34,0,0,1,5,4.58c-.11-.07-.28-.07-.35-.11s-.35-.06-.4,0S4,4.7,3.91,4.8s-.23.08-.12.28-.26.33-.17.56,0,.82.35.94.68.18.89,0,.54-.18.64,0,.16.48.49.65a1.19,1.19,0,0,1,.61.86A2.13,2.13,0,0,0,7,9.45c.35.41.7,1.15.72,1s0-.35.11-.22.27.52.58.58.48.09.6.21a1.1,1.1,0,0,0,.35.24,1.71,1.71,0,0,1,.51.35.52.52,0,0,1,0,.45c-.06.18-.14.35,0,.52a3,3,0,0,0,.44.75.52.52,0,0,1,.28.52,13.43,13.43,0,0,0-.19,1.52c0,.23-.22,1,0,1.31a.65.65,0,0,0,.64.37c.14,0,0-.05,0-.19a.59.59,0,0,1,0-.47.4.4,0,0,0,0-.37.36.36,0,0,1,.07-.36c.1-.11.48-.43.61-.56s.88-1.07,1-1.15a1.09,1.09,0,0,0,.41-.56c.07-.29.34-.86.16-1A3.8,3.8,0,0,0,12.24,12.08Z" transform="translate(0.01 0.08)"/><path class="cls-3" d="M14.09,3.86c.06-.1.18-.36.25-.5H11.4a4.62,4.62,0,0,1,.14,1c0,.28.05.18.13.29a.48.48,0,0,1,0,.39,1,1,0,0,0,.07.74c.15.34.33.75.48.77s.11.24.21.16.12-.25.21-.51.08-.44.29-.56a7.37,7.37,0,0,0,.94-.68c.13-.15.28-.21.23-.46A1.07,1.07,0,0,1,14.09,3.86Z" transform="translate(0.01 0.08)"/><path class="cls-4" d="M28.58,5c-.11-.07-.78-.61-1.07-.54a1.65,1.65,0,0,1-.88-.21A4.33,4.33,0,0,0,25.5,4a6,6,0,0,1-1.26-.31c-.31-.14-.58-.81-1.19-.7a3.14,3.14,0,0,0-1,.28c-.18.17-.27.36-.37.4s-.4,0-.4.17.1.59,0,.5S21,4,21,4.2s-.15.24-.21.18-.33,0-.37.1a1.2,1.2,0,0,1-.56.35.92.92,0,0,0-.3.15c-.09,0-.72.33-.84.22s-.16,0-.23,0A.67.67,0,0,1,18.11,5c-.14-.18-.17-.12-.33-.29s-.19-.33-.35-.26a7.6,7.6,0,0,0-1.09,1.07c-.26.31-.72.63-.49.86s.35.19.38.32a1.12,1.12,0,0,0,.1.31s.26.22.37,0,.13-.4.26-.36.15.13.09.3-.11.45-.33.44-.47-.15-.54-.12-.12.1-.21.17-.34.39-.52.44-.39,0-.27.15.3.47.13.46-.44,0-.46.13-.09.26-.06.37.16.35.31.27.44-.16.51-.33.16-.37.34-.36.64.25.61.34-.12.29,0,.22a2.66,2.66,0,0,1,.27-.17c.06,0,.15.09.17.14s.22.15.26,0,.07,0,.18,0,.45.09.49.13a.2.2,0,0,1,0,.31.34.34,0,0,1-.49.1c-.22-.12-.45.1-.69,0s-.13-.28-.42-.4a2.39,2.39,0,0,0-1.14.09.45.45,0,0,0-.3.17c-.08.1-.63.73-.63,1.09s.21,1.33.87,1.24,1.05,0,1,.15,0,.25.08.47a18.38,18.38,0,0,1,.45,1.95c.05.25,0,.56.27.51a.92.92,0,0,0,.76-.41c.13-.28.15-.6.32-.77s.37-.16.39-.4-.05-.78.06-.91a4.57,4.57,0,0,0,.69-.94c.05-.24.13-.3-.08-.3s-.58,0-.68-.22a5,5,0,0,1-.35-.65c0-.09.15-.08.23.11s.33.74.63.62.71-.26.72-.44-.13-.4-.28-.39S19,10.05,19,10s0-.07.21,0,.23.18.5.2a1.53,1.53,0,0,1,.72.4,8,8,0,0,1,.48,1c.06.08.14.08.2-.08a3.67,3.67,0,0,1,.5-.78c.16-.14.17-.32.26-.21s.5.41.52.59,0,.55.07.43.15-.36.22-.25.08.28.25.15.48-.18.32-.45-.06-.44.05-.45.79-.13.81-.51-.24-.59-.12-.78.3-.37.34-.25-.1.49.07.43.36-.06.36-.17,0-.41,0-.49a4,4,0,0,0,.69-.8c.06-.2.18-.38.08-.53s-.28-.11-.14-.3A.88.88,0,0,1,26,6.7c.56,0,.4.65.41.8s0,.55.1.35a1.85,1.85,0,0,1,.35-.6.75.75,0,0,0,.27-.42c0-.14,0-.19.17-.27s.86-.35.92-.53-.08-.35.08-.34.33.19.41.09.27-.27.26-.37S28.69,5.09,28.58,5Z" transform="translate(0.01 0.08)"/><path class="cls-5" d="M25.58,8.28a2.83,2.83,0,0,0-.17.41,1.07,1.07,0,0,1-.14.36c-.08.17-.22.19-.36.29a.6.6,0,0,0-.18.32c-.12.17.5-.23.71-.36s.16-.27.18-.47a.37.37,0,0,1,.16-.32c.1-.09,0-.27,0-.39S25.64,8.16,25.58,8.28Z" transform="translate(0.01 0.08)"/><path class="cls-6" d="M23.68,12.7c.06,0,0-.16.12-.14s.19.08.31,0,.23,0,.21-.15,0-.27,0-.37-.2-.13-.32,0-.28.27-.28.21.07-.21,0-.31,0-.18-.16-.1-.29.05-.36.16-.14.29-.25.18a4.68,4.68,0,0,0-.43-.36s-.4-.33-.27-.13.32.56.42.68.19.28.3.21.13-.09.28,0S23.61,12.75,23.68,12.7Z" transform="translate(0.01 0.08)"/><path class="cls-7" d="M26,12.43c-.18-.08-.1-.15-.31-.19s-.39,0-.45,0-.34-.14-.3,0,.29.17.35.21-.09.13,0,.19.21.2.36.16.22.05.35.07.26,0,.2-.08a.29.29,0,0,1-.08-.2C26.11,12.49,26.13,12.51,26,12.43Z" transform="translate(0.01 0.08)"/><path class="cls-8" d="M25.86,13.29c-.07-.19-.22-.55-.26-.38a.48.48,0,0,1-.38.3c-.09,0,0-.1,0-.18s-.05-.16-.26-.1-.26.27-.32.25a.26.26,0,0,0-.29.05c-.1.1-.18.31-.29.35s-.48.08-.48.24.09.39.08.52-.18.41.05.5a.38.38,0,0,0,.37,0c.15-.07.79-.28.87-.21a3.08,3.08,0,0,0,.28.26c.12.07.15.23.31.27a1.61,1.61,0,0,0,.34.06.48.48,0,0,0,.35-.21c.06-.14.16-.46.21-.62a.41.41,0,0,0,0-.46A2.1,2.1,0,0,1,25.86,13.29Z" transform="translate(0.01 0.08)"/></svg>