<?xml version="1.0" encoding="utf-8"?>
<!-- Generator: Adobe Illustrator 26.0.2, SVG Export Plug-In . SVG Version: 6.00 Build 0)  -->
<svg version="1.1" id="Layer_1" xmlns="http://www.w3.org/2000/svg" xmlns:xlink="http://www.w3.org/1999/xlink" x="0px" y="0px"
	 viewBox="0 0 43 20" style="enable-background:new 0 0 43 20;" xml:space="preserve">
<style type="text/css">
	.st0{fill:#FF0000;}
	.st1{fill:#FFFFFF;}
</style>
<g>
	<polygon class="st0" points="43,17.96 0,17.96 0,2.04 43,2.04 37.97,9.97 	"/>
	<g>
		<path class="st1" d="M7.5,6.37c-0.92,0-1.65,0.31-2.17,0.93S4.54,8.76,4.54,9.83c0,1.11,0.26,1.96,0.77,2.56s1.24,0.9,2.19,0.9
			c0.61,0,1.29-0.11,2.06-0.34v0.94c-0.36,0.13-0.71,0.22-1.05,0.27s-0.72,0.07-1.16,0.07c-1.26,0-2.23-0.38-2.92-1.15
			S3.4,11.22,3.4,9.81c0-0.88,0.16-1.66,0.49-2.32s0.8-1.18,1.42-1.54s1.36-0.54,2.2-0.54c0.91,0,1.7,0.17,2.37,0.5L9.45,6.84
			C8.76,6.52,8.12,6.37,7.5,6.37z"/>
		<path class="st1" d="M14.57,12.02l-2.6-5.42h-0.04C11.98,7.22,12,7.99,12,8.91v5.2h-0.92V5.54h1.47l2.43,4.93h0.04l2.48-4.93h1.46
			v8.57h-0.98V8.84c0-0.59,0.03-1.33,0.08-2.23h-0.04l-2.63,5.41H14.57z"/>
		<path class="st1" d="M26.49,8.06c0,0.88-0.3,1.55-0.9,2.01s-1.44,0.7-2.53,0.7h-0.98v3.33h-1.08V5.54h2.27
			C25.42,5.54,26.49,6.38,26.49,8.06z M22.09,9.85h0.86c0.85,0,1.47-0.14,1.85-0.41s0.57-0.72,0.57-1.33c0-0.55-0.18-0.96-0.53-1.24
			s-0.91-0.41-1.66-0.41h-1.09V9.85z"/>
		<path class="st1" d="M35.03,14.11h-1.11l-4.04-6.26l0.05,6.26h-0.88V5.54h1.1l0.23,0.42l2.48,4.35l1.31,2.33h0.04
			c-0.01-0.09-0.02-0.43-0.04-1s-0.03-0.99-0.03-1.25V5.54h0.89V14.11z"/>
	</g>
</g>
</svg>
