<svg id="Layer_1" data-name="Layer 1" xmlns="http://www.w3.org/2000/svg" xmlns:xlink="http://www.w3.org/1999/xlink" viewBox="0 0 15 15"><defs><style>.cls-1{stroke:#655533;stroke-miterlimit:10;fill:url(#linear-gradient);}</style><linearGradient id="linear-gradient" x1="13.6" y1="11.13" x2="2.79" y2="4.7" gradientUnits="userSpaceOnUse"><stop offset="0" stop-color="#f5a807"/><stop offset="0.13" stop-color="#f5ab0d"/><stop offset="0.29" stop-color="#f6b31d"/><stop offset="0.48" stop-color="#f8bf38"/><stop offset="0.68" stop-color="#fad15e"/><stop offset="0.89" stop-color="#fde88d"/><stop offset="1" stop-color="#fff5a8"/></linearGradient></defs><circle class="cls-1" cx="7.5" cy="7.5" r="7"/><path d="M10.84,9.39a1.76,1.76,0,0,1-.69,1.39,3.31,3.31,0,0,1-1.76.69v1H7.68v-1a6.85,6.85,0,0,1-1.34-.14A5.34,5.34,0,0,1,5.16,11V9.9h.09a4.88,4.88,0,0,0,1.1.53,5.51,5.51,0,0,0,1.33.25V8.31l-.37-.08-.38-.09A2.45,2.45,0,0,1,5.6,7.45a1.6,1.6,0,0,1-.4-1.12A1.74,1.74,0,0,1,5.89,5,3.13,3.13,0,0,1,7.68,4.3V3.5h.71v.79a6.91,6.91,0,0,1,1.17.14,6.21,6.21,0,0,1,1,.27V5.79h-.1a5.59,5.59,0,0,0-.95-.46,3.91,3.91,0,0,0-1.11-.24V7.45l.38.08.31.07a2.63,2.63,0,0,1,1.3.61A1.53,1.53,0,0,1,10.84,9.39Zm-3.16-2V5.09a1.73,1.73,0,0,0-.93.33.9.9,0,0,0-.38.77A1,1,0,0,0,6.65,7,2.19,2.19,0,0,0,7.68,7.37Zm2,2.16a1,1,0,0,0-.29-.77,2.22,2.22,0,0,0-1-.37v2.28a1.76,1.76,0,0,0,1-.33A1,1,0,0,0,9.67,9.53Z" transform="translate(-0.42 -0.43)"/></svg>