<svg id="Layer_1" data-name="Layer 1" xmlns="http://www.w3.org/2000/svg" xmlns:xlink="http://www.w3.org/1999/xlink" viewBox="0 0 34 25"><defs><style>.cls-1{fill:url(#linear-gradient);}.cls-2{stroke:#63532f;stroke-miterlimit:10;fill:url(#linear-gradient-2);}</style><linearGradient id="linear-gradient" x1="17" y1="0.35" x2="17" y2="25.25" gradientUnits="userSpaceOnUse"><stop offset="0" stop-color="#e3c769"/><stop offset="0.07" stop-color="#e9d180"/><stop offset="0.33" stop-color="#fff3cc"/><stop offset="0.64" stop-color="#f4df99"/><stop offset="0.87" stop-color="#edd278"/><stop offset="1" stop-color="#eacd6b"/></linearGradient><linearGradient id="linear-gradient-2" x1="7.7" y1="2.02" x2="20.6" y2="16.56" gradientUnits="userSpaceOnUse"><stop offset="0.18" stop-color="#fff2a0"/><stop offset="0.42" stop-color="#fdd96b"/><stop offset="0.69" stop-color="#fbc036"/><stop offset="0.89" stop-color="#f9b015"/><stop offset="1" stop-color="#f9aa08"/></linearGradient></defs><rect class="cls-1" width="34" height="25"/><circle class="cls-2" cx="17" cy="12.5" r="10.09"/><path d="M21.52,14.85a2.86,2.86,0,0,1-1,2.3,5.12,5.12,0,0,1-2.9,1V20H16.35V18.23a9.92,9.92,0,0,1-3.85-.78V15.07a10.37,10.37,0,0,0,1.88.69,10.28,10.28,0,0,0,2,.35V13.32l-.6-.24a6.8,6.8,0,0,1-2.53-1.53,3,3,0,0,1-.74-2,2.68,2.68,0,0,1,1-2.15,5.2,5.2,0,0,1,2.85-1V5h1.24V6.31a10.34,10.34,0,0,1,3.73.82l-.85,2.11a9.79,9.79,0,0,0-2.88-.7V11.2a14.06,14.06,0,0,1,2.5,1.17,3.53,3.53,0,0,1,1.09,1.09A2.73,2.73,0,0,1,21.52,14.85ZM15.19,9.51a.87.87,0,0,0,.27.66,3.41,3.41,0,0,0,.89.52V8.58C15.58,8.69,15.19,9,15.19,9.51ZM18.81,15a.81.81,0,0,0-.31-.64,4.34,4.34,0,0,0-.91-.54v2.25C18.4,15.91,18.81,15.55,18.81,15Z"/></svg>