<svg id="Layer_1" data-name="Layer 1" xmlns="http://www.w3.org/2000/svg" viewBox="0 0 75.91 10.04"><defs><style>.cls-1{fill:#939393;}</style></defs><polygon class="cls-1" points="70.94 0 70.08 0.86 74.21 5.02 70.08 9.18 70.94 10.04 75.91 5.02 70.94 0"/><path class="cls-1" d="M64.41,4.89A2.11,2.11,0,1,0,66.52,7,2.11,2.11,0,0,0,64.41,4.89Z" transform="translate(-2.03 -1.98)"/><path class="cls-1" d="M54.6,4.89A2.11,2.11,0,1,0,56.7,7,2.11,2.11,0,0,0,54.6,4.89Z" transform="translate(-2.03 -1.98)"/><path class="cls-1" d="M44.5,4.89A2.11,2.11,0,1,0,46.61,7,2.11,2.11,0,0,0,44.5,4.89Z" transform="translate(-2.03 -1.98)"/><path class="cls-1" d="M34.41,4.89A2.11,2.11,0,1,0,36.52,7,2.11,2.11,0,0,0,34.41,4.89Z" transform="translate(-2.03 -1.98)"/><path class="cls-1" d="M24.32,4.89A2.11,2.11,0,1,0,26.43,7,2.12,2.12,0,0,0,24.32,4.89Z" transform="translate(-2.03 -1.98)"/><path class="cls-1" d="M14.23,4.89A2.11,2.11,0,1,0,16.33,7,2.12,2.12,0,0,0,14.23,4.89Z" transform="translate(-2.03 -1.98)"/><path class="cls-1" d="M4.14,4.89A2.11,2.11,0,1,0,6.24,7,2.11,2.11,0,0,0,4.14,4.89Z" transform="translate(-2.03 -1.98)"/></svg>