<?xml version="1.0" encoding="utf-8"?>
<!-- Generator: Adobe Illustrator 26.0.2, SVG Export Plug-In . SVG Version: 6.00 Build 0)  -->
<svg version="1.1" id="Layer_1" xmlns="http://www.w3.org/2000/svg" xmlns:xlink="http://www.w3.org/1999/xlink" x="0px" y="0px"
	 viewBox="0 0 45 18" style="enable-background:new 0 0 45 18;" xml:space="preserve">
<style type="text/css">
	.st0{fill:#FF0000;}
</style>
<g>
	<path class="st0" d="M35.01,0.27c-4.82,0-8.73,3.91-8.73,8.73s3.91,8.73,8.73,8.73c4.82,0,8.73-3.91,8.73-8.73
		S39.83,0.27,35.01,0.27z M30,9.57c-0.13-0.13-0.13-0.35,0-0.48l1.12-1.12L30,6.86c-0.13-0.13-0.13-0.35,0-0.48s0.35-0.13,0.48,0
		l1.12,1.12l1.12-1.12c0.13-0.13,0.35-0.13,0.48,0s0.13,0.35,0,0.48l-1.12,1.12l1.12,1.12c0.13,0.13,0.13,0.35,0,0.48
		s-0.35,0.13-0.48,0L31.6,8.45l-1.12,1.12C30.35,9.7,30.13,9.7,30,9.57z M39.36,13.8c-0.1,0.11-0.26,0.12-0.37,0.03
		c-3.88-3.35-7.96-0.03-8,0c-0.05,0.04-0.11,0.06-0.17,0.06c-0.08,0-0.15-0.03-0.2-0.09c-0.09-0.11-0.08-0.28,0.03-0.37
		c0.04-0.04,4.46-3.64,8.68,0C39.44,13.52,39.45,13.69,39.36,13.8z M39.81,9.09c0.13,0.13,0.13,0.35,0,0.48s-0.35,0.13-0.48,0
		l-1.12-1.12l-1.12,1.12c-0.13,0.13-0.35,0.13-0.48,0s-0.13-0.35,0-0.48l1.12-1.12l-1.12-1.12c-0.13-0.13-0.13-0.35,0-0.48
		s0.35-0.13,0.48,0l1.12,1.12l1.12-1.12c0.13-0.13,0.35-0.13,0.48,0s0.13,0.35,0,0.48l-1.12,1.12L39.81,9.09z"/>
	<path class="st0" d="M8.22,13.22c0,0.46,0.03,1.25,0.09,2.36H8.27L4.55,9.16H2.25v8.57h1.62V13.7c0-0.49-0.04-1.3-0.11-2.45h0.05
		l3.73,6.48h2.31V9.16H8.22V13.22z"/>
	<path class="st0" d="M15.72,9.03c-1.32,0-2.33,0.38-3.03,1.13s-1.06,1.84-1.06,3.27s0.35,2.52,1.05,3.28s1.71,1.14,3.02,1.14
		s2.32-0.38,3.02-1.14s1.05-1.85,1.05-3.27c0-1.42-0.35-2.51-1.05-3.27S17.04,9.03,15.72,9.03z M15.71,16.32
		c-0.72,0-1.27-0.24-1.63-0.73s-0.54-1.21-0.54-2.16s0.18-1.68,0.55-2.17s0.91-0.73,1.63-0.73c1.44,0,2.16,0.96,2.16,2.89
		C17.88,15.36,17.16,16.32,15.71,16.32z"/>
</g>
</svg>
