<svg id="Layer_1" data-name="Layer 1" xmlns="http://www.w3.org/2000/svg" xmlns:xlink="http://www.w3.org/1999/xlink" viewBox="0 0 31.29 31.37"><defs><style>.cls-1{stroke:#007e81;stroke-miterlimit:10;fill:url(#linear-gradient);}.cls-2{fill:#5dc5c6;}.cls-3{fill:#004a4b;}.cls-4{fill:#007e81;}.cls-5{fill:#082947;}.cls-6{fill:#fff;}</style><linearGradient id="linear-gradient" x1="15.51" y1="6.95" x2="15.51" y2="30.8" gradientUnits="userSpaceOnUse"><stop offset="0" stop-color="#feffff"/><stop offset="1" stop-color="#cff"/></linearGradient></defs><rect class="cls-1" x="0.5" y="6.95" width="30.02" height="23.93" rx="4.54"/><rect class="cls-2" x="4.07" y="25.36" width="22.88" height="2"/><rect class="cls-2" x="4.07" y="20.48" width="22.88" height="2"/><rect class="cls-2" x="4.07" y="15.6" width="22.88" height="2"/><rect class="cls-2" x="4.07" y="10.73" width="22.88" height="2"/><polygon class="cls-3" points="30.36 2.78 15.81 17.33 14.73 16.55 29.43 1.55 30.36 2.78"/><polygon class="cls-4" points="29.68 1.6 14.73 16.55 13.96 15.47 28.6 0.82 29.68 1.6"/><rect class="cls-5" x="31.23" y="1.72" width="1.31" height="2.62" transform="translate(5.21 21.8) rotate(-45)"/><polygon class="cls-5" points="14.42 17.79 13.03 18.25 13.49 16.86 14.27 17.02 14.42 17.79"/><polygon class="cls-6" points="13.96 15.47 13.49 16.86 14.42 17.79 15.81 17.33 13.96 15.47"/></svg>