<svg id="Layer_1" data-name="Layer 1" xmlns="http://www.w3.org/2000/svg" xmlns:xlink="http://www.w3.org/1999/xlink" viewBox="0 0 33.61 32.57"><defs><style>.cls-1{fill:url(#linear-gradient);}</style><linearGradient id="linear-gradient" x1="20" y1="5.66" x2="20" y2="34.27" gradientUnits="userSpaceOnUse"><stop offset="0" stop-color="#fff49e"/><stop offset="1" stop-color="#ffbe31"/></linearGradient></defs><path class="cls-1" d="M30.66,34.27H9.34A4.07,4.07,0,0,1,5.76,32.2a3.86,3.86,0,0,1,0-3.66h0L16.37,7.9A4,4,0,0,1,20,5.73h0A4,4,0,0,1,23.63,7.9L34.29,28.54a3.86,3.86,0,0,1,0,3.66A4.07,4.07,0,0,1,30.66,34.27Z" transform="translate(-3.2 -3.71)"/><path d="M32.17,36.29H7.83a4.65,4.65,0,0,1-4.08-2.37,4.4,4.4,0,0,1-.06-4.17h0L15.86,6.19A4.61,4.61,0,0,1,20,3.71h0A4.62,4.62,0,0,1,24.14,6.2L36.31,29.75a4.4,4.4,0,0,1-.06,4.17A4.66,4.66,0,0,1,32.17,36.29Zm-25.8-5a.93.93,0,0,0,0,.94A1.63,1.63,0,0,0,7.83,33H32.17a1.63,1.63,0,0,0,1.45-.77.93.93,0,0,0,0-.94L21.47,7.77A1.63,1.63,0,0,0,20,7h0a1.63,1.63,0,0,0-1.47.8Z" transform="translate(-3.2 -3.71)"/><polygon points="18.38 21.84 15.3 21.84 14.58 11.56 19.03 11.56 18.38 21.84"/><path d="M20,31.17a1.9,1.9,0,0,1-1.91-1.89v0a1.91,1.91,0,0,1,3.82,0A1.93,1.93,0,0,1,20,31.17Z" transform="translate(-3.2 -3.71)"/></svg>