<svg id="Layer_1" data-name="Layer 1" xmlns="http://www.w3.org/2000/svg" xmlns:xlink="http://www.w3.org/1999/xlink" viewBox="0 0 42.72 32.99"><defs><style>.cls-1{fill:#00737d;}.cls-2{fill:url(#linear-gradient);}.cls-3{fill:#fff;}</style><linearGradient id="linear-gradient" x1="5.17" y1="5.67" x2="27.87" y2="28.37" gradientUnits="userSpaceOnUse"><stop offset="0.03" stop-color="#f27a7a"/><stop offset="1" stop-color="#d30000"/></linearGradient></defs><path class="cls-1" d="M26.23,33H0V0H26.23A16.54,16.54,0,0,1,42.72,16.49h0A16.55,16.55,0,0,1,26.23,33Z" transform="translate(0 0)"/><circle class="cls-2" cx="16.12" cy="16.62" r="15.62"/><path class="cls-3" d="M16.12,32.75A16.13,16.13,0,1,1,32.24,16.62,16.15,16.15,0,0,1,16.12,32.75Zm0-31.25A15.13,15.13,0,1,0,31.24,16.62,15.14,15.14,0,0,0,16.12,1.5Z" transform="translate(0 0)"/><path class="cls-3" d="M15.35,11a2.69,2.69,0,1,0-2.69-2.69A2.69,2.69,0,0,0,15.35,11Z" transform="translate(0 0)"/><polygon class="cls-3" points="18.04 25.08 18.04 13.91 18.04 13.03 13.06 13.03 10.9 13.03 10.9 13.91 13.06 13.91 13.06 25.08 10.9 25.08 10.9 25.95 13.06 25.95 18.04 25.95 19.86 25.95 19.86 25.08 18.04 25.08"/></svg>