<svg id="Layer_1" data-name="Layer 1" xmlns="http://www.w3.org/2000/svg" viewBox="0 0 34.22 35.1"><defs><style>.cls-1{fill:#e6e6e6;}.cls-2{fill:red;}</style></defs><ellipse class="cls-1" cx="17.11" cy="32.62" rx="17.11" ry="2.48"/><path class="cls-2" d="M18.22,3.33A16.67,16.67,0,1,0,34.89,20,16.67,16.67,0,0,0,18.22,3.33ZM8.66,21.09a.66.66,0,0,1,0-.92L10.8,18,8.66,15.91A.65.65,0,0,1,9.58,15l2.13,2.14L13.85,15a.65.65,0,1,1,.91.92L12.63,18l2.13,2.13a.65.65,0,1,1-.91.92L11.71,19,9.58,21.09A.66.66,0,0,1,8.66,21.09Zm17.87,8.08a.51.51,0,0,1-.71,0c-7.41-6.41-15.2-.06-15.27,0a.51.51,0,0,1-.32.12.5.5,0,0,1-.39-.18.5.5,0,0,1,.07-.7c.08-.08,8.52-6.95,16.57,0A.51.51,0,0,1,26.53,29.17Zm.86-9a.65.65,0,1,1-.92.92L24.34,19l-2.13,2.13a.65.65,0,1,1-.92-.92L23.42,18l-2.13-2.13a.65.65,0,1,1,.92-.92l2.13,2.14L26.47,15a.65.65,0,1,1,.92.92L25.26,18Z" transform="translate(-1.11 -3.33)"/></svg>