<svg id="Layer_1" data-name="Layer 1" xmlns="http://www.w3.org/2000/svg" viewBox="0 0 39.97 17.18"><defs><style>.cls-1{fill:#ffb401;}</style></defs><path class="cls-1" d="M22.74.41A8.59,8.59,0,1,0,31.32,9,8.59,8.59,0,0,0,22.74.41ZM19.69,9H15.61V8h4.08Zm6.06,0H21.68V8h4.07Z" transform="translate(-2.52 -0.41)"/><path class="cls-1" d="M42.22,4.46a2.8,2.8,0,0,0-.77-1,3.41,3.41,0,0,0-1.23-.63,5.75,5.75,0,0,0-1.61-.22,5.39,5.39,0,0,0-1,.09,8.08,8.08,0,0,0-1,.24,9.42,9.42,0,0,0-.93.36c-.29.13-.57.27-.82.41l.9,2A14.38,14.38,0,0,1,37.26,5a3.87,3.87,0,0,1,1.31-.25,1.46,1.46,0,0,1,1,.32,1.09,1.09,0,0,1,.34.83,1.93,1.93,0,0,1-.07.57,1.37,1.37,0,0,1-.23.47,2.39,2.39,0,0,1-.41.45c-.17.16-.38.33-.62.52a7.07,7.07,0,0,0-.73.65,3.45,3.45,0,0,0-.48.64,2.5,2.5,0,0,0-.28.7,2.9,2.9,0,0,0-.1.81v.65h2.32v-.53a2.31,2.31,0,0,1,0-.49,1.41,1.41,0,0,1,.18-.4,3.17,3.17,0,0,1,.37-.41c.15-.14.35-.31.6-.5s.61-.5.85-.73A5,5,0,0,0,42,7.6a2.82,2.82,0,0,0,.36-.81,3.65,3.65,0,0,0,.12-1A3.35,3.35,0,0,0,42.22,4.46Z" transform="translate(-2.52 -0.41)"/><path class="cls-1" d="M39.36,13.24a1.22,1.22,0,0,0-.49-.26,2.2,2.2,0,0,0-.58-.08,2.37,2.37,0,0,0-.61.08,1.26,1.26,0,0,0-.5.26,1.14,1.14,0,0,0-.33.46,1.79,1.79,0,0,0-.12.7,1.67,1.67,0,0,0,.12.67,1.25,1.25,0,0,0,.33.47,1.42,1.42,0,0,0,.5.27,2.37,2.37,0,0,0,.61.08,2.2,2.2,0,0,0,.58-.08,1.37,1.37,0,0,0,.49-.27,1.39,1.39,0,0,0,.34-.47,1.67,1.67,0,0,0,.12-.67,1.79,1.79,0,0,0-.12-.7A1.26,1.26,0,0,0,39.36,13.24Z" transform="translate(-2.52 -0.41)"/><path class="cls-1" d="M7,13.24A1.29,1.29,0,0,0,6.47,13a2.27,2.27,0,0,0-.59-.08,2.43,2.43,0,0,0-.61.08,1.22,1.22,0,0,0-.49.26,1.14,1.14,0,0,0-.33.46,1.79,1.79,0,0,0-.12.7,1.67,1.67,0,0,0,.12.67,1.25,1.25,0,0,0,.33.47,1.37,1.37,0,0,0,.49.27,2.43,2.43,0,0,0,.61.08,2.27,2.27,0,0,0,.59-.08A1.47,1.47,0,0,0,7,15.54a1.25,1.25,0,0,0,.33-.47,1.67,1.67,0,0,0,.12-.67,1.79,1.79,0,0,0-.12-.7A1.14,1.14,0,0,0,7,13.24Z" transform="translate(-2.52 -0.41)"/><path class="cls-1" d="M9,3.46a3.28,3.28,0,0,0-1.22-.63A5.77,5.77,0,0,0,6.2,2.61a5.39,5.39,0,0,0-1,.09,8.58,8.58,0,0,0-1,.24,8.38,8.38,0,0,0-.92.36,9,9,0,0,0-.82.41l.89,2A13.57,13.57,0,0,1,4.86,5a3.83,3.83,0,0,1,1.31-.25,1.48,1.48,0,0,1,1,.32,1.12,1.12,0,0,1,.34.83,2.34,2.34,0,0,1-.07.57A1.86,1.86,0,0,1,7.24,7a2.79,2.79,0,0,1-.41.45c-.18.16-.38.33-.63.52a8.07,8.07,0,0,0-.72.65A3.52,3.52,0,0,0,5,9.23a2.85,2.85,0,0,0-.28.7,3.35,3.35,0,0,0-.09.81v.65H6.94v-.53a2.31,2.31,0,0,1,0-.49,1.18,1.18,0,0,1,.18-.4,3.9,3.9,0,0,1,.36-.41c.16-.14.36-.31.6-.5s.61-.5.85-.73a4,4,0,0,0,.61-.73A3.15,3.15,0,0,0,10,6.79a3.65,3.65,0,0,0,.12-1,3.19,3.19,0,0,0-.27-1.35A2.69,2.69,0,0,0,9,3.46Z" transform="translate(-2.52 -0.41)"/></svg>