<svg id="Layer_1" data-name="Layer 1" xmlns="http://www.w3.org/2000/svg" viewBox="0 0 41.63 18.01"><defs><style>.cls-1{fill:#008cf0;}</style></defs><path class="cls-1" d="M9.91,0a9,9,0,1,0,9,9A9,9,0,0,0,9.91,0ZM6.42,5.29A1.48,1.48,0,1,1,4.93,6.77,1.48,1.48,0,0,1,6.42,5.29Zm8,6.21c-1.44,2-3,3-4.59,3H9.74c-2.66-.09-4.44-2.92-4.52-3A.37.37,0,0,1,5.35,11a.36.36,0,0,1,.51.12s1.65,2.61,3.91,2.68c1.39.06,2.76-.86,4.09-2.71a.38.38,0,0,1,.52-.08A.37.37,0,0,1,14.46,11.5ZM13.38,8.25a1.48,1.48,0,1,1,1.48-1.48A1.49,1.49,0,0,1,13.38,8.25Z" transform="translate(-0.9)"/><polygon class="cls-1" points="23.53 12.65 21.76 9.13 19.79 9.13 22.63 14.42 22.63 17.69 24.44 17.69 24.44 14.36 27.28 9.13 25.32 9.13 23.53 12.65"/><polygon class="cls-1" points="29.36 17.69 34.3 17.69 34.3 16.19 31.18 16.19 31.18 13.98 34.08 13.98 34.08 12.5 31.18 12.5 31.18 10.62 34.3 10.62 34.3 9.13 29.36 9.13 29.36 17.69"/><path class="cls-1" d="M42.09,13.9a4.54,4.54,0,0,0-1.65-1.15,11.82,11.82,0,0,1-1.15-.6,1.16,1.16,0,0,1-.35-.35.73.73,0,0,1-.11-.42.78.78,0,0,1,.27-.62,1.17,1.17,0,0,1,.79-.24,3.32,3.32,0,0,1,.88.11,7.74,7.74,0,0,1,1.14.39l.58-1.41a9.64,9.64,0,0,0-1.26-.45A5.34,5.34,0,0,0,40,9a3.21,3.21,0,0,0-2.13.65,2.24,2.24,0,0,0-.77,1.79,2.36,2.36,0,0,0,.23,1.06,2.82,2.82,0,0,0,.63.79,5.76,5.76,0,0,0,1.18.71,9.5,9.5,0,0,1,1.11.58,1.5,1.5,0,0,1,.41.37.71.71,0,0,1,.14.45.76.76,0,0,1-.32.68,1.55,1.55,0,0,1-.91.23,4.17,4.17,0,0,1-1.1-.16A9.19,9.19,0,0,1,37,15.61v1.68a5.36,5.36,0,0,0,2.43.52,3.6,3.6,0,0,0,2.32-.67,2.19,2.19,0,0,0,.83-1.83A2.22,2.22,0,0,0,42.09,13.9Z" transform="translate(-0.9)"/></svg>