<?xml version="1.0" encoding="utf-8"?>
<!-- Generator: Adobe Illustrator 26.0.2, SVG Export Plug-In . SVG Version: 6.00 Build 0)  -->
<svg version="1.1" id="Layer_1" xmlns="http://www.w3.org/2000/svg" xmlns:xlink="http://www.w3.org/1999/xlink" x="0px" y="0px"
	 viewBox="0 0 50 20" style="enable-background:new 0 0 50 20;" xml:space="preserve">
<style type="text/css">
	.st0{fill:#FFFFFF;}
	.st1{fill:#199100;}
</style>
<g>
	<g>
		<rect x="0.51" y="0.54" class="st0" width="48.89" height="19.04"/>
		<path class="st1" d="M0,0.02v20h50v-20H0z M49.06,19.03H0.94V1h48.11V19.03z"/>
	</g>
	<g>
		<path class="st1" d="M22.75,11.41V16h-2.54V4.03h3.49c1.63,0,2.83,0.3,3.61,0.89c0.78,0.59,1.17,1.49,1.17,2.7
			c0,0.7-0.19,1.33-0.58,1.88c-0.39,0.55-0.94,0.98-1.65,1.29L29.78,16h-2.82l-2.86-4.6H22.75z M22.75,9.34h0.82
			c0.8,0,1.4-0.13,1.78-0.4c0.38-0.27,0.57-0.69,0.57-1.26c0-0.57-0.2-0.97-0.59-1.21s-0.99-0.36-1.81-0.36h-0.77V9.34z"/>
	</g>
</g>
</svg>
