<?xml version="1.0" encoding="utf-8"?>
<!-- Generator: Adobe Illustrator 26.0.3, SVG Export Plug-In . SVG Version: 6.00 Build 0)  -->
<svg version="1.1" id="Layer_1" xmlns="http://www.w3.org/2000/svg" xmlns:xlink="http://www.w3.org/1999/xlink" x="0px" y="0px"
	 viewBox="0 0 30 30" style="enable-background:new 0 0 30 30;" xml:space="preserve">
<style type="text/css">
	.st0{fill:url(#SVGID_1_);}
	.st1{fill:#FFFFFF;}
	.st2{fill:#8D7370;stroke:#8D7370;stroke-miterlimit:10;}
	.st3{fill:#FFFFFF;stroke:#FFFFFF;stroke-miterlimit:10;}
</style>
<g>
	<g>
		<g>
			<g>
				<linearGradient id="SVGID_1_" gradientUnits="userSpaceOnUse" x1="15" y1="0.892" x2="15" y2="29.2799">
					<stop  offset="0" style="stop-color:#E17063"/>
					<stop  offset="0.9999" style="stop-color:#D43225"/>
				</linearGradient>
				<path class="st0" d="M24.69,29.08H5.31c-2.41,0-4.39-1.98-4.39-4.39V5.31c0-2.41,1.98-4.39,4.39-4.39h19.38
					c2.41,0,4.39,1.98,4.39,4.39v19.38C29.08,27.1,27.1,29.08,24.69,29.08z"/>
				<path class="st1" d="M24.69,29.5H5.31c-2.69,0-4.87-2.19-4.87-4.87V5.37c0-2.69,2.19-4.87,4.87-4.87h19.38
					c2.69,0,4.87,2.19,4.87,4.87v19.25C29.56,27.31,27.38,29.5,24.69,29.5z M5.31,1.47c-2.15,0-3.91,1.75-3.91,3.91v19.25
					c0,2.15,1.75,3.91,3.91,3.91h19.38c2.15,0,3.91-1.75,3.91-3.91V5.37c0-2.15-1.75-3.91-3.91-3.91H5.31z"/>
			</g>
		</g>
	</g>
	<polygon class="st2" points="22.5,8.62 21.38,7.5 15,13.88 8.62,7.5 7.5,8.62 13.88,15 7.5,21.38 8.62,22.5 15,16.12 21.38,22.5 
		22.5,21.38 16.12,15 	"/>
	<polygon class="st3" points="22.15,8.62 21.03,7.5 14.65,13.88 8.27,7.5 7.15,8.62 13.53,15 7.15,21.38 8.27,22.5 14.65,16.12 
		21.03,22.5 22.15,21.38 15.77,15 	"/>
</g>
</svg>
