<svg id="Layer_1" data-name="Layer 1" xmlns="http://www.w3.org/2000/svg" xmlns:xlink="http://www.w3.org/1999/xlink" viewBox="0 0 50 44.84"><defs><style>.cls-1{fill:#eee;}.cls-2{fill:#ffc83c;}.cls-3{fill:url(#linear-gradient);}</style><linearGradient id="linear-gradient" x1="24.95" y1="7.78" x2="24.95" y2="42.55" gradientUnits="userSpaceOnUse"><stop offset="0" stop-color="#fff8a7"/><stop offset="1" stop-color="#ffbf33"/></linearGradient></defs><rect class="cls-1" y="28.24" width="50" height="16.61"/><rect class="cls-2" width="50" height="29.9"/><path class="cls-3" d="M43.2,36.89,27.83,8.68a3.2,3.2,0,0,0-5.76,0L6.7,36.89a4.06,4.06,0,0,0,0,3.76,3.33,3.33,0,0,0,2.93,1.89H40.32a3.32,3.32,0,0,0,2.93-1.89A4.06,4.06,0,0,0,43.2,36.89Z" transform="translate(0 -0.08)"/><path d="M44,37.17,28,8a3.35,3.35,0,0,0-6,0L6,37.17a4.13,4.13,0,0,0,0,3.88A3.47,3.47,0,0,0,9,43H41a3.47,3.47,0,0,0,3.05-2A4.13,4.13,0,0,0,44,37.17Zm-2.16,2.51a1,1,0,0,1-.84.54H9a1,1,0,0,1-.84-.54,1.16,1.16,0,0,1,0-1.07l16-29.13a.93.93,0,0,1,1.66,0l16,29.13A1.16,1.16,0,0,1,41.85,39.68Z" transform="translate(0 -0.08)"/><path d="M22.43,19.23v11.6h3.84V19.23Z" transform="translate(0 -0.08)"/><path d="M24.37,34a2.54,2.54,0,1,0,0,5.07,2.54,2.54,0,1,0,0-5.07Z" transform="translate(0 -0.08)"/></svg>