<?xml version="1.0" encoding="utf-8"?>
<!-- Generator: Adobe Illustrator 26.0.2, SVG Export Plug-In . SVG Version: 6.00 Build 0)  -->
<svg version="1.1" id="Layer_1" xmlns="http://www.w3.org/2000/svg" xmlns:xlink="http://www.w3.org/1999/xlink" x="0px" y="0px"
	 viewBox="0 0 30 30" style="enable-background:new 0 0 30 30;" xml:space="preserve">
<style type="text/css">
	.st0{fill:url(#SVGID_1_);}
	.st1{fill:#FFFFFF;}
	.st2{fill:#0A1C2F;}
</style>
<g>
	<g>
		<g>
			<linearGradient id="SVGID_1_" gradientUnits="userSpaceOnUse" x1="2.0888" y1="2.2202" x2="28.1801" y2="28.046">
				<stop  offset="0" style="stop-color:#9CB8E3"/>
				<stop  offset="0.9979" style="stop-color:#0F5EB3"/>
			</linearGradient>
			<path class="st0" d="M24.69,29.08H5.31c-2.41,0-4.39-1.98-4.39-4.39V5.31c0-2.41,1.98-4.39,4.39-4.39h19.38
				c2.41,0,4.39,1.98,4.39,4.39v19.38C29.08,27.1,27.1,29.08,24.69,29.08z"/>
			<path class="st1" d="M24.69,29.5H5.31c-2.69,0-4.87-2.19-4.87-4.87V5.37c0-2.69,2.19-4.87,4.87-4.87h19.38
				c2.69,0,4.87,2.19,4.87,4.87v19.25C29.56,27.31,27.38,29.5,24.69,29.5z M5.31,1.47c-2.15,0-3.91,1.75-3.91,3.91v19.25
				c0,2.15,1.75,3.91,3.91,3.91h19.38c2.15,0,3.91-1.75,3.91-3.91V5.37c0-2.15-1.75-3.91-3.91-3.91H5.31z"/>
		</g>
	</g>
	<g>
		<path class="st2" d="M19.43,7.81c-0.86-0.76-2.83-2.27-9.2-0.69v2.87h0.12c0.4-0.26,0.92-0.51,1.56-0.76
			c0.64-0.24,1.33-0.36,2.05-0.36c0.83,0,1.5,0.2,2.01,0.6c0.52,0.4,0.77,1.01,0.77,1.83c0,0.56-0.11,0.41-0.33,0.85
			c-0.22,0.44-0.52,0.84-0.91,1.21c-0.3,0.3-0.73,0.62-1.27,0.96c-0.54,0.34-1.01,0.64-1.42,0.89v3.72h3.7v-2.57
			c0.55-0.33,1.08-0.68,1.57-1.03c0.5-0.35,0.94-0.74,1.33-1.16c0.39-0.42,0.71-0.91,0.94-1.46c0.24-0.55,0.35-1.19,0.35-1.9
			C20.71,9.56,20.29,8.56,19.43,7.81z"/>
		<rect x="12.82" y="19.76" class="st2" width="3.7" height="2.83"/>
	</g>
	<g>
		<path class="st1" d="M18.96,7.5c-0.86-0.76-2.83-1.96-9.2-0.38v2.87h0.12c0.4-0.26,0.92-0.51,1.56-0.76
			c0.64-0.24,1.33-0.36,2.05-0.36c0.83,0,1.5,0.2,2.01,0.6c0.52,0.4,0.77,1.01,0.77,1.83c0,0.56-0.48,1.3-1.24,2.06
			c-0.3,0.3-0.73,0.62-1.27,0.96c-0.54,0.34-1.01,0.64-1.42,0.89v3.32h3.7v-2.48c0.55-0.33,1.08-0.68,1.57-1.03
			c0.5-0.35,0.94-0.74,1.33-1.16c0.39-0.42,0.71-0.91,0.94-1.46c0.24-0.55,0.35-1.19,0.35-1.9C20.24,9.25,19.81,8.25,18.96,7.5z"/>
		<rect x="12.35" y="19.76" class="st1" width="3.7" height="2.58"/>
	</g>
</g>
</svg>
