<?xml version="1.0" encoding="utf-8"?>
<!-- Generator: Adobe Illustrator 26.0.2, SVG Export Plug-In . SVG Version: 6.00 Build 0)  -->
<svg version="1.1" id="Layer_1" xmlns="http://www.w3.org/2000/svg" xmlns:xlink="http://www.w3.org/1999/xlink" x="0px" y="0px"
	 viewBox="0 0 30 30" style="enable-background:new 0 0 30 30;" xml:space="preserve">
<style type="text/css">
	.st0{fill:url(#SVGID_1_);}
	.st1{fill:#FFFFFF;}
	.st2{fill:#142F00;}
</style>
<g>
	<g>
		<linearGradient id="SVGID_1_" gradientUnits="userSpaceOnUse" x1="2.0559" y1="2.1876" x2="28.2137" y2="28.0793">
			<stop  offset="0" style="stop-color:#9BF400"/>
			<stop  offset="1" style="stop-color:#39B300"/>
		</linearGradient>
		<path class="st0" d="M24.71,29.11H5.29c-2.42,0-4.4-1.98-4.4-4.4V5.29c0-2.42,1.98-4.4,4.4-4.4h19.43c2.42,0,4.4,1.98,4.4,4.4
			v19.43C29.11,27.13,27.13,29.11,24.71,29.11z"/>
		<path class="st1" d="M24.71,29.54H5.29c-2.69,0-4.89-2.19-4.89-4.89V5.35c0-2.69,2.19-4.89,4.89-4.89h19.43
			c2.69,0,4.89,2.19,4.89,4.89v19.3C29.6,27.35,27.41,29.54,24.71,29.54z M5.29,1.43c-2.16,0-3.92,1.76-3.92,3.92v19.3
			c0,2.16,1.76,3.92,3.92,3.92h19.43c2.16,0,3.92-1.76,3.92-3.92V5.35c0-2.16-1.76-3.92-3.92-3.92H5.29z"/>
	</g>
	<polygon class="st2" points="15.37,4.65 17.8,12.14 25.67,12.14 19.3,16.77 21.73,24.25 15.37,19.63 9,24.25 11.43,16.77 
		5.06,12.14 12.93,12.14 	"/>
	<polygon class="st1" points="15,4.42 17.43,11.91 25.31,11.91 18.94,16.54 21.37,24.02 15,19.4 8.63,24.02 11.06,16.54 4.69,11.91 
		12.57,11.91 	"/>
</g>
</svg>
