<svg id="Layer_1" data-name="Layer 1" xmlns="http://www.w3.org/2000/svg" viewBox="0 0 45 20"><defs><style>.cls-1{fill:#fff;}.cls-2{fill:#199100;}</style></defs><rect class="cls-1" x="0.51" y="0.52" width="43.89" height="19.04"/><path class="cls-2" d="M0,0V20H45V0ZM44.06,19H.94V1H44.06Z"/><path class="cls-2" d="M20.25,11.39V16H17.72V4h3.49a6,6,0,0,1,3.61.89A3.17,3.17,0,0,1,26,7.6a3.17,3.17,0,0,1-.58,1.88,3.85,3.85,0,0,1-1.65,1.29L27.28,16H24.47l-2.86-4.6Zm0-2.06h.82a3.19,3.19,0,0,0,1.78-.4,1.45,1.45,0,0,0,.58-1.26,1.32,1.32,0,0,0-.59-1.22A3.58,3.58,0,0,0,21,6.09h-.77Z"/></svg>