<?xml version="1.0" encoding="utf-8"?>
<!-- Generator: Adobe Illustrator 26.0.2, SVG Export Plug-In . SVG Version: 6.00 Build 0)  -->
<svg version="1.1" id="Layer_1" xmlns="http://www.w3.org/2000/svg" xmlns:xlink="http://www.w3.org/1999/xlink" x="0px" y="0px"
	 viewBox="0 0 38 38" style="enable-background:new 0 0 38 38;" xml:space="preserve">
<style type="text/css">
	.st0{fill:url(#SVGID_1_);}
	.st1{fill:#03585F;}
	
		.st2{fill:url(#SVGID_00000178887994753034684270000006850328262293887394_);stroke:#FFFFFF;stroke-width:0.5;stroke-miterlimit:10;}
	.st3{fill:#FFFFFF;}
</style>
<g>
	<linearGradient id="SVGID_1_" gradientUnits="userSpaceOnUse" x1="2.5694" y1="2.6182" x2="32.207" y2="28.2915">
		<stop  offset="0" style="stop-color:#20767B"/>
		<stop  offset="0.2013" style="stop-color:#1F7479"/>
		<stop  offset="0.2736" style="stop-color:#1B6E72"/>
		<stop  offset="0.3252" style="stop-color:#156267"/>
		<stop  offset="0.3359" style="stop-color:#135F63"/>
		<stop  offset="0.3893" style="stop-color:#0E5558"/>
		<stop  offset="0.486" style="stop-color:#07494D"/>
		<stop  offset="0.6221" style="stop-color:#044346"/>
		<stop  offset="1" style="stop-color:#034144"/>
	</linearGradient>
	<path class="st0" d="M2.49,2.71V28.2h29.79V2.71H2.49z M24.49,4.48h2.04v1.04h-2.04V4.48z M20.42,4.48h1.03v1.04h-1.03V4.48z
		 M30.56,26.68H4.21V8.52h26.35V26.68z M30.57,5.52h-1.06V4.48h1.06V5.52z"/>
	<g>
		<path class="st1" d="M12.15,14.25c0,0.92-0.29,1.63-0.86,2.12s-1.4,0.73-2.46,0.73H8.05v3.05H6.23v-8.57h2.74
			c1.04,0,1.83,0.22,2.37,0.67S12.15,13.37,12.15,14.25z M8.05,15.61h0.6c0.56,0,0.98-0.11,1.25-0.33s0.42-0.54,0.42-0.96
			c0-0.43-0.12-0.74-0.35-0.94s-0.6-0.3-1.09-0.3H8.05V15.61z"/>
		<path class="st1" d="M20.98,20.15h-2.31l-3.73-6.48h-0.05c0.07,1.14,0.11,1.96,0.11,2.45v4.03h-1.62v-8.57h2.29L19.39,18h0.04
			c-0.06-1.11-0.09-1.9-0.09-2.36v-4.05h1.63V20.15z"/>
		<path class="st1" d="M24.26,16.86v3.29h-1.82v-8.57h2.5c1.16,0,2.03,0.21,2.58,0.64s0.84,1.07,0.84,1.93
			c0,0.5-0.14,0.95-0.42,1.34s-0.67,0.7-1.18,0.92l2.52,3.73h-2.02l-2.04-3.29H24.26z M24.26,15.38h0.59c0.57,0,1-0.1,1.27-0.29
			s0.41-0.49,0.41-0.9c0-0.41-0.14-0.7-0.42-0.87s-0.71-0.26-1.3-0.26h-0.55V15.38z"/>
	</g>
	<g>
		<polygon class="st1" points="6.04,22.62 6.06,24.81 9.59,24.78 2.91,31.22 4.5,32.83 10.95,26.62 10.9,29.69 13.08,29.73 
			13.2,22.58 		"/>
	</g>
	<g>
		
			<linearGradient id="SVGID_00000065760424809254660630000009386418750425062063_" gradientUnits="userSpaceOnUse" x1="22.3498" y1="22.7202" x2="33.5875" y2="32.7717">
			<stop  offset="0" style="stop-color:#20767B"/>
			<stop  offset="0.296" style="stop-color:#1F7479"/>
			<stop  offset="0.4025" style="stop-color:#1B6E72"/>
			<stop  offset="0.4783" style="stop-color:#156267"/>
			<stop  offset="0.4941" style="stop-color:#135F63"/>
			<stop  offset="0.5348" style="stop-color:#0E5558"/>
			<stop  offset="0.6085" style="stop-color:#07494D"/>
			<stop  offset="0.7121" style="stop-color:#044346"/>
			<stop  offset="1" style="stop-color:#034144"/>
		</linearGradient>
		
			<circle style="fill:url(#SVGID_00000065760424809254660630000009386418750425062063_);stroke:#FFFFFF;stroke-width:0.5;stroke-miterlimit:10;" cx="27.92" cy="27.7" r="7.59"/>
		<path class="st3" d="M30.73,22.96l-2.8,3.74l-2.8-3.74l-0.86,0.65l2.59,3.45h-1.62v1.08h2.16v1.08h-2.16v1.08h2.16v2.16h1.08
			v-2.16h2.16v-1.08h-2.16v-1.08h2.16v-1.08H29l2.59-3.45L30.73,22.96z"/>
	</g>
</g>
</svg>
