<?xml version="1.0" encoding="utf-8"?>
<!-- Generator: Adobe Illustrator 26.0.2, SVG Export Plug-In . SVG Version: 6.00 Build 0)  -->
<svg version="1.1" id="Layer_1" xmlns="http://www.w3.org/2000/svg" xmlns:xlink="http://www.w3.org/1999/xlink" x="0px" y="0px"
	 viewBox="0 0 19 19" style="enable-background:new 0 0 19 19;" xml:space="preserve">
<style type="text/css">
	.st0{fill:url(#SVGID_1_);}
	.st1{fill:#5DAC03;}
</style>
<g>
	<linearGradient id="SVGID_1_" gradientUnits="userSpaceOnUse" x1="9.3547" y1="14.3096" x2="9.3547" y2="6.6126">
		<stop  offset="0" style="stop-color:#417901"/>
		<stop  offset="0.3015" style="stop-color:#4F9202"/>
		<stop  offset="0.6176" style="stop-color:#59A503"/>
		<stop  offset="0.8356" style="stop-color:#5DAC03"/>
	</linearGradient>
	<path class="st0" d="M15.14,8.7l-4.31-4.31c-0.42-0.42-1.1-0.42-1.52,0c-0.42,0.42-0.42,1.1,0,1.52l2.47,2.47H4.33
		c-0.59,0-1.08,0.48-1.08,1.08s0.48,1.08,1.08,1.08h7.45L9.31,13c-0.42,0.42-0.42,1.1,0,1.52c0.21,0.21,0.49,0.32,0.76,0.32
		c0.28,0,0.55-0.11,0.76-0.32l4.31-4.31C15.56,9.8,15.56,9.12,15.14,8.7z"/>
	<path class="st1" d="M14.13,18.3H4.87c-2.3,0-4.16-1.87-4.16-4.16V4.87c0-2.3,1.87-4.16,4.16-4.16h9.26c2.3,0,4.17,1.87,4.17,4.16
		v9.27C18.3,16.43,16.43,18.3,14.13,18.3z M4.87,1.45c-1.88,0-3.41,1.53-3.41,3.41v9.27c0,1.88,1.53,3.41,3.41,3.41h9.26
		c1.88,0,3.42-1.53,3.42-3.41V4.87c0-1.88-1.53-3.41-3.42-3.41H4.87z"/>
</g>
</svg>
