<?xml version="1.0" encoding="utf-8"?>
<!-- Generator: Adobe Illustrator 26.0.2, SVG Export Plug-In . SVG Version: 6.00 Build 0)  -->
<svg version="1.1" id="Layer_1" xmlns="http://www.w3.org/2000/svg" xmlns:xlink="http://www.w3.org/1999/xlink" x="0px" y="0px"
	 viewBox="0 0 24 24" style="enable-background:new 0 0 24 24;" xml:space="preserve">
<style type="text/css">
	.st0{fill:#00A09B;}
	.st1{fill:url(#SVGID_1_);}
</style>
<g>
	<rect x="0" class="st0" width="24" height="24"/>
	<g>
		<g>
			<g>
				<linearGradient id="SVGID_1_" gradientUnits="userSpaceOnUse" x1="11.9404" y1="22.9652" x2="11.9404" y2="2.1886">
					<stop  offset="0" style="stop-color:#FFBE32"/>
					<stop  offset="0.9992" style="stop-color:#FFFFFF"/>
				</linearGradient>
				<path class="st1" d="M1.11,20.01l8.8-16.88c0.82-1.56,3.24-1.56,4.06,0l8.8,16.88c0.71,1.37-0.37,2.95-2.03,2.95H3.14
					C1.48,22.97,0.4,21.38,1.11,20.01z"/>
				<path d="M20.5,23.68H3.38c-1.15,0-2.21-0.59-2.77-1.55c-0.5-0.87-0.53-1.91-0.07-2.8l0,0L9.1,2.92
					c0.54-1.03,1.62-1.67,2.84-1.67c1.21,0,2.3,0.64,2.84,1.67l8.56,16.41c0.46,0.89,0.44,1.94-0.07,2.8
					C22.71,23.09,21.65,23.68,20.5,23.68z M1.56,20.86c-0.19,0.37-0.09,0.68,0.02,0.88c0.17,0.3,0.57,0.62,1.17,0.62h18.39
					c0.6,0,1-0.32,1.17-0.62c0.12-0.2,0.21-0.51,0.02-0.88L13.13,3.23c-0.25-0.48-0.78-0.65-1.19-0.65c-0.41,0-0.94,0.17-1.19,0.65
					L1.56,20.86z"/>
			</g>
		</g>
		<g>
			<rect x="10.29" y="8.31" width="3.35" height="8.58"/>
			<rect x="10.29" y="18.55" width="3.35" height="1.79"/>
		</g>
	</g>
</g>
</svg>
