<?xml version="1.0" encoding="utf-8"?>
<!-- Generator: Adobe Illustrator 26.0.2, SVG Export Plug-In . SVG Version: 6.00 Build 0)  -->
<svg version="1.1" id="Layer_1" xmlns="http://www.w3.org/2000/svg" xmlns:xlink="http://www.w3.org/1999/xlink" x="0px" y="0px"
	 viewBox="0 0 35 35" style="enable-background:new 0 0 35 35;" xml:space="preserve">
<style type="text/css">
	.st0{fill:#FFFFFF;}
</style>
<g>
	<path class="st0" d="M14.03,21.98c-0.12-0.1-1.11-0.84-3.83-1.02c-0.15-0.01-0.3-0.12-0.43-0.21c-0.17-0.11-0.35-0.23-0.47-0.38
		c-0.21-0.25-0.44-0.46-0.64-0.74c-1.33-1.85-2.63-2.22-2.82-2.29c-0.26-0.12-1.25,0.03-0.77,0.69c0.03,0,1.52,2.09,1.61,2.26
		c0.17,0.29,0.36,0.42,0.55,0.62c0.17,0.19,0.35,0.36,0.52,0.55c0,0-0.95-0.56-1.18-0.81c-0.1-0.11-0.15-0.27-0.23-0.4
		c-0.09-0.15-0.19-0.3-0.29-0.44c-0.13-0.18-0.25-0.36-0.39-0.54c-0.17-0.22-0.35-0.44-0.53-0.66c-0.11-0.14-0.23-0.27-0.33-0.41
		C4.33,17.48,4.84,17.06,5.33,17c-0.02-0.08-0.25-2.23-0.29-2.59c-0.11-1.03-0.22-1.8-0.82-2.01c-0.15-0.05-0.26-0.04-0.37,0.08
		c-0.13,0.14-0.22,0.89-0.25,1.37c0,0-0.26,2.55-0.2,3.74c0.03,0.64,2.02,5.03,2.59,5.71c0.57,0.68,5.02,3.25,5.02,3.25
		c0.15,0.12,0.97,0.76,0.97,1.59v1.81l4.8,0.01l0-1.66c0.01-0.31,0.06-0.61,0.1-0.92c0.1-0.35,0.02-1.01-0.03-1.26
		C16.31,23.62,14.25,22.15,14.03,21.98z"/>
	<path class="st0" d="M31.56,13.86c-0.04-0.48-0.12-1.23-0.25-1.37c-0.11-0.12-0.22-0.14-0.38-0.08c-0.59,0.21-0.7,0.98-0.82,2.01
		c-0.04,0.36-0.26,2.51-0.29,2.59c0.49,0.05,1,0.48,0.55,1.19c-0.09,0.14-0.22,0.28-0.33,0.41c-0.18,0.22-0.36,0.44-0.53,0.66
		c-0.13,0.18-0.26,0.36-0.39,0.54c-0.1,0.15-0.2,0.29-0.29,0.44c-0.08,0.13-0.13,0.29-0.23,0.4c-0.23,0.25-1.18,0.81-1.18,0.81
		c0.17-0.19,0.35-0.36,0.52-0.55c0.18-0.21,0.37-0.33,0.54-0.62c0.1-0.17,1.58-2.25,1.61-2.26c0.48-0.66-0.52-0.81-0.77-0.69
		c-0.19,0.07-1.49,0.44-2.82,2.29c-0.2,0.28-0.43,0.49-0.64,0.74c-0.13,0.15-0.3,0.27-0.47,0.38c-0.13,0.09-0.28,0.2-0.43,0.21
		c-2.73,0.18-3.71,0.92-3.83,1.02c-0.22,0.17-2.28,1.64-2.84,4.13c-0.05,0.26-0.13,0.92-0.03,1.26c0.04,0.31,0.09,0.61,0.1,0.92
		l0,1.66l4.8-0.01v-1.81c0-0.83,0.83-1.47,0.97-1.59c0,0,4.45-2.57,5.02-3.25c0.57-0.68,2.55-5.07,2.59-5.71
		C31.82,16.41,31.56,13.86,31.56,13.86z"/>
	<polygon class="st0" points="15.69,19.17 20.07,19.17 20.07,14.57 24.68,14.57 24.68,10.18 20.07,10.18 20.07,5.58 15.69,5.58 
		15.69,10.18 11.08,10.18 11.08,14.57 15.69,14.57 	"/>
</g>
</svg>
