<?xml version="1.0" encoding="utf-8"?>
<!-- Generator: Adobe Illustrator 26.0.3, SVG Export Plug-In . SVG Version: 6.00 Build 0)  -->
<svg version="1.1" id="Layer_1" xmlns="http://www.w3.org/2000/svg" xmlns:xlink="http://www.w3.org/1999/xlink" x="0px" y="0px"
	 viewBox="0 0 16 16" style="enable-background:new 0 0 16 16;" xml:space="preserve">
<style type="text/css">
	.st0{fill:url(#SVGID_1_);}
	.st1{fill:#E1E1E1;}
	.st2{fill:#AE9293;}
	.st3{fill:#D5B2B3;}
	.st4{fill:#E9E9E9;}
	.st5{fill:#ECECEC;}
	.st6{fill:#AFAFAF;}
	.st7{fill:#B8B8B8;}
	.st8{fill:#B1B1B1;}
	.st9{fill:#B3B3B3;}
	.st10{fill:#74787C;}
	.st11{fill:#BFBFBF;}
	.st12{fill:#C1C1C1;}
	.st13{fill:#7F6B6B;}
	.st14{fill:#816D6D;}
	.st15{fill:#8D8D8D;}
	.st16{fill:#909090;}
	.st17{fill:#9E8485;}
	.st18{fill:#A08686;}
	.st19{fill:#A28788;}
	.st20{fill:#A68B8C;}
	.st21{fill:#DDB9BA;}
</style>
<g>
	<linearGradient id="SVGID_1_" gradientUnits="userSpaceOnUse" x1="1.0009" y1="3.4749" x2="14.005" y2="3.4749">
		<stop  offset="0" style="stop-color:#D97477"/>
		<stop  offset="1" style="stop-color:#A42C2E"/>
	</linearGradient>
	<rect x="1" y="1.98" class="st0" width="13" height="3"/>
	<rect x="1" y="4.97" class="st1" width="13" height="3"/>
	<rect x="1" y="7.97" class="st1" width="13" height="3"/>
	<rect x="1" y="10.97" class="st1" width="13" height="3"/>
	<g>
		<rect x="3" y="6" class="st2" width="0.99" height="1.84"/>
		<rect x="3" y="8.1" class="st3" width="0.99" height="1.9"/>
		<rect x="3.99" y="8.1" class="st4" width="9.87" height="0.84"/>
		<rect x="3.99" y="8.93" class="st5" width="9.87" height="1.06"/>
		<rect x="3.99" y="8.1" class="st6" width="0.99" height="0.9"/>
		<polygon class="st7" points="12.01,11.11 12.01,11.99 10.99,11.99 10.99,11.11 10,11.11 10,11.99 9,11.99 9,11.11 8.01,11.11 
			8.01,11.99 7,11.99 7,11.11 6,11.11 6,11.99 4.99,11.99 4.99,11.11 3.99,11.11 3.99,11.99 3.99,12.01 3.99,13 13,13 13,12.01 
			13,11.99 13,11.11 		"/>
		<rect x="6" y="8.1" class="st6" width="0.99" height="0.9"/>
		<rect x="8.01" y="8.1" class="st6" width="0.99" height="0.9"/>
		<rect x="10" y="8.1" class="st6" width="0.99" height="0.9"/>
		<rect x="12.01" y="8.1" class="st6" width="0.99" height="0.9"/>
		<rect x="3.99" y="9" class="st8" width="0.99" height="1"/>
		<rect x="3.99" y="10" class="st9" width="9" height="0.84"/>
		<polygon class="st10" points="14,3.02 14,14 2,14 2,15.01 15,15.01 15,3.02 		"/>
		<rect x="6" y="9" class="st8" width="0.99" height="1"/>
		<rect x="8.01" y="9" class="st8" width="0.99" height="1"/>
		<rect x="10" y="9" class="st8" width="0.99" height="1"/>
		<rect x="12.01" y="9" class="st8" width="0.99" height="1"/>
		<rect x="4.97" y="6" class="st11" width="7.02" height="0.99"/>
		<rect x="4.97" y="6.85" class="st12" width="7.02" height="0.99"/>
		<rect x="2" y="5.1" class="st13" width="2" height="0.9"/>
		<rect x="2" y="6" class="st14" width="1" height="1.84"/>
		<polygon class="st15" points="4,5.1 4,6 4,7.84 5,7.84 5,6 13,6 13,5.1 		"/>
		<rect x="6" y="6" class="st16" width="1" height="1.84"/>
		<rect x="8" y="6" class="st16" width="1" height="1.84"/>
		<rect x="10" y="6" class="st16" width="1" height="1.84"/>
		<rect x="12" y="6" class="st16" width="1" height="1.84"/>
	</g>
	<rect x="2" y="8.1" class="st17" width="1" height="0.9"/>
	<rect x="2" y="9" class="st18" width="1" height="1"/>
	<rect x="2" y="10" class="st19" width="2" height="0.84"/>
	<rect x="2" y="12.01" class="st20" width="2" height="1"/>
	<rect x="2" y="11.11" class="st20" width="1" height="1.9"/>
	<rect x="2.99" y="11.11" class="st21" width="1" height="0.9"/>
</g>
</svg>
