<?xml version="1.0" encoding="utf-8"?>
<!-- Generator: Adobe Illustrator 26.0.2, SVG Export Plug-In . SVG Version: 6.00 Build 0)  -->
<svg version="1.1" id="Layer_1" xmlns="http://www.w3.org/2000/svg" xmlns:xlink="http://www.w3.org/1999/xlink" x="0px" y="0px"
	 viewBox="0 0 57 18" style="enable-background:new 0 0 57 18;" xml:space="preserve">
<style type="text/css">
	.st0{fill:#E6E6E6;}
	.st1{fill:#0E555A;}
</style>
<g>
	<rect class="st0" width="57" height="18"/>
	<g>
		<path class="st1" d="M8.97,11.81c-0.08-0.06-0.74-0.56-2.55-0.68c-0.1-0.01-0.2-0.08-0.29-0.14c-0.11-0.08-0.23-0.15-0.32-0.26
			c-0.14-0.17-0.3-0.31-0.43-0.49C4.51,9.02,3.64,8.77,3.51,8.72C3.34,8.64,2.68,8.74,3,9.18c0.02,0,1.01,1.39,1.07,1.5
			c0.11,0.2,0.24,0.28,0.36,0.41c0.11,0.13,0.23,0.24,0.34,0.36c0,0-0.63-0.37-0.78-0.54c-0.07-0.07-0.1-0.18-0.15-0.27
			c-0.06-0.1-0.13-0.2-0.2-0.3C3.56,10.24,3.48,10.12,3.39,10C3.27,9.86,3.15,9.71,3.04,9.56C2.96,9.47,2.88,9.38,2.82,9.29
			C2.52,8.82,2.86,8.53,3.19,8.5C3.17,8.44,3.02,7.01,3,6.78c-0.07-0.69-0.15-1.2-0.54-1.34C2.35,5.4,2.28,5.41,2.2,5.49
			C2.11,5.59,2.06,6.09,2.03,6.4c0,0-0.17,1.7-0.13,2.49c0.02,0.42,1.34,3.35,1.72,3.8c0.38,0.45,3.34,2.16,3.34,2.16
			c0.1,0.08,0.65,0.51,0.65,1.06v1.2l3.2,0l0-1.1c0.01-0.2,0.04-0.41,0.07-0.61c0.07-0.23,0.01-0.67-0.02-0.84
			C10.49,12.91,9.12,11.93,8.97,11.81z"/>
		<path class="st1" d="M20.65,6.4c-0.03-0.32-0.08-0.82-0.17-0.91c-0.08-0.08-0.15-0.09-0.25-0.06c-0.39,0.14-0.47,0.65-0.54,1.34
			c-0.03,0.24-0.18,1.67-0.19,1.72c0.32,0.04,0.67,0.32,0.37,0.79c-0.06,0.1-0.14,0.18-0.22,0.27c-0.12,0.15-0.24,0.29-0.35,0.44
			c-0.09,0.12-0.17,0.24-0.26,0.36c-0.07,0.1-0.13,0.19-0.2,0.3c-0.05,0.09-0.09,0.19-0.15,0.27c-0.15,0.16-0.78,0.54-0.78,0.54
			c0.11-0.12,0.24-0.24,0.35-0.36c0.12-0.14,0.25-0.22,0.36-0.41c0.06-0.11,1.05-1.5,1.07-1.5c0.32-0.44-0.34-0.54-0.51-0.46
			c-0.13,0.05-0.99,0.3-1.88,1.53c-0.13,0.18-0.29,0.32-0.43,0.49c-0.09,0.1-0.2,0.18-0.32,0.26c-0.09,0.06-0.19,0.13-0.29,0.14
			c-1.81,0.12-2.47,0.62-2.55,0.68c-0.15,0.12-1.52,1.09-1.89,2.75c-0.03,0.17-0.09,0.61-0.02,0.84c0.02,0.2,0.06,0.41,0.07,0.61
			l0,1.1l3.2,0v-1.2c0-0.55,0.55-0.98,0.65-1.06c0,0,2.96-1.71,3.34-2.16c0.38-0.45,1.7-3.37,1.72-3.8
			C20.82,8.1,20.65,6.4,20.65,6.4z"/>
	</g>
	<polygon class="st1" points="13,3.96 13,0.9 10.08,0.9 10.08,3.96 7.02,3.96 7.02,6.88 10.08,6.88 10.08,9.94 13,9.94 13,6.88 
		16.06,6.88 16.06,3.96 	"/>
	<g>
		<path class="st1" d="M25.43,10.91l-0.72,2.19h-0.93l2.37-6.96h1.08l2.38,6.96h-0.96l-0.74-2.19H25.43z M27.71,10.2l-0.68-2
			c-0.15-0.45-0.26-0.87-0.36-1.27h-0.02c-0.1,0.41-0.22,0.84-0.35,1.26l-0.68,2.01H27.71z"/>
		<path class="st1" d="M30.59,12c0.4,0.25,0.99,0.45,1.61,0.45c0.92,0,1.46-0.49,1.46-1.19c0-0.65-0.37-1.02-1.31-1.38
			c-1.14-0.4-1.84-0.99-1.84-1.97c0-1.08,0.9-1.89,2.25-1.89c0.71,0,1.23,0.17,1.54,0.34L34.05,7.1c-0.23-0.12-0.69-0.33-1.32-0.33
			c-0.95,0-1.31,0.57-1.31,1.04c0,0.65,0.42,0.97,1.38,1.34c1.18,0.45,1.78,1.02,1.78,2.05c0,1.07-0.79,2-2.44,2
			c-0.67,0-1.41-0.2-1.78-0.44L30.59,12z"/>
		<path class="st1" d="M36.18,12c0.4,0.25,0.99,0.45,1.61,0.45c0.92,0,1.46-0.49,1.46-1.19c0-0.65-0.37-1.02-1.31-1.38
			c-1.14-0.4-1.84-0.99-1.84-1.97c0-1.08,0.9-1.89,2.25-1.89c0.71,0,1.23,0.17,1.54,0.34L39.65,7.1c-0.23-0.12-0.69-0.33-1.32-0.33
			c-0.95,0-1.31,0.57-1.31,1.04c0,0.65,0.42,0.97,1.38,1.34c1.18,0.45,1.78,1.02,1.78,2.05c0,1.07-0.79,2-2.44,2
			c-0.67,0-1.41-0.2-1.78-0.44L36.18,12z"/>
		<path class="st1" d="M45.37,12c0.4,0.25,0.99,0.45,1.61,0.45c0.92,0,1.46-0.49,1.46-1.19c0-0.65-0.37-1.02-1.31-1.38
			c-1.14-0.4-1.84-0.99-1.84-1.97c0-1.08,0.9-1.89,2.25-1.89c0.71,0,1.23,0.17,1.54,0.34L48.83,7.1c-0.23-0.12-0.69-0.33-1.32-0.33
			c-0.95,0-1.31,0.57-1.31,1.04c0,0.65,0.42,0.97,1.38,1.34c1.18,0.45,1.78,1.02,1.78,2.05c0,1.07-0.79,2-2.44,2
			c-0.67,0-1.41-0.2-1.78-0.44L45.37,12z"/>
		<path class="st1" d="M52.35,6.9h-2.12V6.14h5.16V6.9h-2.13v6.2h-0.91V6.9z"/>
	</g>
	<polygon class="st1" points="44.31,7.11 44.31,6.14 41.3,6.14 41.3,7.11 42.3,7.11 42.3,12.13 41.3,12.13 41.3,13.1 44.31,13.1 
		44.31,12.13 43.2,12.13 43.2,7.11 	"/>
</g>
</svg>
