<?xml version="1.0" encoding="utf-8"?>
<!-- Generator: Adobe Illustrator 26.0.2, SVG Export Plug-In . SVG Version: 6.00 Build 0)  -->
<svg version="1.1" id="Layer_1" xmlns="http://www.w3.org/2000/svg" xmlns:xlink="http://www.w3.org/1999/xlink" x="0px" y="0px"
	 viewBox="0 0 57 18" style="enable-background:new 0 0 57 18;" xml:space="preserve">
<style type="text/css">
	.st0{fill:#E6E6E6;}
	.st1{fill:#1B6D72;}
	.st2{fill:url(#SVGID_1_);}
</style>
<g>
	<rect class="st0" width="57" height="18"/>
	<g>
		<g>
			<path class="st1" d="M29.53,10.98c0,0.61-0.22,1.09-0.66,1.45c-0.44,0.35-1.06,0.53-1.85,0.53c-0.83,0-1.48-0.11-1.93-0.33v-0.85
				c0.3,0.13,0.62,0.23,0.98,0.3c0.35,0.07,0.69,0.11,0.99,0.11c0.53,0,0.92-0.1,1.19-0.3c0.27-0.2,0.4-0.48,0.4-0.83
				c0-0.23-0.05-0.43-0.14-0.58c-0.1-0.15-0.26-0.29-0.48-0.42c-0.23-0.13-0.57-0.28-1.03-0.45c-0.65-0.24-1.12-0.52-1.4-0.84
				c-0.28-0.32-0.42-0.74-0.42-1.25c0-0.55,0.21-0.98,0.62-1.31c0.41-0.32,0.95-0.49,1.63-0.49c0.7,0,1.35,0.13,1.94,0.39
				l-0.27,0.76c-0.6-0.25-1.17-0.38-1.68-0.38c-0.42,0-0.74,0.09-0.98,0.27s-0.35,0.43-0.35,0.76c0,0.23,0.05,0.42,0.14,0.57
				c0.09,0.15,0.24,0.29,0.44,0.42c0.2,0.12,0.52,0.27,0.96,0.43c0.52,0.19,0.91,0.38,1.17,0.56c0.26,0.18,0.44,0.39,0.57,0.62
				C29.47,10.37,29.53,10.65,29.53,10.98z"/>
			<path class="st1" d="M35.8,12.86h-3.93V5.82h3.93V6.6h-3.04V8.8h2.87v0.77h-2.87v2.51h3.04V12.86z"/>
			<path class="st1" d="M43.98,12.86l-0.85-2.18h-2.79l-0.84,2.18h-0.89l2.75-7.06h0.8l2.74,7.06H43.98z M42.87,9.89l-0.79-2.13
				l-0.34-1.05c-0.1,0.38-0.2,0.74-0.3,1.05l-0.8,2.13H42.87z"/>
			<path class="st1" d="M49,12.86h-0.89V6.6h-2.2V5.82h5.27V6.6H49V12.86z"/>
		</g>
		<linearGradient id="SVGID_1_" gradientUnits="userSpaceOnUse" x1="2.2411" y1="9.413" x2="20.2231" y2="9.413">
			<stop  offset="0" style="stop-color:#17676C"/>
			<stop  offset="1" style="stop-color:#034247"/>
		</linearGradient>
		<polygon class="st2" points="15.27,1.87 13.32,12 2.24,12 2.24,16.95 12.37,16.95 17.32,16.95 20.22,1.87 		"/>
	</g>
</g>
</svg>
