<?xml version="1.0" encoding="utf-8"?>
<!-- Generator: Adobe Illustrator 26.0.2, SVG Export Plug-In . SVG Version: 6.00 Build 0)  -->
<svg version="1.1" id="Layer_1" xmlns="http://www.w3.org/2000/svg" xmlns:xlink="http://www.w3.org/1999/xlink" x="0px" y="0px"
	 viewBox="0 0 35 35" style="enable-background:new 0 0 35 35;" xml:space="preserve">
<style type="text/css">
	.st0{fill:#00A09B;}
	.st1{fill:#FFFFFF;}
</style>
<g>
	<rect class="st0" width="35" height="35"/>
	<g>
		<g>
			<path class="st1" d="M15.01,2.65L15,10c-0.08,0.05-0.87-0.01-1.01,0l0-7.37l-1.01,0L12.97,10c-0.12,0.01-0.83,0.01-0.95,0l0-7.36
				l-1.02,0L11.01,10h-1l0-7.36l-1.03,0L8.97,10c0,0.71,0.25,3.04,2,4.16l0.01,18.92l2.89-0.01l0.32-18.9
				c1.8-0.91,1.8-3.45,1.8-4.16V2.65L15.01,2.65z"/>
		</g>
	</g>
	<path class="st1" d="M25.98,32.98V2c0,0-4.23-0.34-4.93,2.8c0,0,0,11.25,0,13.05s1.97,3.17,1.97,3.17v11.95H25.98z"/>
</g>
</svg>
