<?xml version="1.0" encoding="utf-8"?>
<!-- Generator: Adobe Illustrator 26.0.2, SVG Export Plug-In . SVG Version: 6.00 Build 0)  -->
<svg version="1.1" id="Layer_1" xmlns="http://www.w3.org/2000/svg" xmlns:xlink="http://www.w3.org/1999/xlink" x="0px" y="0px"
	 viewBox="0 0 240 275" style="enable-background:new 0 0 240 275;" xml:space="preserve">
<style type="text/css">
	.st0{fill:#C3C3C3;}
</style>
<g>
	<path class="st0" d="M89.11,255.31c-38.27,0-69.3-31.37-69.3-70.06c0-25.12,13.09-47.15,32.74-59.51l-2.41-19.76
		c-28.79,14.5-48.58,44.55-48.58,79.27c0,48.88,39.19,88.51,87.54,88.51c35.99,0,66.91-21.96,80.36-53.36l-11.64-26.2
		C153.47,228.66,124.38,255.31,89.11,255.31z"/>
	<path class="st0" d="M232.09,212l-30.88,12.98l-36.84-87.48h-81.4l-1.75-17.43h56.84v-17.54H79.81l-4.9-57.12
		c0.08,0,0.15,0.01,0.23,0.01c11.99,0,21.71-9.72,21.71-21.71S87.13,2,75.14,2s-21.71,9.72-21.71,21.71c0,3.45,0.81,6.71,2.24,9.61
		l10.8,122.9h87.37l38.6,89.47l45.96-19.3L232.09,212z"/>
</g>
</svg>
