<?xml version="1.0" encoding="utf-8"?>
<!-- Generator: Adobe Illustrator 26.0.2, SVG Export Plug-In . SVG Version: 6.00 Build 0)  -->
<svg version="1.1" id="Layer_1" xmlns="http://www.w3.org/2000/svg" xmlns:xlink="http://www.w3.org/1999/xlink" x="0px" y="0px"
	 viewBox="0 0 20 21" style="enable-background:new 0 0 20 21;" xml:space="preserve">
<style type="text/css">
	.st0{fill:#1A8C2F;}
	.st1{fill:#BE270F;}
	.st2{fill:#F7580F;}
	.st3{fill:url(#SVGID_1_);}
	.st4{fill:#727224;}
</style>
<g>
	<path class="st0" d="M17.02,4.19c0,0-6.47,8.75-16.3,1.98C0.71,6.17,7.89-3.11,17.02,4.19z"/>
	<path class="st1" d="M1.85,18.7c0,0-1.98-13.36,14.63-14.23C16.48,4.46,17.48,20.95,1.85,18.7z"/>
	<path class="st2" d="M1.85,18.7c0,0,1.79-11.96,14.63-14.23C16.48,4.46,17.25,18.34,1.85,18.7z"/>
	<linearGradient id="SVGID_1_" gradientUnits="userSpaceOnUse" x1="18.2617" y1="6.3809" x2="3.6693" y2="20.8839">
		<stop  offset="0" style="stop-color:#610A09"/>
		<stop  offset="0.3256" style="stop-color:#610A09"/>
		<stop  offset="0.4776" style="stop-color:#BA110A"/>
		<stop  offset="1" style="stop-color:#E35110"/>
	</linearGradient>
	<path class="st3" d="M16.58,4.57c0,0-10.56,12.72-14.63,14.23C1.95,18.8,16.06,21.64,16.58,4.57z"/>
	<path class="st4" d="M17.04,3.05h0.97c0,0-0.08,1.52-1.67,1.77L16.06,4.5C16.06,4.5,17.04,3.93,17.04,3.05z"/>
</g>
</svg>
