<?xml version="1.0" encoding="utf-8"?>
<!-- Generator: Adobe Illustrator 26.0.2, SVG Export Plug-In . SVG Version: 6.00 Build 0)  -->
<svg version="1.1" id="Layer_1" xmlns="http://www.w3.org/2000/svg" xmlns:xlink="http://www.w3.org/1999/xlink" x="0px" y="0px"
	 viewBox="0 0 14 13" style="enable-background:new 0 0 14 13;" xml:space="preserve">
<style type="text/css">
	.st0{fill:url(#SVGID_1_);stroke:#000000;stroke-width:0.5;stroke-miterlimit:10;}
	.st1{fill:#4E4213;}
</style>
<g>
	<linearGradient id="SVGID_1_" gradientUnits="userSpaceOnUse" x1="1.1389" y1="6.1166" x2="12.8445" y2="7.4395">
		<stop  offset="0" style="stop-color:#FFE44F"/>
		<stop  offset="1" style="stop-color:#EDB627"/>
	</linearGradient>
	<path class="st0" d="M7,1.62c-3.55,0-6.43,2.09-6.43,4.66c0,1.02,0.49,2.3,1.61,3.26c-0.24,0.86-0.19,0.5-0.62,1.83
		c0,0,0.52-0.27,2.44-0.81c0.71,0.24,1.53,0.39,2.49,0.39c3.55,0,6.94-2.09,6.94-4.66C13.43,3.71,10.55,1.62,7,1.62z"/>
	<rect x="2.74" y="5.42" class="st1" width="2.01" height="2.01"/>
	<rect x="5.73" y="5.42" class="st1" width="2.01" height="2.01"/>
	<rect x="8.72" y="5.42" class="st1" width="2.01" height="2.01"/>
</g>
</svg>
