<svg id="Layer_1" data-name="Layer 1" xmlns="http://www.w3.org/2000/svg" viewBox="0 0 39.03 14"><defs><style>.cls-1{fill:#00225c;}.cls-2{fill:#fff;}</style></defs><rect class="cls-1" width="39.03" height="14" rx="1.8"/><path class="cls-2" d="M17.65,8.91a2.22,2.22,0,0,1-.84,1.83,3.64,3.64,0,0,1-2.32.66,5.48,5.48,0,0,1-2.42-.51V9.2a8.79,8.79,0,0,0,1.46.54,4.17,4.17,0,0,0,1.1.16,1.51,1.51,0,0,0,.92-.23A.78.78,0,0,0,15.87,9a.77.77,0,0,0-.14-.44,1.58,1.58,0,0,0-.42-.38,9.5,9.5,0,0,0-1.11-.58A5.24,5.24,0,0,1,13,6.88a2.65,2.65,0,0,1-.63-.79A2.21,2.21,0,0,1,12.17,5a2.19,2.19,0,0,1,.77-1.78,3.15,3.15,0,0,1,2.13-.65,4.81,4.81,0,0,1,1.27.16,8.37,8.37,0,0,1,1.27.44L17,4.61a8.56,8.56,0,0,0-1.13-.39A3.85,3.85,0,0,0,15,4.11a1.15,1.15,0,0,0-.79.24.78.78,0,0,0-.28.63.76.76,0,0,0,.11.41,1.21,1.21,0,0,0,.36.35,10.66,10.66,0,0,0,1.15.6A4.51,4.51,0,0,1,17.2,7.49,2.25,2.25,0,0,1,17.65,8.91Z" transform="translate(-2.48)"/><path class="cls-2" d="M21,11.29H19.2V2.72h4.91V4.21H21V6.42H23.9V7.9H21Z" transform="translate(-2.48)"/><path class="cls-2" d="M29.43,4.11a1.85,1.85,0,0,0-1.59.77A3.55,3.55,0,0,0,27.28,7c0,1.91.71,2.86,2.15,2.86a6.76,6.76,0,0,0,2.18-.45V11a5.93,5.93,0,0,1-2.35.44,3.57,3.57,0,0,1-2.86-1.13,4.81,4.81,0,0,1-1-3.26,5.37,5.37,0,0,1,.48-2.34,3.55,3.55,0,0,1,1.4-1.54,4.22,4.22,0,0,1,2.14-.53,5.77,5.77,0,0,1,2.5.6l-.58,1.48a7.34,7.34,0,0,0-1-.4A2.93,2.93,0,0,0,29.43,4.11Z" transform="translate(-2.48)"/></svg>