<svg id="Layer_1" data-name="Layer 1" xmlns="http://www.w3.org/2000/svg" viewBox="0 0 39.03 13.01"><defs><style>.cls-1{fill:#231816;}.cls-2{fill:#e8d589;}</style></defs><rect class="cls-1" width="39.03" height="13.01" rx="1.73"/><path class="cls-2" d="M16.37,8.91a2.22,2.22,0,0,1-.84,1.83,3.64,3.64,0,0,1-2.32.66,5.53,5.53,0,0,1-2.43-.51V9.2a10.5,10.5,0,0,0,1.47.55,4.59,4.59,0,0,0,1.1.15,1.61,1.61,0,0,0,.92-.22A.8.8,0,0,0,14.59,9a.72.72,0,0,0-.15-.45A1.52,1.52,0,0,0,14,8.17a9.5,9.5,0,0,0-1.11-.58,5.59,5.59,0,0,1-1.18-.71,2.61,2.61,0,0,1-.62-.79A2.21,2.21,0,0,1,10.88,5a2.22,2.22,0,0,1,.77-1.78,3.19,3.19,0,0,1,2.13-.65,5.34,5.34,0,0,1,1.28.15,10.3,10.3,0,0,1,1.27.45l-.59,1.41a8.1,8.1,0,0,0-1.13-.39,3.94,3.94,0,0,0-.89-.11,1.18,1.18,0,0,0-.79.24.8.8,0,0,0-.27.63.68.68,0,0,0,.11.41,1.16,1.16,0,0,0,.35.35,12.47,12.47,0,0,0,1.16.6,4.61,4.61,0,0,1,1.64,1.15A2.25,2.25,0,0,1,16.37,8.91Z" transform="translate(-2.48 -0.5)"/><path class="cls-2" d="M24,11.29l-.62-2H20.24l-.62,2H17.67l3-8.61h2.22l3,8.61ZM22.93,7.72c-.57-1.84-.89-2.89-1-3.13s-.12-.43-.15-.58c-.13.5-.5,1.74-1.11,3.71Z" transform="translate(-2.48 -0.5)"/><path class="cls-2" d="M29.82,6.48h3.4v4.44a10.36,10.36,0,0,1-1.56.38,10.36,10.36,0,0,1-1.49.1,3.77,3.77,0,0,1-3-1.14,4.75,4.75,0,0,1-1-3.27,4.31,4.31,0,0,1,1.18-3.23A4.48,4.48,0,0,1,30.66,2.6a6.43,6.43,0,0,1,2.55.52L32.6,4.58a4.19,4.19,0,0,0-2-.47,2.43,2.43,0,0,0-1.89.79A3.09,3.09,0,0,0,28.06,7a3.42,3.42,0,0,0,.57,2.13,2,2,0,0,0,1.66.73,5.69,5.69,0,0,0,1.15-.12V8H29.82Z" transform="translate(-2.48 -0.5)"/></svg>