<?xml version="1.0" encoding="utf-8"?>
<!-- Generator: Adobe Illustrator 26.0.2, SVG Export Plug-In . SVG Version: 6.00 Build 0)  -->
<svg version="1.1" id="Layer_1" xmlns="http://www.w3.org/2000/svg" xmlns:xlink="http://www.w3.org/1999/xlink" x="0px" y="0px"
	 viewBox="0 0 57 18" style="enable-background:new 0 0 57 18;" xml:space="preserve">
<style type="text/css">
	.st0{fill:#1B6D72;}
	.st1{fill:url(#SVGID_1_);}
</style>
<g>
	<g>
		<path class="st0" d="M29.3,11.02c0,0.61-0.22,1.09-0.66,1.45C28.19,12.82,27.57,13,26.79,13c-0.83,0-1.48-0.11-1.93-0.33v-0.85
			c0.3,0.13,0.62,0.23,0.98,0.3c0.35,0.07,0.69,0.11,0.99,0.11c0.53,0,0.92-0.1,1.19-0.3c0.27-0.2,0.4-0.48,0.4-0.83
			c0-0.23-0.05-0.43-0.14-0.58c-0.1-0.15-0.26-0.29-0.48-0.42c-0.23-0.13-0.57-0.28-1.03-0.45c-0.65-0.24-1.12-0.52-1.4-0.84
			c-0.28-0.32-0.42-0.74-0.42-1.25c0-0.55,0.21-0.98,0.62-1.31c0.41-0.32,0.95-0.49,1.63-0.49c0.7,0,1.35,0.13,1.94,0.39l-0.27,0.76
			c-0.6-0.25-1.17-0.38-1.68-0.38c-0.42,0-0.74,0.09-0.98,0.27s-0.35,0.43-0.35,0.76c0,0.23,0.05,0.42,0.14,0.57
			s0.24,0.29,0.44,0.42c0.2,0.12,0.52,0.27,0.96,0.43c0.52,0.19,0.91,0.38,1.17,0.56c0.26,0.18,0.44,0.39,0.57,0.62
			C29.24,10.41,29.3,10.69,29.3,11.02z"/>
		<path class="st0" d="M35.57,12.9h-3.93V5.87h3.93v0.78h-3.04v2.19h2.87v0.77h-2.87v2.51h3.04V12.9z"/>
		<path class="st0" d="M43.75,12.9l-0.85-2.18h-2.79l-0.84,2.18h-0.89l2.75-7.06h0.8l2.74,7.06H43.75z M42.64,9.94l-0.79-2.13
			l-0.34-1.05c-0.1,0.38-0.2,0.74-0.3,1.05l-0.8,2.13H42.64z"/>
		<path class="st0" d="M48.77,12.9h-0.89V6.65h-2.2V5.87h5.27v0.78h-2.18V12.9z"/>
	</g>
	<linearGradient id="SVGID_1_" gradientUnits="userSpaceOnUse" x1="2.0051" y1="9.4568" x2="19.987" y2="9.4568">
		<stop  offset="0" style="stop-color:#17676C"/>
		<stop  offset="1" style="stop-color:#034247"/>
	</linearGradient>
	<polygon class="st1" points="15.03,1.92 13.09,12.04 2.01,12.04 2.01,17 12.13,17 17.09,17 19.99,1.92 	"/>
</g>
</svg>
