<?xml version="1.0" encoding="utf-8"?>
<!-- Generator: Adobe Illustrator 26.0.2, SVG Export Plug-In . SVG Version: 6.00 Build 0)  -->
<svg version="1.1" id="Layer_1" xmlns="http://www.w3.org/2000/svg" xmlns:xlink="http://www.w3.org/1999/xlink" x="0px" y="0px"
	 viewBox="0 0 38 22" style="enable-background:new 0 0 38 22;" xml:space="preserve">
<style type="text/css">
	.st0{fill:#CFDFFF;stroke:#0042FF;stroke-miterlimit:10;}
	.st1{fill:#0042FF;}
</style>
<g>
	<path class="st0" d="M29.54,19.25H8.46c-2.05,0-3.71-1.66-3.71-3.71V6.46c0-2.05,1.66-3.71,3.71-3.71h21.09
		c2.05,0,3.71,1.66,3.71,3.71v9.09C33.25,17.59,31.59,19.25,29.54,19.25z"/>
	<g>
		<path class="st1" d="M13.4,14.42l-0.47-1.53h-2.35l-0.47,1.53H8.65l2.27-6.46h1.67l2.28,6.46H13.4z M12.6,11.75
			c-0.43-1.39-0.67-2.17-0.73-2.35c-0.05-0.18-0.09-0.33-0.12-0.43c-0.1,0.38-0.37,1.3-0.83,2.79H12.6z"/>
		<path class="st1" d="M18.4,14.42l-1.55-5.05h-0.04c0.06,1.03,0.08,1.71,0.08,2.06v2.99h-1.22V7.99h1.86l1.52,4.92h0.03l1.62-4.92
			h1.86v6.44h-1.27v-3.05c0-0.14,0-0.31,0.01-0.5c0-0.19,0.02-0.69,0.06-1.5h-0.04l-1.66,5.04H18.4z"/>
		<path class="st1" d="M26.91,9.03c-0.51,0-0.91,0.19-1.19,0.58c-0.28,0.39-0.42,0.92-0.42,1.61c0,1.44,0.54,2.15,1.62,2.15
			c0.45,0,1-0.11,1.64-0.34v1.14c-0.53,0.22-1.12,0.33-1.77,0.33c-0.94,0-1.65-0.28-2.15-0.85c-0.5-0.57-0.74-1.38-0.74-2.45
			c0-0.67,0.12-1.25,0.37-1.76c0.24-0.5,0.59-0.89,1.05-1.16c0.46-0.27,0.99-0.4,1.6-0.4c0.62,0,1.25,0.15,1.88,0.45l-0.44,1.11
			c-0.24-0.11-0.48-0.21-0.73-0.3C27.38,9.07,27.14,9.03,26.91,9.03z"/>
	</g>
</g>
</svg>
