<?xml version="1.0" encoding="utf-8"?>
<!-- Generator: Adobe Illustrator 26.0.2, SVG Export Plug-In . SVG Version: 6.00 Build 0)  -->
<svg version="1.1" id="Layer_1" xmlns="http://www.w3.org/2000/svg" xmlns:xlink="http://www.w3.org/1999/xlink" x="0px" y="0px"
	 viewBox="0 0 57 18" style="enable-background:new 0 0 57 18;" xml:space="preserve">
<style type="text/css">
	.st0{fill:#06474C;}
</style>
<g>
	<path class="st0" d="M29.15,9.64h-0.04l-1.74-3.62H26V13h0.98c0,0-0.03-5.53-0.08-6.07h0.04l1.77,4.05h0.77l1.59-4.04
		C31.02,7.72,31,13,31,13h1.2V6.02h-1.37L29.15,9.64z"/>
	<polygon class="st0" points="34.9,13 39.04,13 39.04,12.04 35.98,12.04 35.98,10 38.85,10 38.85,9 35.98,9 35.98,6.95 39.04,6.95 
		39.04,6.06 34.9,6.06 	"/>
	<path class="st0" d="M43.73,5.99L40.83,13h0.94l0.88-1.86h2.94L46.49,13h0.97l-2.89-7.01H43.73z M42.97,10.31l0.84-2.25
		c0.11-0.33,0.22-0.7,0.32-1.11l0.36,1.11l0.83,2.25H42.97z"/>
	<polygon class="st0" points="49.96,12.01 49.96,6.02 49.03,6.02 49.03,13 53.2,13 53.2,12.01 	"/>
	<path class="st0" d="M9.08,6.02l-1.01,0v-5h-1v5l-0.98,0v-5H5.04c0,0,0,4.56,0,5.48c0,2.2,0.36,2.53,1.34,2.53H7.1l-0.05,8.01h1.02
		l0.05-8.01h0.6c1.02,0,1.34-0.12,1.34-2.53c0-1.36,0-5.48,0-5.48H9.08V6.02z"/>
	<path class="st0" d="M14.98,4.28c-0.08,1.09,0,5.71-0.01,5.73H16v7.04h2.04v-6.08v-0.14V1h-1.98C16.06,1,14.94,2.06,14.98,4.28z"/>
</g>
</svg>
