<?xml version="1.0" encoding="utf-8"?>
<!-- Generator: Adobe Illustrator 26.0.2, SVG Export Plug-In . SVG Version: 6.00 Build 0)  -->
<svg version="1.1" id="Layer_1" xmlns="http://www.w3.org/2000/svg" xmlns:xlink="http://www.w3.org/1999/xlink" x="0px" y="0px"
	 viewBox="0 0 57 18" style="enable-background:new 0 0 57 18;" xml:space="preserve">
<style type="text/css">
	.st0{fill:#E6E6E6;}
	.st1{fill:url(#SVGID_1_);}
	.st2{fill:url(#SVGID_00000005988701637315879090000016863003414478633619_);}
	.st3{fill:#1B6D72;}
</style>
<g>
	<rect y="0.1" class="st0" width="57" height="17.9"/>
	<g>
		<g>
			<linearGradient id="SVGID_1_" gradientUnits="userSpaceOnUse" x1="12.1231" y1="3.3851" x2="16.6143" y2="3.3851">
				<stop  offset="0" style="stop-color:#13605B"/>
				<stop  offset="1" style="stop-color:#083A3C"/>
			</linearGradient>
			<path class="st1" d="M14.37,5.63c1.24,0,2.25-1.01,2.25-2.25s-1.01-2.25-2.25-2.25s-2.25,1.01-2.25,2.25S13.13,5.63,14.37,5.63z"
				/>
			
				<linearGradient id="SVGID_00000080186410933802477100000000073553521446168198_" gradientUnits="userSpaceOnUse" x1="3.7518" y1="11.6035" x2="20.6132" y2="11.6035">
				<stop  offset="0" style="stop-color:#13565B"/>
				<stop  offset="1" style="stop-color:#083A3C"/>
			</linearGradient>
			<path style="fill:url(#SVGID_00000080186410933802477100000000073553521446168198_);" d="M19.84,10.07
				c-0.01-1.41-1.16-3.72-2.56-3.72h-0.96h-3.9h-0.62c-1.07,0-2,1.39-2.56,2.3l-1,1.35L7.08,8.84h0.68V7.87H3.75v0.97h1.62
				l2.71,3.53c0.5,0.47,0.74,0.29,1.1-0.29c1.79-2.9,1.86-3.18,1.92-3.26c0.06-0.07,0.38,0.05,0.38,0.14c0,0.96,0.63,4.93,0.62,6.74
				h-1.34v1.08h6.99v-1.08h-1.17c0-1.59,0.62-4.81,0.62-6.8c0-0.12,0.44-0.12,0.44,0l1.73,7.95l1.21-0.01
				C20.61,16.86,19.85,11.48,19.84,10.07z"/>
		</g>
		<g>
			<path class="st3" d="M30.91,10.8c0,0.64-0.23,1.15-0.7,1.52c-0.46,0.37-1.11,0.56-1.94,0.56c-0.76,0-1.44-0.14-2.02-0.43v-1.41
				c0.48,0.21,0.89,0.37,1.22,0.45s0.64,0.13,0.92,0.13c0.33,0,0.59-0.06,0.76-0.19s0.27-0.32,0.27-0.57c0-0.14-0.04-0.26-0.12-0.37
				s-0.19-0.21-0.34-0.32s-0.46-0.26-0.92-0.48c-0.44-0.21-0.76-0.4-0.98-0.59c-0.22-0.19-0.39-0.41-0.52-0.66
				c-0.13-0.25-0.2-0.54-0.2-0.88c0-0.63,0.21-1.13,0.64-1.49c0.43-0.36,1.02-0.54,1.77-0.54c0.37,0,0.72,0.04,1.06,0.13
				s0.69,0.21,1.06,0.37l-0.49,1.18c-0.38-0.16-0.7-0.27-0.94-0.33C29.2,6.84,28.95,6.8,28.71,6.8c-0.29,0-0.51,0.07-0.66,0.2
				c-0.15,0.13-0.23,0.31-0.23,0.52c0,0.13,0.03,0.25,0.09,0.35c0.06,0.1,0.16,0.2,0.3,0.29c0.13,0.09,0.45,0.26,0.96,0.5
				c0.67,0.32,1.12,0.64,1.37,0.96C30.79,9.94,30.91,10.34,30.91,10.8z"/>
			<path class="st3" d="M36.99,12.78h-4.11V5.65h4.11v1.24h-2.6v1.57h2.42v1.24h-2.42v1.84h2.6V12.78z"/>
			<path class="st3" d="M41.4,10.05v2.74h-1.51V5.65h2.08c0.97,0,1.69,0.18,2.15,0.53c0.46,0.35,0.7,0.89,0.7,1.61
				c0,0.42-0.12,0.79-0.35,1.12c-0.23,0.33-0.56,0.58-0.98,0.77l2.1,3.11h-1.68l-1.7-2.74H41.4z M41.4,8.82h0.49
				c0.48,0,0.83-0.08,1.06-0.24c0.23-0.16,0.34-0.41,0.34-0.75c0-0.34-0.12-0.58-0.35-0.72c-0.23-0.14-0.59-0.21-1.08-0.21H41.4
				V8.82z"/>
			<path class="st3" d="M51.72,5.65h1.53l-2.43,7.14h-1.65l-2.42-7.14h1.53l1.34,4.25c0.07,0.25,0.15,0.54,0.23,0.88
				c0.08,0.33,0.13,0.57,0.15,0.7c0.04-0.3,0.16-0.82,0.37-1.57L51.72,5.65z"/>
		</g>
	</g>
</g>
</svg>
