<?xml version="1.0" encoding="utf-8"?>
<!-- Generator: Adobe Illustrator 26.0.2, SVG Export Plug-In . SVG Version: 6.00 Build 0)  -->
<svg version="1.1" id="Layer_1" xmlns="http://www.w3.org/2000/svg" xmlns:xlink="http://www.w3.org/1999/xlink" x="0px" y="0px"
	 viewBox="0 0 15 15" style="enable-background:new 0 0 15 15;" xml:space="preserve">
<style type="text/css">
	.st0{fill:url(#SVGID_1_);}
	.st1{fill:#FFFFFF;}
</style>
<g>
	<g>
		<radialGradient id="SVGID_1_" cx="7.0065" cy="6.3739" r="7.0015" fx="4.7544" fy="5.3877" gradientUnits="userSpaceOnUse">
			<stop  offset="0" style="stop-color:#749AD9"/>
			<stop  offset="0.8396" style="stop-color:#165FB9"/>
		</radialGradient>
		<rect x="0.53" y="0.47" class="st0" width="13.94" height="14.06"/>
		<path class="st1" d="M14.97,15.03H0.03V-0.03h14.94V15.03z M1.03,14.03h12.94V0.97H1.03V14.03z"/>
	</g>
	<path d="M8.92,9.9H7.35V9c0-0.39,0.06-0.72,0.18-0.99s0.34-0.56,0.65-0.87l0.53-0.52c0.25-0.24,0.41-0.44,0.5-0.59
		s0.13-0.32,0.13-0.49c0-0.26-0.09-0.46-0.27-0.59s-0.45-0.2-0.81-0.2c-0.33,0-0.67,0.07-1.03,0.21S6.51,5.3,6.14,5.57V4
		c0.38-0.22,0.77-0.38,1.16-0.5s0.79-0.17,1.18-0.17c0.79,0,1.41,0.18,1.86,0.55s0.67,0.87,0.67,1.52c0,0.3-0.07,0.57-0.2,0.83
		s-0.38,0.56-0.75,0.92l-0.52,0.5C9.28,7.92,9.11,8.13,9.04,8.3S8.93,8.66,8.93,8.9c0,0.04,0,0.08,0,0.12s0,0.1-0.01,0.15V9.9z
		 M7.35,10.59h1.56v1.66H7.35V10.59z"/>
	<path class="st1" d="M7.98,9.14H6.42v-0.9c0-0.39,0.06-0.72,0.18-0.99s0.34-0.56,0.65-0.87l0.53-0.52c0.25-0.24,0.41-0.44,0.5-0.59
		s0.13-0.32,0.13-0.49c0-0.26-0.09-0.46-0.27-0.59c-0.18-0.13-0.45-0.2-0.81-0.2c-0.33,0-0.67,0.07-1.03,0.21s-0.72,0.34-1.1,0.62
		V3.24c0.38-0.22,0.77-0.38,1.16-0.5s0.79-0.17,1.18-0.17c0.79,0,1.41,0.18,1.86,0.55s0.67,0.87,0.67,1.52c0,0.3-0.07,0.57-0.2,0.83
		S9.5,6.04,9.13,6.4l-0.52,0.5C8.35,7.16,8.18,7.38,8.11,7.54S8,7.9,8,8.14c0,0.04,0,0.08,0,0.12s0,0.1-0.01,0.15V9.14z M6.42,9.83
		h1.56v1.66H6.42V9.83z"/>
</g>
</svg>
