<?xml version="1.0" encoding="utf-8"?>
<!-- Generator: Adobe Illustrator 26.0.2, SVG Export Plug-In . SVG Version: 6.00 Build 0)  -->
<svg version="1.1" id="Layer_1" xmlns="http://www.w3.org/2000/svg" xmlns:xlink="http://www.w3.org/1999/xlink" x="0px" y="0px"
	 viewBox="0 0 57 18" style="enable-background:new 0 0 57 18;" xml:space="preserve">
<style type="text/css">
	.st0{fill:#E6E6E6;}
	.st1{fill:#1B6D72;}
</style>
<g>
	<rect class="st0" width="57" height="18"/>
	<g>
		<path class="st1" d="M18.73,9.58c0,1.2-0.3,2.12-0.89,2.76c-0.59,0.64-1.45,0.96-2.55,0.96s-1.96-0.32-2.55-0.96
			c-0.59-0.64-0.89-1.57-0.89-2.77c0-1.2,0.3-2.12,0.89-2.76s1.45-0.95,2.56-0.95s1.96,0.32,2.55,0.96
			C18.43,7.46,18.73,8.38,18.73,9.58z M13.44,9.58c0,0.81,0.15,1.42,0.46,1.83c0.31,0.41,0.77,0.61,1.38,0.61
			c1.22,0,1.84-0.81,1.84-2.44c0-1.63-0.61-2.45-1.83-2.45c-0.61,0-1.07,0.21-1.38,0.62C13.6,8.17,13.44,8.78,13.44,9.58z"/>
		<path class="st1" d="M22.87,13.21h-1.53V7.25h-1.97V5.98h5.47v1.28h-1.97V13.21z"/>
		<path class="st1" d="M31.88,13.21h-1.53v-3.12h-2.87v3.12h-1.53V5.98h1.53v2.84h2.87V5.98h1.53V13.21z"/>
		<path class="st1" d="M37.87,13.21h-4.17V5.98h4.17v1.26h-2.63v1.59h2.45v1.26h-2.45v1.87h2.63V13.21z"/>
		<path class="st1" d="M40.92,10.44v2.78h-1.53V5.98h2.11c0.98,0,1.71,0.18,2.18,0.54c0.47,0.36,0.71,0.9,0.71,1.63
			c0,0.43-0.12,0.8-0.35,1.14s-0.57,0.59-1,0.78l2.13,3.15h-1.7l-1.73-2.78H40.92z M40.92,9.19h0.5c0.49,0,0.84-0.08,1.07-0.24
			c0.23-0.16,0.35-0.42,0.35-0.76c0-0.34-0.12-0.59-0.35-0.73c-0.24-0.15-0.6-0.22-1.1-0.22h-0.47V9.19z"/>
	</g>
</g>
</svg>
