<svg id="Layer_1" data-name="Layer 1" xmlns="http://www.w3.org/2000/svg" viewBox="0 0 43.96 14"><defs><style>.cls-1{fill:#e6e6e6;}.cls-2{fill:#231816;}.cls-3{fill:#bfbebf;}</style></defs><rect class="cls-1" width="43.96" height="14"/><rect class="cls-2" x="2.43" y="0.5" width="39.03" height="13.01" rx="1.73"/><path class="cls-3" d="M17.31,8.91a2.22,2.22,0,0,1-.84,1.83,3.64,3.64,0,0,1-2.32.66,5.48,5.48,0,0,1-2.42-.51V9.2a8.79,8.79,0,0,0,1.46.54,4.17,4.17,0,0,0,1.1.16,1.51,1.51,0,0,0,.92-.23A.78.78,0,0,0,15.53,9a.77.77,0,0,0-.14-.44A1.58,1.58,0,0,0,15,8.17a9.5,9.5,0,0,0-1.11-.58,5.24,5.24,0,0,1-1.17-.71,2.65,2.65,0,0,1-.63-.79A2.21,2.21,0,0,1,11.82,5a2.19,2.19,0,0,1,.78-1.78,3.15,3.15,0,0,1,2.13-.65A4.81,4.81,0,0,1,16,2.76a8.37,8.37,0,0,1,1.27.44l-.59,1.41a8.56,8.56,0,0,0-1.13-.39,3.85,3.85,0,0,0-.88-.11,1.15,1.15,0,0,0-.79.24A.78.78,0,0,0,13.6,5a.76.76,0,0,0,.11.41,1.21,1.21,0,0,0,.36.35,10.66,10.66,0,0,0,1.15.6,4.51,4.51,0,0,1,1.64,1.15A2.25,2.25,0,0,1,17.31,8.91Z" transform="translate(-0.02)"/><path class="cls-3" d="M24.11,11.29l-.62-2H20.36l-.62,2h-2l3-8.61H23l3,8.61ZM23.05,7.72c-.57-1.84-.9-2.89-1-3.13S22,4.16,21.93,4c-.13.5-.5,1.74-1.11,3.71Z" transform="translate(-0.02)"/><path class="cls-3" d="M32.2,8.91a2.22,2.22,0,0,1-.84,1.83A3.64,3.64,0,0,1,29,11.4a5.56,5.56,0,0,1-2.43-.51V9.2a9.19,9.19,0,0,0,1.47.54,4.17,4.17,0,0,0,1.1.16,1.53,1.53,0,0,0,.92-.23A.78.78,0,0,0,30.42,9a.77.77,0,0,0-.14-.44,1.58,1.58,0,0,0-.42-.38,9.5,9.5,0,0,0-1.11-.58,5.24,5.24,0,0,1-1.17-.71A2.5,2.5,0,0,1,27,6.09,2.21,2.21,0,0,1,26.71,5a2.22,2.22,0,0,1,.77-1.78,3.19,3.19,0,0,1,2.13-.65,4.88,4.88,0,0,1,1.28.16,8.37,8.37,0,0,1,1.27.44l-.59,1.41a9.08,9.08,0,0,0-1.13-.39,3.92,3.92,0,0,0-.88-.11,1.19,1.19,0,0,0-.8.24.8.8,0,0,0-.27.63.76.76,0,0,0,.11.41,1.21,1.21,0,0,0,.36.35,10.66,10.66,0,0,0,1.15.6,4.51,4.51,0,0,1,1.64,1.15A2.25,2.25,0,0,1,32.2,8.91Z" transform="translate(-0.02)"/></svg>