<?xml version="1.0" encoding="utf-8"?>
<!-- Generator: Adobe Illustrator 26.0.2, SVG Export Plug-In . SVG Version: 6.00 Build 0)  -->
<svg version="1.1" id="Layer_1" xmlns="http://www.w3.org/2000/svg" xmlns:xlink="http://www.w3.org/1999/xlink" x="0px" y="0px"
	 viewBox="0 0 30 20" style="enable-background:new 0 0 30 20;" xml:space="preserve">
<style type="text/css">
	.st0{fill:#7AB5B8;}
	.st1{fill-rule:evenodd;clip-rule:evenodd;fill:#3C3C3B;}
	.st2{fill-rule:evenodd;clip-rule:evenodd;fill:#D9D9D9;}
	.st3{fill-rule:evenodd;clip-rule:evenodd;fill:#868686;}
</style>
<g>
	<rect class="st0" width="30" height="20"/>
	<g>
		<path class="st1" d="M15.04,17.72l-3.2-1.18L9.16,18.6C9.16,18.6,12.21,19.38,15.04,17.72L15.04,17.72z"/>
		<path class="st2" d="M9.15,18.59l2.68-2.05l-0.54-3.33C11.29,13.21,9.14,15.31,9.15,18.59L9.15,18.59z"/>
		<path class="st3" d="M11.3,13.2l0.53,3.33l3.21,1.17C15.04,17.7,14.18,14.76,11.3,13.2L11.3,13.2z"/>
		<path class="st1" d="M11.16,7.89L8.31,9.77l0.08,3.38C8.39,13.15,10.83,11.15,11.16,7.89L11.16,7.89z"/>
		<path class="st3" d="M8.37,13.15L8.31,9.78L5.3,8.24C5.3,8.24,5.73,11.21,8.37,13.15L8.37,13.15z"/>
		<path class="st2" d="M5.31,8.23l3,1.54l2.84-1.89C11.15,7.88,8.27,6.83,5.31,8.23L5.31,8.23z"/>
		<path class="st3" d="M14.37,1.05l-0.46,3.38L16.5,6.6C16.5,6.6,16.6,3.45,14.37,1.05L14.37,1.05z"/>
		<path class="st1" d="M16.49,6.62l-2.58-2.18l-3.14,1.25C10.77,5.69,13.29,7.33,16.49,6.62L16.49,6.62z"/>
		<path class="st2" d="M10.77,5.68l3.14-1.24l0.45-3.38C14.35,1.05,11.67,2.52,10.77,5.68L10.77,5.68z"/>
		<path class="st1" d="M23.7,7.2l-3.26,1.01l-0.87,3.26C19.57,11.48,22.47,10.24,23.7,7.2L23.7,7.2z"/>
		<path class="st2" d="M19.56,11.47l0.89-3.26L17.98,5.9C17.98,5.9,17.56,8.87,19.56,11.47L19.56,11.47z"/>
		<path class="st3" d="M17.99,5.89l2.45,2.32l3.26-1.02C23.7,7.19,21.23,5.37,17.99,5.89L17.99,5.89z"/>
		<path class="st1" d="M20.5,18.56l-1.29-3.16l-3.33-0.59C15.89,14.81,17.37,17.59,20.5,18.56L20.5,18.56z"/>
		<path class="st2" d="M15.89,14.8l3.32,0.6l2.1-2.65C21.31,12.75,18.31,12.58,15.89,14.8L15.89,14.8z"/>
		<path class="st3" d="M21.32,12.76l-2.1,2.64l1.3,3.16C20.51,18.56,22.11,15.94,21.32,12.76L21.32,12.76z"/>
	</g>
</g>
</svg>
