<?xml version="1.0" encoding="utf-8"?>
<!-- Generator: Adobe Illustrator 26.0.2, SVG Export Plug-In . SVG Version: 6.00 Build 0)  -->
<svg version="1.1" id="Layer_1" xmlns="http://www.w3.org/2000/svg" xmlns:xlink="http://www.w3.org/1999/xlink" x="0px" y="0px"
	 viewBox="0 0 63 43" style="enable-background:new 0 0 63 43;" xml:space="preserve">
<style type="text/css">
	.st0{fill:#CD0301;}
	.st1{fill:#FFFFFF;}
</style>
<g>
	<rect class="st0" width="63" height="43"/>
	<g>
		<path class="st1" d="M24.98,12.81h-1.08l1.61-5.99h-2.36l0.21-0.75h5.78l-0.19,0.75h-2.36L24.98,12.81z"/>
		<path class="st1" d="M33.58,6.72c-0.68,0-1.29,0.15-1.81,0.46c-0.52,0.3-0.93,0.74-1.23,1.3s-0.45,1.17-0.45,1.83
			c0,0.57,0.19,1.03,0.56,1.36c0.37,0.33,0.88,0.5,1.54,0.5c0.56,0,1.2-0.09,1.9-0.28v0.74c-0.64,0.19-1.33,0.28-2.09,0.28
			c-0.96,0-1.71-0.23-2.24-0.69s-0.81-1.09-0.81-1.89c0-0.79,0.2-1.53,0.61-2.22c0.41-0.69,0.96-1.22,1.66-1.58s1.49-0.55,2.37-0.55
			c0.8,0,1.5,0.13,2.09,0.38l-0.43,0.7C34.69,6.83,34.14,6.72,33.58,6.72z"/>
		<path class="st1" d="M38.62,12.81h-1.07l1.14-4.17c0.18-0.66,0.34-1.2,0.5-1.62c-0.22,0.18-0.49,0.34-0.8,0.5l-1.05,0.52
			l-0.49-0.62l2.69-1.34h0.92L38.62,12.81z"/>
	</g>
	<g>
		<path class="st1" d="M4.05,38.98H2.96l1.61-6.29H2.22l0.21-0.78h5.78l-0.19,0.78H5.66L4.05,38.98z"/>
		<path class="st1" d="M12.65,32.58c-0.68,0-1.29,0.16-1.81,0.48S9.9,33.84,9.6,34.43s-0.45,1.23-0.45,1.92
			c0,0.6,0.19,1.08,0.56,1.43c0.37,0.35,0.88,0.52,1.54,0.52c0.56,0,1.2-0.1,1.9-0.29v0.77c-0.64,0.2-1.33,0.3-2.09,0.3
			c-0.96,0-1.71-0.24-2.24-0.72s-0.81-1.14-0.81-1.98c0-0.83,0.2-1.61,0.61-2.33s0.96-1.28,1.66-1.66s1.49-0.58,2.37-0.58
			c0.8,0,1.5,0.13,2.09,0.4l-0.43,0.74C13.76,32.7,13.21,32.58,12.65,32.58z"/>
		<path class="st1" d="M19.53,38.98h-5.3l0.19-0.75l2.72-2.03c0.8-0.59,1.32-1.01,1.56-1.25s0.43-0.47,0.54-0.68
			c0.12-0.22,0.17-0.45,0.17-0.72c0-0.31-0.11-0.56-0.34-0.74s-0.54-0.27-0.93-0.27c-0.31,0-0.61,0.05-0.89,0.15
			s-0.6,0.25-0.95,0.47l-0.5-0.6c0.76-0.51,1.58-0.76,2.46-0.76c0.7,0,1.25,0.15,1.66,0.44c0.4,0.29,0.6,0.68,0.6,1.18
			c0,0.34-0.07,0.66-0.22,0.95c-0.15,0.29-0.39,0.6-0.73,0.93c-0.34,0.33-0.93,0.79-1.76,1.4l-2.02,1.45v0.04h3.91L19.53,38.98z"/>
	</g>
	<g>
		<path class="st1" d="M44.75,38.98h-1.08l1.61-6.29h-2.36l0.21-0.78h5.78l-0.19,0.78h-2.36L44.75,38.98z"/>
		<path class="st1" d="M53.35,32.58c-0.68,0-1.29,0.16-1.81,0.48s-0.93,0.78-1.23,1.37s-0.45,1.23-0.45,1.92
			c0,0.6,0.19,1.08,0.56,1.43c0.37,0.35,0.88,0.52,1.54,0.52c0.56,0,1.2-0.1,1.9-0.29v0.77c-0.64,0.2-1.33,0.3-2.09,0.3
			c-0.96,0-1.71-0.24-2.24-0.72s-0.81-1.14-0.81-1.98c0-0.83,0.2-1.61,0.61-2.33s0.96-1.28,1.66-1.66s1.49-0.58,2.37-0.58
			c0.8,0,1.5,0.13,2.09,0.4l-0.43,0.74C54.47,32.7,53.92,32.58,53.35,32.58z"/>
		<path class="st1" d="M61.2,33.37c0,0.5-0.2,0.93-0.59,1.28s-0.94,0.58-1.63,0.68v0.04c0.5,0.08,0.89,0.25,1.16,0.53
			s0.41,0.61,0.41,1c0,0.43-0.12,0.81-0.37,1.13c-0.25,0.33-0.61,0.58-1.08,0.77c-0.47,0.18-1.03,0.28-1.68,0.28
			c-0.83,0-1.58-0.13-2.26-0.38v-0.84c0.33,0.15,0.7,0.27,1.11,0.36c0.41,0.09,0.79,0.13,1.16,0.13c0.63,0,1.12-0.13,1.47-0.38
			c0.35-0.25,0.52-0.6,0.52-1.03c0-0.41-0.15-0.72-0.45-0.93s-0.72-0.32-1.28-0.32h-0.77l0.18-0.72h0.78c0.65,0,1.18-0.14,1.6-0.41
			s0.63-0.63,0.63-1.08c0-0.28-0.11-0.51-0.32-0.68s-0.52-0.26-0.9-0.26c-0.37,0-0.7,0.05-1.01,0.16c-0.31,0.1-0.61,0.24-0.91,0.42
			l-0.49-0.61c0.76-0.46,1.6-0.7,2.51-0.7c0.69,0,1.23,0.14,1.62,0.42C61,32.49,61.2,32.88,61.2,33.37z"/>
	</g>
	
		<rect x="9.03" y="22.09" transform="matrix(0.7149 -0.6993 0.6993 0.7149 -10.8746 18.5099)" class="st1" width="16.46" height="1"/>
	<rect x="23.03" y="34.89" class="st1" width="16.96" height="0.99"/>
	
		<rect x="45.8" y="14.86" transform="matrix(0.7074 -0.7068 0.7068 0.7074 -2.7739 39.4786)" class="st1" width="1" height="16.46"/>
</g>
</svg>
