<?xml version="1.0" encoding="utf-8"?>
<!-- Generator: Adobe Illustrator 26.0.2, SVG Export Plug-In . SVG Version: 6.00 Build 0)  -->
<svg version="1.1" id="Layer_1" xmlns="http://www.w3.org/2000/svg" xmlns:xlink="http://www.w3.org/1999/xlink" x="0px" y="0px"
	 viewBox="0 0 53 20" style="enable-background:new 0 0 53 20;" xml:space="preserve">
<style type="text/css">
	.st0{fill:#00737D;}
	.st1{fill:#FF0000;}
	.st2{fill:#FFFFFF;}
</style>
<rect class="st0" width="53" height="20"/>
<polygon class="st1" points="53,18.04 0,18.04 0,1.92 53,1.92 47.94,10.39 "/>
<g>
	<path class="st2" d="M10.36,8.51c0,0.88-0.26,1.55-0.78,2.02c-0.52,0.47-1.26,0.7-2.22,0.7H6.65v2.9H5V5.96h2.48
		c0.94,0,1.65,0.21,2.14,0.64C10.11,7.03,10.36,7.66,10.36,8.51z M6.65,9.8h0.54c0.51,0,0.88-0.11,1.13-0.32
		C8.57,9.28,8.7,8.97,8.7,8.57c0-0.41-0.11-0.71-0.32-0.9C8.17,7.48,7.84,7.38,7.39,7.38H6.65V9.8z"/>
	<path class="st2" d="M13.54,10.99v3.13H11.9V5.96h2.26c1.05,0,1.83,0.2,2.34,0.61c0.5,0.4,0.76,1.02,0.76,1.84
		c0,0.48-0.13,0.91-0.38,1.28c-0.25,0.37-0.61,0.67-1.06,0.88l2.28,3.56h-1.82l-1.85-3.13H13.54z M13.54,9.59h0.53
		c0.52,0,0.9-0.09,1.15-0.27c0.25-0.18,0.37-0.47,0.37-0.86c0-0.39-0.13-0.66-0.38-0.83c-0.25-0.16-0.64-0.25-1.17-0.25h-0.5V9.59z"
		/>
	<path class="st2" d="M27,10.03c0,1.35-0.32,2.39-0.95,3.12c-0.64,0.73-1.55,1.09-2.73,1.09c-1.19,0-2.1-0.36-2.73-1.09
		c-0.64-0.73-0.95-1.77-0.95-3.13s0.32-2.4,0.96-3.11s1.55-1.07,2.74-1.07c1.19,0,2.1,0.36,2.73,1.08C26.69,7.64,27,8.68,27,10.03z
		 M21.35,10.03c0,0.91,0.16,1.6,0.49,2.06c0.33,0.46,0.82,0.69,1.47,0.69c1.31,0,1.97-0.92,1.97-2.75c0-1.84-0.65-2.76-1.96-2.76
		c-0.65,0-1.15,0.23-1.48,0.7C21.51,8.43,21.35,9.12,21.35,10.03z"/>
	<path class="st2" d="M31.54,14.47l-1.87-6.41h-0.05c0.07,1.3,0.1,2.17,0.1,2.61v3.8h-1.47V6.31h2.24l1.83,6.24h0.03l1.95-6.24h2.24
		v8.16h-1.53v-3.86c0-0.18,0-0.39,0.01-0.63c0-0.24,0.03-0.87,0.07-1.9h-0.05l-2,6.39H31.54z"/>
	<path class="st2" d="M45.18,10.04c0,1.35-0.32,2.39-0.95,3.12c-0.64,0.73-1.55,1.09-2.73,1.09s-2.1-0.36-2.73-1.09
		c-0.64-0.73-0.95-1.77-0.95-3.13s0.32-2.4,0.96-3.11s1.55-1.07,2.74-1.07s2.1,0.36,2.73,1.08C44.86,7.65,45.18,8.69,45.18,10.04z
		 M39.52,10.04c0,0.91,0.16,1.6,0.49,2.06c0.33,0.46,0.82,0.69,1.47,0.69c1.31,0,1.97-0.92,1.97-2.75c0-1.84-0.65-2.76-1.96-2.76
		c-0.65,0-1.15,0.23-1.48,0.7S39.52,9.13,39.52,10.04z"/>
</g>
</svg>
