<?xml version="1.0" encoding="utf-8"?>
<!-- Generator: Adobe Illustrator 26.0.2, SVG Export Plug-In . SVG Version: 6.00 Build 0)  -->
<svg version="1.1" id="Layer_1" xmlns="http://www.w3.org/2000/svg" xmlns:xlink="http://www.w3.org/1999/xlink" x="0px" y="0px"
	 viewBox="0 0 57 18" style="enable-background:new 0 0 57 18;" xml:space="preserve">
<style type="text/css">
	.st0{fill:#0E555A;}
</style>
<g>
	<path class="st0" d="M9.1,11.61c-0.08-0.06-0.74-0.56-2.55-0.68c-0.1-0.01-0.2-0.08-0.29-0.14c-0.11-0.08-0.23-0.15-0.32-0.26
		c-0.14-0.17-0.3-0.31-0.43-0.49C4.63,8.82,3.77,8.57,3.64,8.52C3.46,8.44,2.81,8.54,3.12,8.98c0.02,0,1.01,1.39,1.07,1.5
		c0.11,0.2,0.24,0.28,0.36,0.41c0.11,0.13,0.23,0.24,0.34,0.36c0,0-0.63-0.37-0.78-0.54c-0.07-0.07-0.1-0.18-0.15-0.27
		c-0.06-0.1-0.13-0.2-0.2-0.3C3.68,10.04,3.6,9.92,3.51,9.8C3.4,9.65,3.28,9.51,3.16,9.36C3.09,9.27,3,9.18,2.94,9.09
		C2.64,8.61,2.98,8.33,3.31,8.3C3.29,8.24,3.14,6.81,3.12,6.57c-0.07-0.69-0.15-1.2-0.54-1.34C2.47,5.2,2.4,5.21,2.33,5.29
		C2.24,5.39,2.18,5.89,2.16,6.2c0,0-0.17,1.7-0.13,2.49c0.02,0.42,1.34,3.35,1.72,3.8c0.38,0.45,3.34,2.16,3.34,2.16
		c0.1,0.08,0.65,0.51,0.65,1.06v1.2l3.2,0l0-1.1c0.01-0.2,0.04-0.41,0.07-0.61c0.07-0.23,0.01-0.67-0.02-0.84
		C10.61,12.7,9.25,11.72,9.1,11.61z"/>
	<path class="st0" d="M20.77,6.2c-0.03-0.32-0.08-0.82-0.17-0.91c-0.08-0.08-0.15-0.09-0.25-0.06c-0.39,0.14-0.47,0.65-0.54,1.34
		c-0.03,0.24-0.18,1.67-0.19,1.72c0.32,0.04,0.67,0.32,0.37,0.79c-0.06,0.1-0.14,0.18-0.22,0.27c-0.12,0.15-0.24,0.29-0.35,0.44
		c-0.09,0.12-0.17,0.24-0.26,0.36c-0.07,0.1-0.13,0.19-0.2,0.3c-0.05,0.09-0.09,0.19-0.15,0.27c-0.15,0.16-0.78,0.54-0.78,0.54
		c0.11-0.12,0.24-0.24,0.35-0.36c0.12-0.14,0.25-0.22,0.36-0.41c0.06-0.11,1.05-1.5,1.07-1.5c0.32-0.44-0.34-0.54-0.51-0.46
		c-0.13,0.05-0.99,0.3-1.88,1.53c-0.13,0.18-0.29,0.32-0.43,0.49c-0.09,0.1-0.2,0.18-0.32,0.26c-0.09,0.06-0.19,0.13-0.29,0.14
		c-1.81,0.12-2.47,0.62-2.55,0.68c-0.15,0.12-1.52,1.09-1.89,2.75c-0.03,0.17-0.09,0.61-0.02,0.84c0.02,0.2,0.06,0.41,0.07,0.61
		l0,1.1l3.2,0v-1.2c0-0.55,0.55-0.98,0.65-1.06c0,0,2.96-1.71,3.34-2.16c0.38-0.45,1.7-3.37,1.72-3.8C20.94,7.9,20.77,6.2,20.77,6.2
		z"/>
</g>
<polygon class="st0" points="12.95,4.04 12.95,0.98 10.03,0.98 10.03,4.04 6.96,4.04 6.96,6.96 10.03,6.96 10.03,10.03 12.95,10.03 
	12.95,6.96 16.01,6.96 16.01,4.04 "/>
<g>
	<path class="st0" d="M26.12,10.71L25.4,12.9h-0.93l2.37-6.96h1.08l2.38,6.96h-0.96l-0.74-2.19H26.12z M28.41,10l-0.68-2
		c-0.15-0.45-0.26-0.87-0.36-1.27h-0.02c-0.1,0.41-0.22,0.84-0.35,1.26L26.31,10H28.41z"/>
	<path class="st0" d="M31.28,11.8c0.4,0.25,0.99,0.45,1.61,0.45c0.92,0,1.46-0.49,1.46-1.19c0-0.65-0.37-1.02-1.31-1.38
		c-1.14-0.4-1.84-0.99-1.84-1.97c0-1.08,0.9-1.89,2.25-1.89c0.71,0,1.23,0.17,1.54,0.34l-0.25,0.73c-0.23-0.12-0.69-0.33-1.32-0.33
		c-0.95,0-1.31,0.57-1.31,1.04c0,0.65,0.42,0.97,1.38,1.34c1.18,0.45,1.78,1.02,1.78,2.05c0,1.07-0.79,2-2.44,2
		c-0.67,0-1.41-0.2-1.78-0.44L31.28,11.8z"/>
	<path class="st0" d="M36.88,11.8c0.4,0.25,0.99,0.45,1.61,0.45c0.92,0,1.46-0.49,1.46-1.19c0-0.65-0.37-1.02-1.31-1.38
		c-1.14-0.4-1.84-0.99-1.84-1.97c0-1.08,0.9-1.89,2.25-1.89c0.71,0,1.23,0.17,1.54,0.34l-0.25,0.73c-0.23-0.12-0.69-0.33-1.32-0.33
		c-0.95,0-1.31,0.57-1.31,1.04c0,0.65,0.42,0.97,1.38,1.34c1.18,0.45,1.78,1.02,1.78,2.05c0,1.07-0.79,2-2.44,2
		c-0.67,0-1.41-0.2-1.78-0.44L36.88,11.8z"/>
	<path class="st0" d="M46.06,11.8c0.4,0.25,0.99,0.45,1.61,0.45c0.92,0,1.46-0.49,1.46-1.19c0-0.65-0.37-1.02-1.31-1.38
		c-1.14-0.4-1.84-0.99-1.84-1.97c0-1.08,0.9-1.89,2.25-1.89c0.71,0,1.23,0.17,1.54,0.34l-0.25,0.73c-0.23-0.12-0.69-0.33-1.32-0.33
		c-0.95,0-1.31,0.57-1.31,1.04c0,0.65,0.42,0.97,1.38,1.34c1.18,0.45,1.78,1.02,1.78,2.05c0,1.07-0.79,2-2.44,2
		c-0.67,0-1.41-0.2-1.78-0.44L46.06,11.8z"/>
	<path class="st0" d="M53.04,6.7h-2.12V5.93h5.16V6.7h-2.13v6.2h-0.91V6.7z"/>
</g>
<polygon class="st0" points="45,6.9 45,5.93 41.99,5.93 41.99,6.9 42.99,6.9 42.99,11.93 41.99,11.93 41.99,12.9 45,12.9 45,11.93 
	43.89,11.93 43.89,6.9 "/>
</svg>
