<?xml version="1.0" encoding="utf-8"?>
<!-- Generator: Adobe Illustrator 26.0.2, SVG Export Plug-In . SVG Version: 6.00 Build 0)  -->
<svg version="1.1" id="Layer_1" xmlns="http://www.w3.org/2000/svg" xmlns:xlink="http://www.w3.org/1999/xlink" x="0px" y="0px"
	 viewBox="0 0 14 14" style="enable-background:new 0 0 14 14;" xml:space="preserve">
<style type="text/css">
	.st0{fill:url(#SVGID_1_);}
</style>
<g>
	<g>
		<g>
			<linearGradient id="SVGID_1_" gradientUnits="userSpaceOnUse" x1="7" y1="13.364" x2="7" y2="1.5904">
				<stop  offset="0" style="stop-color:#FFA200"/>
				<stop  offset="0.9992" style="stop-color:#FFFFFF"/>
			</linearGradient>
			<path class="st0" d="M0.86,11.69l4.99-9.56c0.46-0.89,1.84-0.89,2.3,0l4.99,9.56c0.4,0.78-0.21,1.67-1.15,1.67H2.01
				C1.07,13.36,0.46,12.47,0.86,11.69z"/>
			<path d="M11.99,13.95H2.01c-0.67,0-1.29-0.35-1.61-0.9c-0.29-0.5-0.31-1.11-0.04-1.63l0,0l4.99-9.56C5.66,1.25,6.29,0.88,7,0.88
				c0.71,0,1.34,0.37,1.65,0.97l4.99,9.56c0.27,0.52,0.25,1.13-0.04,1.63C13.28,13.6,12.66,13.95,11.99,13.95z M1.37,11.97
				c-0.1,0.2-0.05,0.37,0.01,0.48c0.09,0.16,0.31,0.33,0.64,0.33h9.98c0.32,0,0.54-0.17,0.64-0.33c0.06-0.11,0.12-0.28,0.01-0.48
				L7.65,2.4C7.51,2.14,7.22,2.05,7,2.05S6.49,2.14,6.35,2.4L1.37,11.97z"/>
		</g>
	</g>
	<g>
		<rect x="6.06" y="5.06" width="1.9" height="4.86"/>
		<rect x="6.06" y="10.86" width="1.9" height="1.01"/>
	</g>
</g>
</svg>
