<?xml version="1.0" encoding="utf-8"?>
<!-- Generator: Adobe Illustrator 26.0.2, SVG Export Plug-In . SVG Version: 6.00 Build 0)  -->
<svg version="1.1" id="Layer_1" xmlns="http://www.w3.org/2000/svg" xmlns:xlink="http://www.w3.org/1999/xlink" x="0px" y="0px"
	 viewBox="0 0 57 18" style="enable-background:new 0 0 57 18;" xml:space="preserve">
<style type="text/css">
	.st0{fill:#CDF0FF;}
	.st1{fill:#06474C;}
</style>
<g>
	<rect class="st0" width="57" height="18"/>
	<g>
		<path class="st1" d="M29.03,9.77h-0.04l-1.74-3.62h-1.38v6.98h0.98c0,0-0.03-5.53-0.08-6.07h0.04l1.77,4.05h0.77l1.59-4.04
			c-0.05,0.78-0.07,6.06-0.07,6.06h1.2V6.15h-1.37L29.03,9.77z"/>
		<polygon class="st1" points="34.77,13.13 38.91,13.13 38.91,12.17 35.85,12.17 35.85,10.13 38.73,10.13 38.73,9.13 35.85,9.13 
			35.85,7.08 38.91,7.08 38.91,6.19 34.77,6.19 		"/>
		<path class="st1" d="M43.61,6.12l-2.89,7.01h0.94l0.88-1.86h2.94l0.89,1.86h0.97l-2.89-7.01H43.61z M42.85,10.44l0.84-2.25
			c0.11-0.33,0.22-0.7,0.32-1.11l0.36,1.11l0.83,2.25H42.85z"/>
		<polygon class="st1" points="49.84,12.14 49.84,6.15 48.91,6.15 48.91,13.13 53.08,13.13 53.08,12.14 		"/>
		<path class="st1" d="M8.96,6.15l-1.01,0v-5h-1v5l-0.98,0v-5H4.91c0,0,0,4.56,0,5.48c0,2.2,0.36,2.53,1.34,2.53h0.73l-0.05,8.01
			h1.02L8,9.16h0.6c1.02,0,1.34-0.12,1.34-2.53c0-1.36,0-5.48,0-5.48H8.96V6.15z"/>
		<path class="st1" d="M14.85,4.41c-0.08,1.09,0,5.71-0.01,5.73h1.02v7.04h2.04v-6.08v-0.14V1.13h-1.98
			C15.93,1.13,14.82,2.19,14.85,4.41z"/>
	</g>
</g>
</svg>
