<svg id="Layer_1" data-name="Layer 1" xmlns="http://www.w3.org/2000/svg" viewBox="0 0 30 33"><defs><style>.cls-1{fill:#00737d;}.cls-2{fill:#91f1ff;}</style></defs><rect class="cls-1" width="30" height="33"/><polygon class="cls-2" points="21.16 1.64 8.84 1.64 0.14 10.34 0.14 22.66 8.84 31.36 21.16 31.36 29.86 22.66 29.86 10.34 21.16 1.64"/><path d="M11.41,20.79H9.1L5.37,14.31h0c.07,1.14.11,2,.11,2.44v4H3.81V12.22H6.1l3.72,6.42h0c-.06-1.12-.09-1.9-.09-2.37v-4h1.64Z"/><path d="M19.47,16.42a4.23,4.23,0,0,1-1.2,3.24,4.94,4.94,0,0,1-3.48,1.13H12.36V12.22h2.69a4.52,4.52,0,0,1,3.26,1.11A4.09,4.09,0,0,1,19.47,16.42Zm-1.89,0q0-2.76-2.43-2.76h-1v5.58H15C16.71,19.29,17.58,18.35,17.58,16.47Z"/><path d="M23.68,13.61a1.84,1.84,0,0,0-1.58.77,3.55,3.55,0,0,0-.57,2.15c0,1.91.72,2.86,2.15,2.86a6.82,6.82,0,0,0,2.19-.45v1.52a6,6,0,0,1-2.36.44,3.56,3.56,0,0,1-2.85-1.13,4.81,4.81,0,0,1-1-3.26,5.37,5.37,0,0,1,.48-2.34,3.55,3.55,0,0,1,1.4-1.54,4.21,4.21,0,0,1,2.13-.53,5.78,5.78,0,0,1,2.51.6l-.58,1.48a8,8,0,0,0-1-.4A2.94,2.94,0,0,0,23.68,13.61Z"/></svg>