<?xml version="1.0" encoding="utf-8"?>
<!-- Generator: Adobe Illustrator 26.0.2, SVG Export Plug-In . SVG Version: 6.00 Build 0)  -->
<svg version="1.1" id="Layer_1" xmlns="http://www.w3.org/2000/svg" xmlns:xlink="http://www.w3.org/1999/xlink" x="0px" y="0px"
	 viewBox="0 0 16 16" style="enable-background:new 0 0 16 16;" xml:space="preserve">
<style type="text/css">
	.st0{fill:#5E8004;}
	.st1{fill:#FFFFFF;stroke:#FFFFFF;stroke-width:0.5;stroke-miterlimit:10;}
</style>
<g>
	<circle class="st0" cx="7.88" cy="8.03" r="7.63"/>
	<path class="st1" d="M8.44,3.25c-2.53-0.5-5,1.25-5.52,3.88s1.12,5.19,3.64,5.68c0.88,0.17,1.78,0.08,2.61-0.27
		c0.81-0.34,1.51-0.9,2.04-1.62l-0.61-0.48c-0.92,1.26-2.41,1.86-3.88,1.57c-2.11-0.41-3.47-2.54-3.04-4.74s2.5-3.66,4.61-3.24
		c1.26,0.25,2.3,1.13,2.8,2.33L9.47,7.49l2.87,0.56l0.59-2.98l-1.19,0.83c-0.24-0.53-0.57-1-0.97-1.41
		C10.13,3.85,9.32,3.42,8.44,3.25z"/>
</g>
</svg>
