<?xml version="1.0" encoding="utf-8"?>
<!-- Generator: Adobe Illustrator 26.0.2, SVG Export Plug-In . SVG Version: 6.00 Build 0)  -->
<svg version="1.1" id="Layer_1" xmlns="http://www.w3.org/2000/svg" xmlns:xlink="http://www.w3.org/1999/xlink" x="0px" y="0px"
	 viewBox="0 0 57 18" style="enable-background:new 0 0 57 18;" xml:space="preserve">
<style type="text/css">
	.st0{fill:#1B6D72;}
	.st1{fill:#89AFB2;}
	.st2{fill:#134F54;}
</style>
<g>
	<path class="st0" d="M31.64,9.43c0,1.18-0.32,2.08-0.96,2.7c-0.64,0.62-1.56,0.93-2.76,0.93h-1.98V5.93h2.19
		c1.11,0,1.97,0.3,2.59,0.91C31.33,7.46,31.64,8.32,31.64,9.43z M30.7,9.46c0-0.91-0.22-1.59-0.67-2.06C29.58,6.93,28.9,6.7,28,6.7
		h-1.17v5.59h0.97C29.73,12.29,30.7,11.34,30.7,9.46z"/>
	<path class="st0" d="M39.44,9.49c0,1.14-0.29,2.04-0.87,2.69s-1.38,0.98-2.42,0.98c-1.05,0-1.86-0.32-2.44-0.96
		c-0.57-0.64-0.86-1.55-0.86-2.72c0-1.16,0.29-2.06,0.86-2.7s1.39-0.96,2.45-0.96c1.03,0,1.84,0.32,2.41,0.97
		C39.16,7.44,39.44,8.34,39.44,9.49z M33.81,9.49c0,0.94,0.2,1.66,0.6,2.15c0.4,0.49,0.98,0.74,1.75,0.74
		c0.76,0,1.34-0.24,1.74-0.73s0.6-1.21,0.6-2.16c0-0.95-0.2-1.67-0.59-2.15c-0.39-0.48-0.97-0.72-1.74-0.72
		c-0.77,0-1.36,0.24-1.76,0.73C34.01,7.83,33.81,8.55,33.81,9.49z"/>
	<path class="st0" d="M44.07,6.62c-0.77,0-1.37,0.26-1.81,0.77C41.82,7.9,41.6,8.6,41.6,9.5c0,0.92,0.21,1.63,0.64,2.13
		s1.03,0.75,1.82,0.75c0.51,0,1.08-0.09,1.71-0.28v0.78c-0.3,0.11-0.59,0.19-0.87,0.23c-0.28,0.04-0.6,0.06-0.97,0.06
		c-1.05,0-1.86-0.32-2.43-0.96s-0.85-1.54-0.85-2.71c0-0.73,0.14-1.38,0.41-1.93c0.27-0.55,0.67-0.98,1.18-1.28
		c0.52-0.3,1.13-0.45,1.83-0.45c0.75,0,1.41,0.14,1.97,0.42l-0.36,0.76C45.12,6.75,44.58,6.62,44.07,6.62z"/>
</g>
<g>
	<path class="st0" d="M5,1.04V14h12V1.04H5z M15.98,13.06H6.95V1.95h9.03V13.06z"/>
	<g>
		<rect x="10.08" y="3.95" class="st1" width="4.9" height="1.04"/>
		<rect x="10.08" y="6.06" class="st1" width="4.9" height="1.04"/>
		<rect x="10.08" y="8" class="st1" width="4.9" height="1.04"/>
		<rect x="10.08" y="9.93" class="st1" width="4.9" height="1.04"/>
	</g>
	<polygon class="st2" points="11.97,17.04 5,14 5,1.04 11.97,5.04 	"/>
</g>
</svg>
