<?xml version="1.0" encoding="utf-8"?>
<!-- Generator: Adobe Illustrator 26.0.2, SVG Export Plug-In . SVG Version: 6.00 Build 0)  -->
<svg version="1.1" id="Layer_1" xmlns="http://www.w3.org/2000/svg" xmlns:xlink="http://www.w3.org/1999/xlink" x="0px" y="0px"
	 viewBox="0 0 37 25" style="enable-background:new 0 0 37 25;" xml:space="preserve">
<style type="text/css">
	.st0{fill:url(#SVGID_1_);stroke:#796318;stroke-miterlimit:10;}
	.st1{fill:#020000;}
</style>
<g>
	<linearGradient id="SVGID_1_" gradientUnits="userSpaceOnUse" x1="18.5" y1="2.6901" x2="18.5" y2="21.9541">
		<stop  offset="0" style="stop-color:#F9DF5E"/>
		<stop  offset="1" style="stop-color:#C67C04"/>
	</linearGradient>
	<path class="st0" d="M23,21.88h-9c-5.18,0-9.37-4.2-9.37-9.37v0c0-5.18,4.2-9.37,9.37-9.37h9c5.18,0,9.37,4.2,9.37,9.37v0
		C32.38,17.68,28.18,21.88,23,21.88z"/>
	<g>
		<path class="st1" d="M15.42,16.54l-2.61-8.08h1.61l1.1,3.67c0.31,1.02,0.58,1.97,0.79,2.95h0.02c0.22-0.96,0.5-1.94,0.83-2.93
			l1.18-3.69h1.57l-2.79,8.08H15.42z"/>
		<path class="st1" d="M22.77,10.08h-0.02l-1.43,0.72l-0.25-1.12l1.9-0.94h1.24v7.8h-1.43V10.08z"/>
	</g>
</g>
</svg>
