<?xml version="1.0" encoding="utf-8"?>
<!-- Generator: Adobe Illustrator 26.0.2, SVG Export Plug-In . SVG Version: 6.00 Build 0)  -->
<svg version="1.1" id="Layer_1" xmlns="http://www.w3.org/2000/svg" xmlns:xlink="http://www.w3.org/1999/xlink" x="0px" y="0px"
	 viewBox="0 0 30 40" style="enable-background:new 0 0 30 40;" xml:space="preserve">
<style type="text/css">
	.st0{fill:#3757A7;}
	.st1{fill:#CDF0FF;}
</style>
<g>
	<polygon class="st0" points="28.99,27.29 1.01,1.07 28.99,1.07 	"/>
	<g>
		<path class="st1" d="M17.76,11.04h-4.67v-0.8l1.79-1.95c0.26-0.28,0.48-0.53,0.69-0.76c0.2-0.23,0.37-0.45,0.52-0.67
			c0.14-0.22,0.25-0.44,0.33-0.66c0.08-0.22,0.11-0.46,0.11-0.72c0-0.2-0.03-0.38-0.09-0.53c-0.06-0.15-0.14-0.28-0.25-0.39
			c-0.11-0.11-0.23-0.19-0.38-0.24c-0.15-0.05-0.31-0.08-0.49-0.08c-0.32,0-0.62,0.07-0.88,0.2c-0.26,0.13-0.51,0.3-0.75,0.5
			l-0.52-0.61c0.14-0.12,0.28-0.24,0.44-0.35c0.16-0.11,0.33-0.2,0.51-0.28c0.18-0.08,0.37-0.14,0.57-0.19
			c0.2-0.05,0.41-0.07,0.63-0.07c0.33,0,0.62,0.05,0.89,0.14c0.26,0.09,0.49,0.23,0.67,0.4c0.18,0.17,0.33,0.38,0.43,0.63
			c0.1,0.25,0.15,0.53,0.15,0.84c0,0.29-0.04,0.57-0.14,0.83c-0.09,0.26-0.21,0.52-0.37,0.78c-0.16,0.25-0.35,0.51-0.57,0.77
			c-0.22,0.26-0.46,0.52-0.71,0.8l-1.44,1.53v0.04h3.53V11.04z"/>
		<path class="st1" d="M21.83,11.04v-3.6c0-0.46-0.1-0.8-0.3-1.02C21.32,6.2,21,6.09,20.57,6.09c-0.58,0-1,0.16-1.26,0.48
			s-0.39,0.84-0.39,1.56v2.91H18V5.42h0.74l0.14,0.77h0.05c0.17-0.28,0.42-0.49,0.73-0.64c0.31-0.15,0.66-0.23,1.04-0.23
			c0.69,0,1.2,0.17,1.54,0.5c0.34,0.33,0.5,0.85,0.5,1.56v3.66H21.83z"/>
		<path class="st1" d="M25.25,11.15c-0.73,0-1.3-0.25-1.7-0.76c-0.4-0.51-0.6-1.22-0.6-2.15c0-0.92,0.2-1.64,0.61-2.15
			s0.97-0.77,1.71-0.77c0.75,0,1.34,0.28,1.74,0.83h0.07c-0.01-0.07-0.02-0.21-0.04-0.41c-0.02-0.21-0.02-0.35-0.02-0.42V3.07h0.92
			v7.97h-0.74l-0.14-0.75h-0.04C26.61,10.86,26.03,11.15,25.25,11.15z M25.4,10.38c0.56,0,0.97-0.15,1.23-0.46s0.39-0.81,0.39-1.5
			V8.25c0-0.78-0.13-1.34-0.39-1.67c-0.26-0.33-0.67-0.5-1.23-0.5c-0.47,0-0.84,0.19-1.1,0.57c-0.26,0.38-0.39,0.92-0.39,1.62
			c0,0.7,0.13,1.22,0.39,1.58C24.55,10.2,24.92,10.38,25.4,10.38z"/>
	</g>
</g>
</svg>
