<?xml version="1.0" encoding="utf-8"?>
<!-- Generator: Adobe Illustrator 26.0.2, SVG Export Plug-In . SVG Version: 6.00 Build 0)  -->
<svg version="1.1" id="Layer_1" xmlns="http://www.w3.org/2000/svg" xmlns:xlink="http://www.w3.org/1999/xlink" x="0px" y="0px"
	 viewBox="0 0 35 20" style="enable-background:new 0 0 35 20;" xml:space="preserve">
<style type="text/css">
	.st0{fill:url(#SVGID_1_);}
	.st1{fill:#FFFFFF;}
</style>
<g>
	<linearGradient id="SVGID_1_" gradientUnits="userSpaceOnUse" x1="8.5041" y1="19.263" x2="8.5041" y2="1.7914">
		<stop  offset="0" style="stop-color:#B8C9CB"/>
		<stop  offset="1" style="stop-color:#F9FAFB"/>
	</linearGradient>
	<path class="st0" d="M15.34,7.94l-4.88-6.16L5.44,7.94h2.63c0.13,1.96-0.08,7.79-6.4,11.12c0,0,10.17,0.38,11.32-11.12H15.34z"/>
	<g>
		<path class="st1" d="M21,11.04v5.12c0,0.9-0.23,1.61-0.7,2.13c-0.47,0.52-1.12,0.77-1.95,0.77c-0.82,0-1.46-0.26-1.91-0.78
			s-0.68-1.23-0.68-2.14v-5.1h0.86v5.13c0,0.65,0.15,1.14,0.44,1.5c0.3,0.35,0.74,0.53,1.34,0.53c0.56,0,0.99-0.17,1.3-0.52
			c0.3-0.35,0.45-0.85,0.45-1.51v-5.12H21z"/>
		<path class="st1" d="M27.15,13.37c0,0.81-0.24,1.43-0.71,1.86c-0.47,0.43-1.14,0.65-2.01,0.65h-0.78v3.08h-0.86v-7.91h1.8
			C26.3,11.04,27.15,11.82,27.15,13.37z M23.65,15.02h0.68c0.68,0,1.17-0.13,1.47-0.38c0.3-0.25,0.46-0.66,0.46-1.22
			c0-0.51-0.14-0.89-0.42-1.14c-0.28-0.25-0.72-0.38-1.32-0.38h-0.87V15.02z"/>
		<path class="st1" d="M31.52,14.78h2.35v3.88c-0.36,0.13-0.73,0.23-1.1,0.3c-0.37,0.07-0.8,0.1-1.29,0.1
			c-1.04,0-1.84-0.36-2.41-1.07c-0.57-0.71-0.85-1.71-0.85-2.99c0-0.83,0.14-1.55,0.42-2.16c0.28-0.62,0.69-1.09,1.22-1.41
			c0.53-0.33,1.16-0.49,1.88-0.49c0.73,0,1.4,0.16,2.03,0.46l-0.33,0.87c-0.6-0.3-1.18-0.45-1.76-0.45c-0.81,0-1.44,0.29-1.9,0.85
			c-0.46,0.57-0.68,1.35-0.68,2.34c0,1.05,0.22,1.84,0.66,2.39c0.44,0.54,1.07,0.82,1.91,0.82c0.46,0,0.9-0.06,1.34-0.19v-2.35
			h-1.49V14.78z"/>
	</g>
</g>
</svg>
