<svg id="Layer_1" data-name="Layer 1" xmlns="http://www.w3.org/2000/svg" xmlns:xlink="http://www.w3.org/1999/xlink" viewBox="0 0 40.03 14.01"><defs><style>.cls-1{stroke:#031d6e;stroke-miterlimit:10;fill:url(#linear-gradient);}.cls-2{fill:#fff;}</style><linearGradient id="linear-gradient" x1="0.5" y1="7" x2="39.53" y2="7" gradientUnits="userSpaceOnUse"><stop offset="0" stop-color="#7798ff"/><stop offset="1" stop-color="#0036df"/></linearGradient></defs><rect class="cls-1" x="0.5" y="0.5" width="39.03" height="13.01" rx="1.73"/><path class="cls-2" d="M17.9,5.62A2.62,2.62,0,0,1,17,7.74a3.67,3.67,0,0,1-2.46.73h-.78v3H12V3h2.73a3.62,3.62,0,0,1,2.37.67A2.42,2.42,0,0,1,17.9,5.62ZM13.79,7h.6a2,2,0,0,0,1.26-.33,1.17,1.17,0,0,0,.41-1,1.18,1.18,0,0,0-.35-1,1.63,1.63,0,0,0-1.09-.3h-.83Z" transform="translate(-1.98 0)"/><path class="cls-2" d="M20,11.52V3h1.82V10H26v1.5Z" transform="translate(-1.98 0)"/><path class="cls-2" d="M30.88,11.52H29.06V4.46H26.73V3H33.2V4.46H30.88Z" transform="translate(-1.98 0)"/></svg>