<?xml version="1.0" encoding="utf-8"?>
<!-- Generator: Adobe Illustrator 26.0.2, SVG Export Plug-In . SVG Version: 6.00 Build 0)  -->
<svg version="1.1" id="Layer_1" xmlns="http://www.w3.org/2000/svg" xmlns:xlink="http://www.w3.org/1999/xlink" x="0px" y="0px"
	 viewBox="0 0 57 18" style="enable-background:new 0 0 57 18;" xml:space="preserve">
<style type="text/css">
	.st0{fill:#E6E6E6;}
	.st1{fill:#1B6D72;}
	.st2{fill:#89AFB2;}
	.st3{fill:#134F54;}
</style>
<g>
	<rect class="st0" width="57" height="18"/>
	<g>
		<g>
			<path class="st1" d="M31.69,9.59c0,1.18-0.32,2.08-0.96,2.7c-0.64,0.62-1.56,0.93-2.76,0.93h-1.98V6.09h2.19
				c1.11,0,1.97,0.3,2.59,0.91C31.38,7.62,31.69,8.48,31.69,9.59z M30.74,9.62c0-0.91-0.22-1.59-0.67-2.06
				c-0.45-0.47-1.12-0.7-2.03-0.7h-1.17v5.59h0.97C29.77,12.45,30.74,11.5,30.74,9.62z"/>
			<path class="st1" d="M39.49,9.65c0,1.14-0.29,2.04-0.87,2.69s-1.38,0.98-2.42,0.98c-1.05,0-1.86-0.32-2.44-0.96
				c-0.57-0.64-0.86-1.55-0.86-2.72c0-1.16,0.29-2.06,0.86-2.7s1.39-0.96,2.45-0.96c1.03,0,1.84,0.32,2.41,0.97
				C39.2,7.6,39.49,8.5,39.49,9.65z M33.85,9.65c0,0.94,0.2,1.66,0.6,2.15c0.4,0.49,0.98,0.74,1.75,0.74c0.76,0,1.34-0.24,1.74-0.73
				s0.6-1.21,0.6-2.16c0-0.95-0.2-1.67-0.59-2.15c-0.39-0.48-0.97-0.72-1.74-0.72c-0.77,0-1.36,0.24-1.76,0.73
				C34.05,7.99,33.85,8.71,33.85,9.65z"/>
			<path class="st1" d="M44.11,6.78c-0.77,0-1.37,0.26-1.81,0.77c-0.44,0.51-0.66,1.22-0.66,2.11c0,0.92,0.21,1.63,0.64,2.13
				s1.03,0.75,1.82,0.75c0.51,0,1.08-0.09,1.71-0.28v0.78c-0.3,0.11-0.59,0.19-0.87,0.23c-0.28,0.04-0.6,0.06-0.97,0.06
				c-1.05,0-1.86-0.32-2.43-0.96s-0.85-1.54-0.85-2.71c0-0.73,0.14-1.38,0.41-1.93c0.27-0.55,0.67-0.98,1.18-1.28
				c0.52-0.3,1.13-0.45,1.83-0.45c0.75,0,1.41,0.14,1.97,0.42l-0.36,0.76C45.16,6.91,44.62,6.78,44.11,6.78z"/>
		</g>
		<g>
			<path class="st1" d="M5.05,1.2v12.96h12V1.2H5.05z M16.02,13.22H7V2.12h9.03V13.22z"/>
			<g>
				<rect x="10.13" y="4.11" class="st2" width="4.9" height="1.04"/>
				<rect x="10.13" y="6.22" class="st2" width="4.9" height="1.04"/>
				<rect x="10.13" y="8.16" class="st2" width="4.9" height="1.04"/>
				<rect x="10.13" y="10.09" class="st2" width="4.9" height="1.04"/>
			</g>
			<polygon class="st3" points="12.02,17.2 5.05,14.16 5.05,1.2 12.02,5.2 			"/>
		</g>
	</g>
</g>
</svg>
