<?xml version="1.0" encoding="utf-8"?>
<!-- Generator: Adobe Illustrator 26.0.2, SVG Export Plug-In . SVG Version: 6.00 Build 0)  -->
<svg version="1.1" id="Layer_1" xmlns="http://www.w3.org/2000/svg" xmlns:xlink="http://www.w3.org/1999/xlink" x="0px" y="0px"
	 viewBox="0 0 46 46" style="enable-background:new 0 0 46 46;" xml:space="preserve">
<style type="text/css">
	.st0{fill:#E0E0E0;}
	.st1{fill:#2ABCEC;}
	.st2{fill:#004595;}
	.st3{fill-rule:evenodd;clip-rule:evenodd;fill:#FFFFFF;}
</style>
<g>
	<g>
		<polygon class="st0" points="44.3,5.96 33.84,5.96 1.7,39.99 31.29,39.99 		"/>
		<polygon class="st1" points="43,7.03 34.41,7.03 3.81,38.94 30.92,38.94 		"/>
		<polygon class="st2" points="40.85,7.03 34.41,7.03 3.81,38.94 28.77,38.94 		"/>
	</g>
	<g>
		<path class="st3" d="M18.69,24.66l2.08-2.08l6.05,3.34c0.2,0.1,0.29-0.07,0.2-0.2l-3.83-5.56l0.92-0.92l4.98,7.14l-2.12,2.12
			l-5.98-3.33c-0.17-0.09-0.33,0.01-0.2,0.22l3.81,5.47l-0.96,0.96L18.69,24.66L18.69,24.66z"/>
		<path class="st3" d="M14.92,28.43l2.02-2.02l6.47,5.66l-1.51,1.51l-0.71-0.65c-0.15-0.15-0.37-0.14-0.52,0.01l-2.33,2.33
			l-0.35-1.37l1.6-1.6c0.18-0.18,0.42-0.37,0.16-0.61l-2.89-2.55c-0.18-0.18-0.43-0.11-0.35,0.16l1.99,7.68l-1.03,1.03L14.92,28.43
			L14.92,28.43z"/>
		<path class="st3" d="M26.43,16.91l2.03-2.03l6.54,5.58l-1.52,1.52l-0.71-0.65c-0.15-0.15-0.36-0.15-0.51,0l-2.14,2.14l-0.36-1.36
			l1.42-1.42c0.18-0.18,0.42-0.37,0.15-0.6l-2.96-2.47c-0.18-0.18-0.43-0.11-0.35,0.16l2.34,7.33l-1.03,1.03L26.43,16.91
			L26.43,16.91z"/>
	</g>
</g>
</svg>
