<?xml version="1.0" encoding="utf-8"?>
<!-- Generator: Adobe Illustrator 26.0.2, SVG Export Plug-In . SVG Version: 6.00 Build 0)  -->
<svg version="1.1" id="Layer_1" xmlns="http://www.w3.org/2000/svg" xmlns:xlink="http://www.w3.org/1999/xlink" x="0px" y="0px"
	 viewBox="0 0 44 40" style="enable-background:new 0 0 44 40;" xml:space="preserve">
<style type="text/css">
	.st0{fill:#00737D;}
</style>
<path class="st0" d="M25.6,8.28c-0.53-0.41-1.89-1.61-1.89-1.61l-0.03-1.75h-4.06v20.71c-3.81-0.36-7.29,2.1-7.29,5.23
	s1.9,4.2,5.03,4.2s6.32-3.58,6.32-7.48V12.86c0.08,0.06,0.17,0.13,0.25,0.19c2.13,1.64,3.24,2.84,3.24,4.39
	c0,2.41-1.89,3.89-1.89,3.89l2.63,2.71c0,0,3.74-3.83,3.74-7.82C31.66,12.69,27.83,10,25.6,8.28z"/>
</svg>
