<?xml version="1.0" encoding="utf-8"?>
<!-- Generator: Adobe Illustrator 26.0.2, SVG Export Plug-In . SVG Version: 6.00 Build 0)  -->
<svg version="1.1" id="Layer_1" xmlns="http://www.w3.org/2000/svg" xmlns:xlink="http://www.w3.org/1999/xlink" x="0px" y="0px"
	 viewBox="0 0 17 17" style="enable-background:new 0 0 17 17;" xml:space="preserve">
<style type="text/css">
	.st0{fill:#0F4141;}
	.st1{fill:#FFFFFF;}
</style>
<g>
	<g>
		<path class="st0" d="M15.37,17H1.63C0.73,17,0,16.27,0,15.37V1.63C0,0.73,0.73,0,1.63,0h13.73C16.27,0,17,0.73,17,1.63v13.73
			C17,16.27,16.27,17,15.37,17z"/>
	</g>
	<g>
		<path class="st1" d="M10.36,5.64c1.05,0,1.91-0.85,1.91-1.91s-0.85-1.91-1.91-1.91S8.45,2.68,8.45,3.73S9.3,5.64,10.36,5.64z"/>
		<path class="st1" d="M15.01,9.41c-0.01-1.2-0.98-3.16-2.18-3.16h-0.81H8.7H8.17c-0.91,0-1.7,1.18-2.17,1.95L5.14,9.35L4.16,8.36
			h0.58V7.54H1.34v0.82h1.38l2.31,3c0.43,0.4,0.63,0.25,0.94-0.24c1.52-2.46,1.58-2.7,1.63-2.77c0.05-0.06,0.33,0.04,0.33,0.12
			c0,0.81,0.53,4.19,0.53,5.73H7.31v0.91h5.94V14.2h-0.99c0-1.35,0.53-4.08,0.53-5.78c0-0.1,0.37-0.1,0.37,0l1.47,6.76l1.03,0
			C15.66,15.17,15.01,10.6,15.01,9.41z"/>
	</g>
</g>
</svg>
