<?xml version="1.0" encoding="utf-8"?>
<!-- Generator: Adobe Illustrator 26.0.2, SVG Export Plug-In . SVG Version: 6.00 Build 0)  -->
<svg version="1.1" id="Layer_1" xmlns="http://www.w3.org/2000/svg" xmlns:xlink="http://www.w3.org/1999/xlink" x="0px" y="0px"
	 viewBox="0 0 17 17" style="enable-background:new 0 0 17 17;" xml:space="preserve">
<style type="text/css">
	.st0{fill:#0F4141;}
	.st1{fill:#FFFFFF;}
</style>
<g>
	<path class="st0" d="M15.37,17H1.63C0.73,17,0,16.27,0,15.37V1.63C0,0.73,0.73,0,1.63,0h13.73C16.27,0,17,0.73,17,1.63v13.73
		C17,16.27,16.27,17,15.37,17z"/>
	<g>
		<path class="st1" d="M7.33,6.11c-0.04,0.02-0.41-0.01-0.48,0V2.63H6.38L6.37,6.11c-0.06,0.01-0.39,0.01-0.45,0V2.63H5.44
			l0.01,3.47H4.98V2.63H4.49L4.49,6.11c0,0.34,0.12,1.44,0.95,1.97l0,8.93l1.37-0.01l0.15-8.92C7.8,7.64,7.8,6.44,7.8,6.11V2.64
			H7.34L7.33,6.11z"/>
		<path class="st1" d="M10.19,3.65c0,0,0,5.31,0,6.16c0,0.85,0.93,1.5,0.93,1.5v5.64h1.39V2.33C12.51,2.33,10.52,2.17,10.19,3.65z"
			/>
	</g>
</g>
</svg>
