<?xml version="1.0" encoding="utf-8"?>
<!-- Generator: Adobe Illustrator 26.0.2, SVG Export Plug-In . SVG Version: 6.00 Build 0)  -->
<svg version="1.1" id="Layer_1" xmlns="http://www.w3.org/2000/svg" xmlns:xlink="http://www.w3.org/1999/xlink" x="0px" y="0px"
	 viewBox="0 0 17 17" style="enable-background:new 0 0 17 17;" xml:space="preserve">
<style type="text/css">
	.st0{fill:#0F4141;}
	.st1{fill:#FFFFFF;}
</style>
<g>
	<g>
		<path class="st0" d="M15.37,17H1.63C0.73,17,0,16.27,0,15.37V1.63C0,0.73,0.73,0,1.63,0h13.73C16.27,0,17,0.73,17,1.63v13.73
			C17,16.27,16.27,17,15.37,17z"/>
	</g>
	<g>
		<path class="st1" d="M4.47,11.46c0.35,0.47,0.51,0.93,0.47,1.37c-0.04,0.44-0.27,0.82-0.69,1.13c-0.26,0.19-0.54,0.31-0.83,0.33
			c-0.29,0.03-0.58-0.03-0.85-0.18c-0.28-0.15-0.53-0.37-0.75-0.67c-0.35-0.47-0.51-0.92-0.47-1.36c0.04-0.44,0.27-0.81,0.69-1.13
			c0.41-0.3,0.83-0.41,1.26-0.32S4.13,11,4.47,11.46z M2.3,13.08c0.27,0.36,0.55,0.58,0.83,0.67c0.28,0.08,0.56,0.02,0.84-0.19
			c0.27-0.21,0.41-0.45,0.42-0.75c0-0.29-0.13-0.62-0.4-0.99c-0.27-0.36-0.55-0.58-0.83-0.66c-0.28-0.08-0.56-0.01-0.84,0.2
			C1.77,11.79,1.76,12.36,2.3,13.08z"/>
		<path class="st1" d="M7.01,11.3c0.06-0.04,0.13-0.11,0.2-0.18c0.07-0.07,0.12-0.13,0.16-0.18l0.27,0.36
			c-0.03,0.05-0.08,0.12-0.16,0.21c-0.08,0.09-0.16,0.17-0.26,0.24c-0.56,0.42-1.07,0.33-1.51-0.26L4.46,9.81l-0.41,0.3L3.89,9.89
			l0.27-0.5L3.89,8.64l0.28-0.21l0.49,0.66L5.5,8.47l0.27,0.37L4.94,9.46l1.24,1.66c0.12,0.17,0.26,0.26,0.41,0.29
			C6.73,11.44,6.87,11.41,7.01,11.3z"/>
		<path class="st1" d="M10.2,9.44L8.83,7.6C8.65,7.37,8.47,7.23,8.28,7.19c-0.19-0.04-0.4,0.03-0.62,0.19
			C7.37,7.61,7.22,7.85,7.2,8.11C7.19,8.37,7.32,8.69,7.6,9.07l1.11,1.49l-0.47,0.35L5.19,6.82l0.47-0.35l0.89,1.2
			c0.12,0.16,0.21,0.3,0.28,0.42l0.03-0.02c-0.02-0.2,0.02-0.4,0.12-0.6c0.1-0.2,0.25-0.37,0.44-0.51C7.78,6.69,8.1,6.58,8.4,6.62
			c0.3,0.04,0.59,0.24,0.86,0.6l1.4,1.88L10.2,9.44z"/>
		<path class="st1" d="M12.82,7.57c-0.43,0.32-0.87,0.44-1.31,0.37s-0.83-0.35-1.17-0.8C10,6.67,9.84,6.21,9.86,5.77
			c0.02-0.45,0.23-0.81,0.62-1.1c0.36-0.27,0.74-0.37,1.13-0.3c0.39,0.07,0.73,0.31,1.03,0.71l0.21,0.29l-1.97,1.47
			c0.25,0.32,0.52,0.51,0.81,0.56c0.28,0.05,0.57-0.03,0.86-0.25c0.15-0.12,0.29-0.24,0.41-0.37c0.12-0.13,0.24-0.3,0.37-0.52
			l0.31,0.41c-0.11,0.19-0.22,0.35-0.34,0.48C13.17,7.29,13.01,7.42,12.82,7.57z M10.76,5.06c-0.23,0.17-0.35,0.38-0.37,0.62
			c-0.02,0.24,0.05,0.5,0.22,0.78l1.47-1.09c-0.2-0.27-0.42-0.42-0.64-0.47C11.21,4.84,10.99,4.89,10.76,5.06z"/>
		<path class="st1" d="M13.74,2.24c0.13-0.09,0.25-0.17,0.36-0.22l0.27,0.48c-0.12,0.06-0.24,0.12-0.34,0.2
			c-0.15,0.11-0.26,0.26-0.33,0.44c-0.07,0.18-0.08,0.37-0.05,0.58c0.04,0.2,0.12,0.39,0.26,0.57l1.15,1.54l-0.47,0.35l-2.15-2.88
			L12.83,3l0.45,0.49l0.02-0.02c-0.03-0.27-0.01-0.51,0.07-0.72C13.44,2.54,13.57,2.37,13.74,2.24z"/>
	</g>
</g>
</svg>
