<?xml version="1.0" encoding="utf-8"?>
<!-- Generator: Adobe Illustrator 26.0.2, SVG Export Plug-In . SVG Version: 6.00 Build 0)  -->
<svg version="1.1" id="Layer_1" xmlns="http://www.w3.org/2000/svg" xmlns:xlink="http://www.w3.org/1999/xlink" x="0px" y="0px"
	 viewBox="0 0 19 18" style="enable-background:new 0 0 19 18;" xml:space="preserve">
<style type="text/css">
	.st0{fill-rule:evenodd;clip-rule:evenodd;fill:#3C3C3B;}
	.st1{fill-rule:evenodd;clip-rule:evenodd;fill:#D9D9D9;}
	.st2{fill-rule:evenodd;clip-rule:evenodd;fill:#868686;}
</style>
<g>
	<path class="st0" d="M10.03,16.8l-3.2-1.18l-2.68,2.06C4.15,17.68,7.21,18.46,10.03,16.8L10.03,16.8z"/>
	<path class="st1" d="M4.14,17.67l2.68-2.05l-0.54-3.33C6.28,12.29,4.14,14.39,4.14,17.67L4.14,17.67z"/>
	<path class="st2" d="M6.3,12.29l0.53,3.33l3.21,1.17C10.04,16.79,9.18,13.85,6.3,12.29L6.3,12.29z"/>
	<path class="st0" d="M6.16,6.97L3.31,8.86l0.08,3.38C3.38,12.23,5.82,10.23,6.16,6.97L6.16,6.97z"/>
	<path class="st2" d="M3.37,12.23L3.31,8.86L0.3,7.32C0.3,7.32,0.73,10.3,3.37,12.23L3.37,12.23z"/>
	<path class="st1" d="M0.31,7.31l3,1.54l2.84-1.89C6.15,6.96,3.27,5.91,0.31,7.31L0.31,7.31z"/>
	<path class="st2" d="M9.37,0.14L8.9,3.52l2.59,2.17C11.5,5.69,11.6,2.54,9.37,0.14L9.37,0.14z"/>
	<path class="st0" d="M11.49,5.7L8.91,3.52L5.77,4.77C5.77,4.77,8.29,6.41,11.49,5.7L11.49,5.7z"/>
	<path class="st1" d="M5.76,4.76L8.9,3.52l0.45-3.38C9.35,0.13,6.66,1.61,5.76,4.76L5.76,4.76z"/>
	<path class="st0" d="M18.7,6.29l-3.26,1.01l-0.87,3.26C14.57,10.56,17.47,9.32,18.7,6.29L18.7,6.29z"/>
	<path class="st1" d="M14.55,10.56l0.89-3.26l-2.46-2.32C12.98,4.98,12.56,7.95,14.55,10.56L14.55,10.56z"/>
	<path class="st2" d="M12.99,4.97l2.45,2.32l3.26-1.02C18.7,6.27,16.23,4.46,12.99,4.97L12.99,4.97z"/>
	<path class="st0" d="M15.5,17.64l-1.29-3.16l-3.33-0.59C10.88,13.89,12.36,16.68,15.5,17.64L15.5,17.64z"/>
	<path class="st1" d="M10.89,13.88l3.32,0.6l2.1-2.65C16.31,11.83,13.31,11.67,10.89,13.88L10.89,13.88z"/>
	<path class="st2" d="M16.32,11.84l-2.1,2.64l1.3,3.16C15.51,17.64,17.11,15.02,16.32,11.84L16.32,11.84z"/>
</g>
</svg>
