<?xml version="1.0" encoding="utf-8"?>
<!-- Generator: Adobe Illustrator 26.0.2, SVG Export Plug-In . SVG Version: 6.00 Build 0)  -->
<svg version="1.1" id="Layer_1" xmlns="http://www.w3.org/2000/svg" xmlns:xlink="http://www.w3.org/1999/xlink" x="0px" y="0px"
	 viewBox="0 0 22 35" style="enable-background:new 0 0 22 35;" xml:space="preserve">
<style type="text/css">
	.st0{fill:#EEFFFF;}
	.st1{fill:#B6C1BC;}
	.st2{fill:#0644FF;}
</style>
<g>
	<rect class="st0" width="22" height="35"/>
	<g>
		<path class="st1" d="M10.23,27.47c-0.34,0-0.67-0.13-0.92-0.38l-5.39-5.33c-0.51-0.51-0.52-1.34-0.01-1.85
			c0.51-0.51,1.13-0.19,1.64,0.31l3.74,3.1c0.1,0.1,0.27,0.07,0.32-0.06c1.75-3.93,5.24-12.23,8.39-14.42
			c0.59-0.41,1.37-0.4,1.84,0.15c0.47,0.55,0.4,1.38-0.15,1.84c-2.42,2.06-6.73,12.25-8.27,15.84c-0.17,0.4-0.53,0.69-0.95,0.77
			C10.4,27.46,10.31,27.47,10.23,27.47z"/>
		<path class="st2" d="M8.78,26.04c-0.34,0-0.67-0.13-0.92-0.38l-5.63-5.55c-0.51-0.51-0.52-1.34-0.01-1.85
			c0.51-0.51,1.33-0.52,1.85-0.01l4.33,4c0.1,0.1,0.27,0.07,0.32-0.06c1.75-3.93,4.88-12.18,8.03-14.37
			c0.59-0.41,1.37-0.4,1.84,0.15c0.47,0.55,0.4,1.38-0.15,1.84c-2.42,2.06-6.93,11.84-8.46,15.43c-0.17,0.4-0.53,0.69-0.95,0.77
			C8.94,26.03,8.86,26.04,8.78,26.04z"/>
	</g>
</g>
</svg>
