<?xml version="1.0" encoding="utf-8"?>
<!-- Generator: Adobe Illustrator 26.0.2, SVG Export Plug-In . SVG Version: 6.00 Build 0)  -->
<svg version="1.1" id="Layer_1" xmlns="http://www.w3.org/2000/svg" xmlns:xlink="http://www.w3.org/1999/xlink" x="0px" y="0px"
	 viewBox="0 0 12 6" style="enable-background:new 0 0 12 6;" xml:space="preserve">
<style type="text/css">
	.st0{fill:#EEFFFF;}
	.st1{fill:#01757D;}
	.st2{fill:#80BFC3;}
</style>
<g>
	<rect x="-0.01" class="st0" width="12" height="5.99"/>
	<polygon class="st1" points="11,0 0.98,0 0.98,1 1.98,1 1.98,2 2.98,2 2.98,3 3.98,3 3.98,3.99 4.99,3.99 4.99,5 7,5 7,3.99 
		7.99,3.99 7.99,3 9,3 9,2 10.03,2 10.03,1 11,1 	"/>
	<g>
		<rect x="-0.01" class="st2" width="0.99" height="1"/>
		<rect x="0.98" y="1" class="st2" width="0.99" height="1"/>
		<rect x="10.01" y="0.99" class="st2" width="0.99" height="0.99"/>
		<rect x="9" y="2" class="st2" width="0.99" height="1"/>
		<rect x="1.98" y="2" class="st2" width="1" height="0.99"/>
		<rect x="2.98" y="3" class="st2" width="1.01" height="0.99"/>
		<rect x="7.99" y="3" class="st2" width="1.01" height="0.99"/>
		<rect x="7" y="3.99" class="st2" width="0.99" height="1.01"/>
		<rect x="3.99" y="3.99" class="st2" width="0.99" height="1.01"/>
		<rect x="4.99" y="5" class="st2" width="2.02" height="0.99"/>
		<rect x="11" class="st2" width="0.99" height="0.99"/>
	</g>
</g>
</svg>
