<?xml version="1.0" encoding="utf-8"?>
<!-- Generator: Adobe Illustrator 26.0.2, SVG Export Plug-In . SVG Version: 6.00 Build 0)  -->
<svg version="1.1" id="Layer_1" xmlns="http://www.w3.org/2000/svg" xmlns:xlink="http://www.w3.org/1999/xlink" x="0px" y="0px"
	 viewBox="0 0 43 36" style="enable-background:new 0 0 43 36;" xml:space="preserve">
<style type="text/css">
	.st0{fill:url(#SVGID_1_);}
	.st1{fill:url(#SVGID_00000064330622282053045730000011944738604453163677_);}
	
		.st2{fill:url(#SVGID_00000119815911628335759170000017935224776339986604_);stroke:#FFFFFF;stroke-width:0.5;stroke-miterlimit:10;}
	.st3{fill:#FFFFFF;}
	.st4{fill:#003C41;}
</style>
<g>
	<g>
		<linearGradient id="SVGID_1_" gradientUnits="userSpaceOnUse" x1="8.777" y1="10.3233" x2="35.1917" y2="10.3233">
			<stop  offset="0" style="stop-color:#01757D"/>
			<stop  offset="1" style="stop-color:#001D1F"/>
		</linearGradient>
		<rect x="8.78" y="2.25" class="st0" width="26.41" height="16.15"/>
		
			<linearGradient id="SVGID_00000070079795382938953400000017013402837379474103_" gradientUnits="userSpaceOnUse" x1="13.5156" y1="13.2139" x2="38.1756" y2="13.2139">
			<stop  offset="0" style="stop-color:#01757D"/>
			<stop  offset="0.0544" style="stop-color:#016971"/>
			<stop  offset="0.2089" style="stop-color:#014E53"/>
			<stop  offset="0.373" style="stop-color:#00383C"/>
			<stop  offset="0.5487" style="stop-color:#00292C"/>
			<stop  offset="0.7444" style="stop-color:#002022"/>
			<stop  offset="1" style="stop-color:#001D1F"/>
		</linearGradient>
		<polygon style="fill:url(#SVGID_00000070079795382938953400000017013402837379474103_);" points="36.14,5.24 36.14,19.21 
			13.52,19.21 13.52,21.19 36.14,21.19 38.18,21.19 38.18,5.24 		"/>
	</g>
	
		<linearGradient id="SVGID_00000157301142882545506820000003076762450520968118_" gradientUnits="userSpaceOnUse" x1="4.8244" y1="14.6933" x2="20.4651" y2="14.6933">
		<stop  offset="0" style="stop-color:#01757D"/>
		<stop  offset="1" style="stop-color:#001D1F"/>
	</linearGradient>
	
		<circle style="fill:url(#SVGID_00000157301142882545506820000003076762450520968118_);stroke:#FFFFFF;stroke-width:0.5;stroke-miterlimit:10;" cx="12.64" cy="14.69" r="7.82"/>
	<polygon class="st3" points="16.15,11.25 14.13,11.25 14.13,13.28 13.14,13.28 13.14,15.28 12.14,15.27 12.14,13.28 11.16,13.28 
		11.16,11.25 9.14,11.25 9.13,12.28 10.13,12.28 10.13,13.29 11.13,13.29 11.13,15.28 10.13,15.28 10.13,16.28 11.13,16.28 
		12.12,16.28 12.13,16.28 12.13,17.28 10.13,17.28 10.13,18.29 12.13,18.29 12.13,20.29 13.14,20.29 13.14,18.29 15.14,18.29 
		15.14,17.28 13.14,17.28 13.14,16.28 14.13,16.28 15.14,16.28 15.14,15.28 14.13,15.28 14.14,13.29 15.16,13.29 15.16,12.28 
		16.16,12.28 	"/>
	<path class="st3" d="M31.13,8.26V6.22h-2.01V5.23h-0.97v0.99h-1.03v1.02h-0.98v2.99h2.01v2.96h-1.02V12.2h-0.99v2.04h2.01v1.99
		h0.97v-1.99h1.03v-1.02h0.98v-2.99h-2.01V7.27h1.02v0.99H31.13z M30.14,11.28v1.91h-1.02v-1.91H30.14z M28.14,9.18h-1.02V7.27h1.02
		V9.18z"/>
	<g>
		<path class="st4" d="M12.86,33.63h-1.18v-7.67H8.78v-0.96h6.98v0.96h-2.89V33.63z"/>
		<path class="st4" d="M22.44,31.33c0,0.75-0.29,1.34-0.88,1.78c-0.59,0.43-1.4,0.65-2.44,0.65c-1.1,0-1.96-0.14-2.56-0.41v-1.04
			c0.39,0.16,0.83,0.28,1.3,0.37s0.91,0.14,1.31,0.14c0.7,0,1.22-0.12,1.57-0.37c0.35-0.25,0.53-0.59,0.53-1.02
			c0-0.29-0.06-0.52-0.19-0.71c-0.13-0.18-0.34-0.36-0.64-0.52c-0.3-0.16-0.75-0.34-1.36-0.55c-0.86-0.29-1.48-0.63-1.85-1.03
			c-0.37-0.4-0.55-0.91-0.55-1.53c0-0.67,0.27-1.21,0.82-1.6s1.26-0.6,2.15-0.6c0.93,0,1.78,0.16,2.57,0.48l-0.36,0.93
			c-0.8-0.31-1.54-0.46-2.23-0.46c-0.55,0-0.98,0.11-1.3,0.33c-0.31,0.22-0.47,0.53-0.47,0.93c0,0.28,0.06,0.52,0.18,0.71
			c0.12,0.19,0.32,0.36,0.59,0.51c0.27,0.15,0.69,0.33,1.27,0.52c0.69,0.24,1.21,0.47,1.55,0.69c0.34,0.22,0.59,0.48,0.75,0.77
			C22.36,30.58,22.44,30.92,22.44,31.33z"/>
		<path class="st4" d="M28.43,33.63l-3.07-7.56h-0.05c0.06,0.63,0.09,1.41,0.09,2.33v5.23h-1.08v-8.63h1.73l2.87,7.07h0.05
			l2.92-7.07h1.72v8.63h-1.16v-5.3c0-0.59,0.03-1.34,0.09-2.25H32.5l-3.11,7.55H28.43z"/>
	</g>
</g>
</svg>
