<?xml version="1.0" encoding="utf-8"?>
<!-- Generator: Adobe Illustrator 26.0.2, SVG Export Plug-In . SVG Version: 6.00 Build 0)  -->
<svg version="1.1" id="Layer_1" xmlns="http://www.w3.org/2000/svg" xmlns:xlink="http://www.w3.org/1999/xlink" x="0px" y="0px"
	 viewBox="0 0 43 36" style="enable-background:new 0 0 43 36;" xml:space="preserve">
<style type="text/css">
	.st0{fill:#003C42;}
	.st1{fill:url(#SVGID_1_);}
	.st2{fill:url(#SVGID_00000138573603978851884950000001769805820684504467_);}
	
		.st3{fill:url(#SVGID_00000090264604587405307740000007223910582915052717_);stroke:#FFFFFF;stroke-width:0.5;stroke-miterlimit:10;}
	.st4{fill:#FFFFFF;}
</style>
<g>
	<g>
		<path class="st0" d="M14.12,34.57h-1.08v-7.62h-2.68V26h6.42v0.95h-2.66V34.57z"/>
		<path class="st0" d="M24.19,32.27c0,0.75-0.27,1.33-0.81,1.76s-1.29,0.64-2.25,0.64c-1.02,0-1.8-0.13-2.36-0.4v-1.03
			c0.36,0.16,0.76,0.28,1.19,0.37s0.83,0.13,1.21,0.13c0.64,0,1.12-0.12,1.45-0.37s0.49-0.58,0.49-1.01c0-0.29-0.06-0.52-0.18-0.7
			s-0.31-0.36-0.59-0.52s-0.69-0.34-1.25-0.54c-0.79-0.29-1.36-0.63-1.7-1.02s-0.51-0.9-0.51-1.52c0-0.67,0.25-1.2,0.75-1.59
			s1.16-0.59,1.98-0.59c0.86,0,1.64,0.16,2.36,0.48l-0.33,0.93c-0.73-0.3-1.42-0.46-2.05-0.46c-0.51,0-0.91,0.11-1.19,0.33
			s-0.43,0.53-0.43,0.92c0,0.28,0.06,0.51,0.17,0.7s0.29,0.35,0.54,0.51s0.64,0.33,1.17,0.52c0.64,0.23,1.11,0.46,1.42,0.68
			s0.54,0.47,0.69,0.76S24.19,31.88,24.19,32.27z"/>
		<path class="st0" d="M29.81,34.57h-1.08v-7.62h-2.68V26h6.42v0.95h-2.66V34.57z"/>
	</g>
	<g>
		<linearGradient id="SVGID_1_" gradientUnits="userSpaceOnUse" x1="7.4337" y1="11.1318" x2="33.8484" y2="11.1318">
			<stop  offset="0" style="stop-color:#01757D"/>
			<stop  offset="1" style="stop-color:#001D1F"/>
		</linearGradient>
		<rect x="7.43" y="3.06" class="st1" width="26.41" height="16.15"/>
		
			<linearGradient id="SVGID_00000005263390789773491150000001930849836140889227_" gradientUnits="userSpaceOnUse" x1="12.1723" y1="14.0225" x2="36.8324" y2="14.0225">
			<stop  offset="0" style="stop-color:#01757D"/>
			<stop  offset="0.0544" style="stop-color:#016971"/>
			<stop  offset="0.2089" style="stop-color:#014E53"/>
			<stop  offset="0.373" style="stop-color:#00383C"/>
			<stop  offset="0.5487" style="stop-color:#00292C"/>
			<stop  offset="0.7444" style="stop-color:#002022"/>
			<stop  offset="1" style="stop-color:#001D1F"/>
		</linearGradient>
		<polygon style="fill:url(#SVGID_00000005263390789773491150000001930849836140889227_);" points="34.8,6.05 34.8,20.02 
			12.17,20.02 12.17,22 34.8,22 36.83,22 36.83,6.05 		"/>
	</g>
	
		<linearGradient id="SVGID_00000075879017022323477450000002786455059140321199_" gradientUnits="userSpaceOnUse" x1="3.4811" y1="15.5018" x2="19.1218" y2="15.5018">
		<stop  offset="0" style="stop-color:#01757D"/>
		<stop  offset="1" style="stop-color:#001D1F"/>
	</linearGradient>
	
		<circle style="fill:url(#SVGID_00000075879017022323477450000002786455059140321199_);stroke:#FFFFFF;stroke-width:0.5;stroke-miterlimit:10;" cx="11.3" cy="15.5" r="7.82"/>
	<polygon class="st4" points="14.81,12.06 12.79,12.06 12.79,14.08 11.8,14.08 11.8,16.08 10.8,16.08 10.8,14.08 9.81,14.08 
		9.81,12.06 7.8,12.06 7.79,13.09 8.79,13.09 8.79,14.1 9.79,14.1 9.79,16.08 8.79,16.08 8.79,17.08 9.79,17.08 10.78,17.08 
		10.79,17.08 10.79,18.08 8.79,18.08 8.79,19.1 10.79,19.1 10.79,21.09 11.8,21.09 11.8,19.1 13.8,19.1 13.8,18.08 11.8,18.08 
		11.8,17.08 12.79,17.08 13.8,17.08 13.8,16.08 12.79,16.08 12.8,14.1 13.81,14.1 13.82,13.09 14.81,13.09 	"/>
	<path class="st4" d="M29.78,9.07V7.03h-2.01V6.04H26.8v0.99h-1.03v1.02h-0.98v2.99h2.01V14h-1.02v-0.99h-0.99v2.04h2.01v1.99h0.97
		v-1.99h1.03v-1.02h0.98v-2.99h-2.01V8.08h1.02v0.99H29.78z M28.8,12.09V14h-1.02v-1.91H28.8z M26.8,9.99h-1.02V8.08h1.02V9.99z"/>
</g>
</svg>
