<?xml version="1.0" encoding="utf-8"?>
<!-- Generator: Adobe Illustrator 26.0.2, SVG Export Plug-In . SVG Version: 6.00 Build 0)  -->
<svg version="1.1" id="Layer_1" xmlns="http://www.w3.org/2000/svg" xmlns:xlink="http://www.w3.org/1999/xlink" x="0px" y="0px"
	 viewBox="0 0 30 22" style="enable-background:new 0 0 30 22;" xml:space="preserve">
<style type="text/css">
	.st0{fill:#FFFFFF;}
	.st1{fill:#64D6FF;}
</style>
<g>
	<path class="st0" d="M22.97,11.92h-1.6c0.01-0.66-0.1-1.34-0.39-2.02H4.96c0,0-0.04,0.84,0.14,2.02H4v1.04h1.31
		c0.51,2.08,1.73,4.68,4.69,6.02l6.74-0.06c0,0,3.82-2.61,4.52-5.97h1.71V11.92z"/>
	<circle cx="10" cy="13.94" r="0.95"/>
	<circle cx="15.95" cy="13.94" r="0.95"/>
	<g>
		<path class="st0" d="M20.09,8.75c0,0,3.2-2.28,4.04-3.63"/>
		<path class="st1" d="M24.39,4.69c-0.24-0.14-0.54-0.07-0.69,0.16c-0.54,0.88-2.22,2.45-3.24,3.29c-1.23-3.11-3.92-5.41-7.34-5.41
			c-3.96,0-7.27,3.35-8.16,7.17c2.39,0.69,7.27,2.52,16.03,0c-0.07-0.34-0.16-0.67-0.26-1c0.68-0.5,3.06-2.28,3.83-3.53
			C24.69,5.14,24.62,4.84,24.39,4.69z"/>
	</g>
</g>
</svg>
