<?xml version="1.0" encoding="utf-8"?>
<!-- Generator: Adobe Illustrator 26.0.2, SVG Export Plug-In . SVG Version: 6.00 Build 0)  -->
<svg version="1.1" id="Layer_1" xmlns="http://www.w3.org/2000/svg" xmlns:xlink="http://www.w3.org/1999/xlink" x="0px" y="0px"
	 viewBox="0 0 35 20" style="enable-background:new 0 0 35 20;" xml:space="preserve">
<style type="text/css">
	.st0{fill:url(#SVGID_1_);}
	.st1{fill:#FFFFFF;}
</style>
<g>
	<linearGradient id="SVGID_1_" gradientUnits="userSpaceOnUse" x1="9.2862" y1="1.5086" x2="9.2862" y2="19.5908">
		<stop  offset="0" style="stop-color:#FFFFFF"/>
		<stop  offset="1" style="stop-color:#ABC2C4"/>
	</linearGradient>
	<path class="st0" d="M15.38,8.04l-4.82-6.54L5.49,8.04h2.7c0,0.9,0,2.42,0,3.39c0,1.46-0.99,4.72-5,7.4c0,0,10-2.88,10-8.84
		c0-0.85,0-1.48,0-1.96H15.38z"/>
	<g>
		<path class="st1" d="M20.96,11.07v5.02c0,0.88-0.22,1.58-0.66,2.08s-1.04,0.76-1.82,0.76c-0.77,0-1.36-0.26-1.79-0.77
			c-0.42-0.51-0.63-1.21-0.63-2.1v-5h0.8v5.03c0,0.63,0.14,1.12,0.42,1.47c0.28,0.35,0.69,0.52,1.25,0.52
			c0.52,0,0.93-0.17,1.21-0.51s0.42-0.84,0.42-1.48v-5.02H20.96z"/>
		<path class="st1" d="M27.41,13.46c0,0.79-0.24,1.4-0.72,1.82s-1.15,0.63-2.02,0.63h-0.79v3.02h-0.86v-7.75h1.82
			C26.55,11.18,27.41,11.94,27.41,13.46z M23.88,15.08h0.69c0.68,0,1.18-0.12,1.48-0.37c0.31-0.25,0.46-0.65,0.46-1.2
			c0-0.5-0.14-0.87-0.43-1.12c-0.28-0.25-0.73-0.37-1.33-0.37h-0.87V15.08z"/>
		<path class="st1" d="M31.63,14.79H34v3.8c-0.36,0.13-0.73,0.23-1.11,0.3c-0.38,0.07-0.81,0.1-1.3,0.1c-1.04,0-1.85-0.35-2.43-1.05
			c-0.57-0.7-0.86-1.68-0.86-2.93c0-0.81,0.14-1.52,0.43-2.12c0.28-0.6,0.7-1.07,1.23-1.39c0.54-0.32,1.17-0.48,1.9-0.48
			c0.73,0,1.41,0.15,2.05,0.46l-0.33,0.85c-0.6-0.3-1.19-0.45-1.77-0.45c-0.82,0-1.45,0.28-1.91,0.84
			c-0.46,0.56-0.69,1.32-0.69,2.29c0,1.03,0.22,1.8,0.66,2.34c0.44,0.53,1.08,0.8,1.92,0.8c0.46,0,0.91-0.06,1.35-0.19v-2.3h-1.51
			V14.79z"/>
	</g>
</g>
</svg>
