<?xml version="1.0" encoding="utf-8"?>
<!-- Generator: Adobe Illustrator 26.0.2, SVG Export Plug-In . SVG Version: 6.00 Build 0)  -->
<svg version="1.1" id="Layer_1" xmlns="http://www.w3.org/2000/svg" xmlns:xlink="http://www.w3.org/1999/xlink" x="0px" y="0px"
	 viewBox="0 0 46 30" style="enable-background:new 0 0 46 30;" xml:space="preserve">
<style type="text/css">
	.st0{fill:url(#SVGID_1_);stroke:#515151;stroke-miterlimit:10;}
	.st1{fill:#FFFFFF;stroke:#FFFFFF;stroke-width:2;stroke-miterlimit:10;}
</style>
<g>
	<linearGradient id="SVGID_1_" gradientUnits="userSpaceOnUse" x1="23" y1="2.9404" x2="23" y2="27.788">
		<stop  offset="0.1611" style="stop-color:#D3D3D3"/>
		<stop  offset="0.9871" style="stop-color:#767676"/>
	</linearGradient>
	<path class="st0" d="M34.64,27.54H11.36c-5.78,0-10.5-4.73-10.5-10.5v-3.59c0-5.78,4.73-10.5,10.5-10.5h23.27
		c5.78,0,10.5,4.73,10.5,10.5v3.59C45.14,22.82,40.41,27.54,34.64,27.54z"/>
	<g>
		<path class="st1" d="M18.23,8.88c-1.9,0-3.4,0.56-4.49,1.67c-1.09,1.12-1.63,2.64-1.63,4.57c0,2,0.53,3.54,1.58,4.62
			c1.06,1.08,2.56,1.62,4.51,1.62c1.26,0,2.67-0.21,4.25-0.61v1.69c-0.75,0.24-1.47,0.4-2.17,0.49c-0.69,0.09-1.49,0.13-2.39,0.13
			c-2.6,0-4.61-0.7-6.02-2.08c-1.41-1.39-2.11-3.35-2.11-5.89c0-1.6,0.34-2.99,1.01-4.19c0.67-1.2,1.65-2.12,2.94-2.77
			c1.28-0.65,2.8-0.97,4.54-0.97c1.87,0,3.5,0.3,4.89,0.91l-0.89,1.65C20.83,9.16,19.49,8.88,18.23,8.88z"/>
		<path class="st1" d="M36.09,22.86H25.06v-1.65l4.23-4.03c0.61-0.57,1.15-1.1,1.62-1.57c0.48-0.47,0.88-0.94,1.22-1.39
			c0.33-0.45,0.59-0.91,0.76-1.36c0.18-0.45,0.27-0.95,0.27-1.49c0-0.42-0.07-0.78-0.21-1.1c-0.14-0.32-0.33-0.59-0.59-0.81
			c-0.25-0.22-0.55-0.39-0.9-0.5c-0.35-0.11-0.74-0.17-1.16-0.17c-0.77,0-1.46,0.14-2.08,0.41c-0.62,0.27-1.2,0.62-1.76,1.04
			l-1.23-1.26c0.32-0.25,0.67-0.49,1.04-0.72c0.37-0.22,0.77-0.41,1.2-0.58c0.43-0.16,0.88-0.29,1.36-0.39
			c0.47-0.1,0.97-0.14,1.5-0.14c0.77,0,1.47,0.1,2.1,0.29c0.63,0.19,1.16,0.46,1.59,0.82c0.43,0.36,0.77,0.79,1.01,1.3
			c0.24,0.51,0.36,1.09,0.36,1.73c0,0.6-0.11,1.17-0.32,1.71c-0.21,0.54-0.51,1.08-0.88,1.6c-0.37,0.53-0.82,1.05-1.34,1.58
			c-0.52,0.53-1.08,1.08-1.69,1.65l-3.4,3.16v0.08h8.34V22.86z"/>
	</g>
	<g>
		<path d="M18.23,9c-1.9,0-3.4,0.56-4.49,1.67c-1.09,1.12-1.63,2.64-1.63,4.57c0,2,0.53,3.54,1.58,4.62
			c1.06,1.08,2.56,1.62,4.51,1.62c1.26,0,2.67-0.21,4.25-0.61v1.69c-0.75,0.24-1.47,0.4-2.17,0.49c-0.69,0.09-1.49,0.13-2.39,0.13
			c-2.6,0-4.61-0.7-6.02-2.08c-1.41-1.39-2.11-3.35-2.11-5.89c0-1.6,0.34-2.99,1.01-4.19c0.67-1.2,1.65-2.12,2.94-2.77
			c1.28-0.65,2.8-0.97,4.54-0.97c1.87,0,3.5,0.3,4.89,0.91l-0.89,1.65C20.83,9.28,19.49,9,18.23,9z"/>
		<path d="M36.09,22.86H25.06v-1.65l4.23-4.03c0.61-0.57,1.15-1.1,1.62-1.57c0.48-0.47,0.88-0.94,1.22-1.39
			c0.33-0.45,0.59-0.91,0.76-1.36c0.18-0.45,0.27-0.95,0.27-1.49c0-0.42-0.07-0.78-0.21-1.1c-0.14-0.32-0.33-0.59-0.59-0.81
			c-0.25-0.22-0.55-0.39-0.9-0.5c-0.35-0.11-0.74-0.17-1.16-0.17c-0.77,0-1.46,0.14-2.08,0.41c-0.62,0.27-1.2,0.62-1.76,1.04
			l-1.23-1.26c0.32-0.25,0.67-0.49,1.04-0.72c0.37-0.22,0.77-0.41,1.2-0.58c0.43-0.16,0.88-0.29,1.36-0.39
			c0.47-0.1,0.97-0.14,1.5-0.14c0.77,0,1.47,0.1,2.1,0.29c0.63,0.19,1.16,0.46,1.59,0.82c0.43,0.36,0.77,0.79,1.01,1.3
			c0.24,0.51,0.36,1.09,0.36,1.73c0,0.6-0.11,1.17-0.32,1.71c-0.21,0.54-0.51,1.08-0.88,1.6c-0.37,0.53-0.82,1.05-1.34,1.58
			c-0.52,0.53-1.08,1.08-1.69,1.65l-3.4,3.16v0.08h8.34V22.86z"/>
	</g>
</g>
</svg>
