<?xml version="1.0" encoding="utf-8"?>
<!-- Generator: Adobe Illustrator 26.0.2, SVG Export Plug-In . SVG Version: 6.00 Build 0)  -->
<svg version="1.1" id="Layer_1" xmlns="http://www.w3.org/2000/svg" xmlns:xlink="http://www.w3.org/1999/xlink" x="0px" y="0px"
	 viewBox="0 0 46 30" style="enable-background:new 0 0 46 30;" xml:space="preserve">
<style type="text/css">
	.st0{fill:url(#SVGID_1_);stroke:#515151;stroke-miterlimit:10;}
	.st1{fill:#FFFFFF;stroke:#FFFFFF;stroke-miterlimit:10;}
</style>
<g>
	<linearGradient id="SVGID_1_" gradientUnits="userSpaceOnUse" x1="23" y1="1.7302" x2="23" y2="28.5342">
		<stop  offset="0.1611" style="stop-color:#D3D3D3"/>
		<stop  offset="0.9871" style="stop-color:#767676"/>
	</linearGradient>
	<path class="st0" d="M34.38,28.27H11.62c-6.03,0-10.96-4.93-10.96-10.96v-4.62c0-6.03,4.93-10.96,10.96-10.96h22.76
		c6.03,0,10.96,4.93,10.96,10.96v4.62C45.34,23.34,40.41,28.27,34.38,28.27z"/>
	<path class="st1" d="M22.42,21.14c-0.78,0.32-2.33,0.64-4.32,0.64c-4.61,0-8.08-2.4-8.08-6.83c0-4.22,3.47-7.09,8.54-7.09
		c2.04,0,3.32,0.36,3.88,0.6l-0.51,1.42c-0.8-0.32-1.94-0.56-3.3-0.56c-3.83,0-6.38,2.02-6.38,5.57c0,3.3,2.3,5.43,6.28,5.43
		c1.29,0,2.6-0.22,3.44-0.56L22.42,21.14z"/>
	<polygon class="st1" points="31.61,19.7 31.61,8.36 29.47,8.36 29.47,9.67 28.49,9.67 28.49,10.75 26.16,10.75 26.16,11.84 
		28.9,11.84 28.95,19.7 26.27,19.7 26.27,21.78 28.95,21.78 31.01,21.78 34.81,21.78 34.81,19.7 	"/>
	<g>
		<path d="M21.85,20.91c-0.73,0.31-2.18,0.62-4.04,0.62c-4.31,0-7.56-2.32-7.56-6.59c0-4.08,3.25-6.84,7.99-6.84
			c1.91,0,3.11,0.35,3.63,0.58l-0.48,1.37c-0.75-0.31-1.81-0.54-3.09-0.54c-3.59,0-5.97,1.95-5.97,5.37c0,3.19,2.16,5.24,5.88,5.24
			c1.2,0,2.43-0.21,3.22-0.54L21.85,20.91z"/>
		<polygon points="31.54,19.39 31.54,8.77 29.54,8.77 29.54,9.99 28.62,9.99 28.62,11.01 26.44,11.01 26.44,12.03 29,12.03 
			29.05,19.39 26.53,19.39 26.53,21.33 29.05,21.33 30.98,21.33 34.54,21.33 34.54,19.39 		"/>
	</g>
</g>
</svg>
