<?xml version="1.0" encoding="utf-8"?>
<!-- Generator: Adobe Illustrator 26.0.2, SVG Export Plug-In . SVG Version: 6.00 Build 0)  -->
<svg version="1.1" id="Layer_1" xmlns="http://www.w3.org/2000/svg" xmlns:xlink="http://www.w3.org/1999/xlink" x="0px" y="0px"
	 viewBox="0 0 46 30" style="enable-background:new 0 0 46 30;" xml:space="preserve">
<style type="text/css">
	.st0{fill:url(#SVGID_1_);stroke:#8C5C01;stroke-miterlimit:10;}
	.st1{fill:#FFFFFF;stroke:#FFFFFF;stroke-width:2;stroke-miterlimit:10;}
	.st2{fill:#332905;}
</style>
<g>
	<linearGradient id="SVGID_1_" gradientUnits="userSpaceOnUse" x1="23" y1="2.8079" x2="23" y2="27.435">
		<stop  offset="0.1611" style="stop-color:#FFFB69"/>
		<stop  offset="0.9859" style="stop-color:#F79801"/>
	</linearGradient>
	<path class="st0" d="M32.75,27.19h-19.5C6.54,27.19,1.06,21.71,1.06,15v0c0-6.71,5.49-12.19,12.19-12.19h19.5
		c6.71,0,12.19,5.49,12.19,12.19v0C44.94,21.71,39.46,27.19,32.75,27.19z"/>
	<g>
		<g>
			<g>
				<path class="st1" d="M17.95,16.73c-0.4,1.12-1.27,1.04-1.64,0.03l-2.92-7.98h-1.71l4.63,12.43h1.64l4.63-12.43h-1.73
					L17.95,16.73z"/>
			</g>
		</g>
		<path class="st2" d="M16.05,21.22L11.98,8.78h1.74l1.94,6.13c0.54,1.68,1,3.19,1.33,4.65h0.04c0.35-1.44,0.87-3.01,1.42-4.63
			l2.11-6.15h1.72l-4.45,12.44H16.05z"/>
		<g>
			<path class="st1" d="M33.87,11.88c0,0.39-0.08,0.75-0.23,1.07c-0.15,0.32-0.37,0.6-0.64,0.84c-0.28,0.24-0.61,0.43-0.99,0.58
				c-0.39,0.15-0.81,0.26-1.29,0.33v0.05c1.18,0.12,2.07,0.42,2.68,0.9s0.92,1.12,0.92,1.89c0,0.51-0.11,0.99-0.32,1.41
				s-0.54,0.8-0.98,1.11c-0.44,0.31-0.99,0.55-1.66,0.72c-0.67,0.17-1.47,0.26-2.38,0.26c-0.72,0-1.41-0.05-2.05-0.14
				c-0.64-0.09-1.24-0.26-1.81-0.5v-1.37c0.58,0.25,1.2,0.44,1.88,0.57c0.67,0.13,1.32,0.2,1.94,0.2c0.61,0,1.14-0.05,1.58-0.16
				c0.45-0.11,0.81-0.26,1.1-0.46s0.5-0.44,0.64-0.73c0.14-0.29,0.2-0.61,0.2-0.97c0-0.36-0.09-0.68-0.26-0.94s-0.43-0.47-0.75-0.64
				c-0.33-0.17-0.72-0.29-1.19-0.37c-0.47-0.08-1-0.12-1.59-0.12h-1.33V14.2h1.33c0.54,0,1.02-0.05,1.44-0.16
				c0.42-0.11,0.77-0.26,1.05-0.46s0.5-0.43,0.64-0.71c0.15-0.27,0.22-0.57,0.22-0.9c0-0.28-0.06-0.53-0.18-0.75
				c-0.12-0.22-0.29-0.41-0.51-0.56c-0.22-0.15-0.48-0.27-0.79-0.35c-0.31-0.08-0.64-0.12-1.02-0.12c-0.71,0-1.34,0.09-1.88,0.27
				c-0.54,0.18-1.06,0.41-1.55,0.7l-0.92-1c0.25-0.17,0.53-0.32,0.84-0.47c0.31-0.14,0.65-0.27,1.01-0.38s0.76-0.2,1.17-0.26
				c0.42-0.06,0.86-0.1,1.32-0.1c0.72,0,1.35,0.07,1.89,0.22c0.54,0.15,1,0.35,1.36,0.61c0.37,0.26,0.64,0.57,0.83,0.92
				C33.78,11.06,33.87,11.45,33.87,11.88z"/>
		</g>
		<g>
			<path class="st2" d="M33.87,11.88c0,0.39-0.08,0.75-0.23,1.07c-0.15,0.32-0.37,0.6-0.64,0.84c-0.28,0.24-0.61,0.43-0.99,0.58
				c-0.39,0.15-0.81,0.26-1.29,0.33v0.05c1.18,0.12,2.07,0.42,2.68,0.9s0.92,1.12,0.92,1.89c0,0.51-0.11,0.99-0.32,1.41
				s-0.54,0.8-0.98,1.11c-0.44,0.31-0.99,0.55-1.66,0.72c-0.67,0.17-1.47,0.26-2.38,0.26c-0.72,0-1.41-0.05-2.05-0.14
				c-0.64-0.09-1.24-0.26-1.81-0.5v-1.37c0.58,0.25,1.2,0.44,1.88,0.57c0.67,0.13,1.32,0.2,1.94,0.2c0.61,0,1.14-0.05,1.58-0.16
				c0.45-0.11,0.81-0.26,1.1-0.46s0.5-0.44,0.64-0.73c0.14-0.29,0.2-0.61,0.2-0.97c0-0.36-0.09-0.68-0.26-0.94s-0.43-0.47-0.75-0.64
				c-0.33-0.17-0.72-0.29-1.19-0.37c-0.47-0.08-1-0.12-1.59-0.12h-1.33V14.2h1.33c0.54,0,1.02-0.05,1.44-0.16
				c0.42-0.11,0.77-0.26,1.05-0.46s0.5-0.43,0.64-0.71c0.15-0.27,0.22-0.57,0.22-0.9c0-0.28-0.06-0.53-0.18-0.75
				c-0.12-0.22-0.29-0.41-0.51-0.56c-0.22-0.15-0.48-0.27-0.79-0.35c-0.31-0.08-0.64-0.12-1.02-0.12c-0.71,0-1.34,0.09-1.88,0.27
				c-0.54,0.18-1.06,0.41-1.55,0.7l-0.92-1c0.25-0.17,0.53-0.32,0.84-0.47c0.31-0.14,0.65-0.27,1.01-0.38s0.76-0.2,1.17-0.26
				c0.42-0.06,0.86-0.1,1.32-0.1c0.72,0,1.35,0.07,1.89,0.22c0.54,0.15,1,0.35,1.36,0.61c0.37,0.26,0.64,0.57,0.83,0.92
				C33.78,11.06,33.87,11.45,33.87,11.88z"/>
		</g>
	</g>
</g>
</svg>
