<?xml version="1.0" encoding="utf-8"?>
<!-- Generator: Adobe Illustrator 26.0.2, SVG Export Plug-In . SVG Version: 6.00 Build 0)  -->
<svg version="1.1" id="Layer_1" xmlns="http://www.w3.org/2000/svg" xmlns:xlink="http://www.w3.org/1999/xlink" x="0px" y="0px"
	 viewBox="0 0 24 14" style="enable-background:new 0 0 24 14;" xml:space="preserve">
<style type="text/css">
	.st0{fill:url(#SVGID_1_);stroke:#8C5C01;stroke-miterlimit:10;}
	.st1{fill:#FFFFFF;stroke:#FFFFFF;stroke-miterlimit:10;}
	.st2{fill:#191507;}
</style>
<g>
	<g>
		<linearGradient id="SVGID_1_" gradientUnits="userSpaceOnUse" x1="12" y1="1" x2="12" y2="13.1195">
			<stop  offset="0.1611" style="stop-color:#FFFB69"/>
			<stop  offset="0.9859" style="stop-color:#F79801"/>
		</linearGradient>
		<path class="st0" d="M16.8,13H7.2c-3.3,0-6-2.7-6-6v0c0-3.3,2.7-6,6-6h9.6c3.3,0,6,2.7,6,6v0C22.8,10.3,20.1,13,16.8,13z"/>
	</g>
	<g>
		<path class="st1" d="M5.17,3.88h0.82l1.4,4c0.18,0.51,0.31-0.36,0.39,0.04c0.07-0.36,0.2,0.5,0.4-0.06l1.4-3.98h0.83l-2.23,6.24
			H7.4L5.17,3.88z"/>
		<path class="st1" d="M13.57,10.12h-2.25V9.67h0.73V4.33h-0.73V3.88h2.25v0.45h-0.73v5.33h0.73V10.12z"/>
		<path class="st1" d="M18.83,5.72c0,0.64-0.22,1.13-0.65,1.47s-1.05,0.51-1.84,0.51h-0.72v2.43h-0.79V3.88h1.65
			C18.05,3.88,18.83,4.49,18.83,5.72z M15.62,7.02h0.63c0.62,0,1.07-0.1,1.35-0.3c0.28-0.2,0.42-0.52,0.42-0.97
			c0-0.4-0.13-0.7-0.39-0.9c-0.26-0.2-0.66-0.3-1.21-0.3h-0.79V7.02z"/>
	</g>
	<g>
		<path class="st2" d="M5.17,3.88h0.82l1.4,4c0.18,0.51,0.31,0.96,0.39,1.36c0.07-0.36,0.2-0.82,0.4-1.38l1.4-3.98h0.83l-2.23,6.24
			H7.4L5.17,3.88z"/>
		<path class="st2" d="M13.57,10.12h-2.25V9.67h0.73V4.33h-0.73V3.88h2.25v0.45h-0.73v5.33h0.73V10.12z"/>
		<path class="st2" d="M18.83,5.72c0,0.64-0.22,1.13-0.65,1.47s-1.05,0.51-1.84,0.51h-0.72v2.43h-0.79V3.88h1.65
			C18.05,3.88,18.83,4.49,18.83,5.72z M15.62,7.02h0.63c0.62,0,1.07-0.1,1.35-0.3c0.28-0.2,0.42-0.52,0.42-0.97
			c0-0.4-0.13-0.7-0.39-0.9c-0.26-0.2-0.66-0.3-1.21-0.3h-0.79V7.02z"/>
	</g>
</g>
</svg>
