<?xml version="1.0" encoding="utf-8"?>
<!-- Generator: Adobe Illustrator 26.0.2, SVG Export Plug-In . SVG Version: 6.00 Build 0)  -->
<svg version="1.1" id="Layer_1" xmlns="http://www.w3.org/2000/svg" xmlns:xlink="http://www.w3.org/1999/xlink" x="0px" y="0px"
	 viewBox="0 0 24 14" style="enable-background:new 0 0 24 14;" xml:space="preserve">
<style type="text/css">
	.st0{fill:url(#SVGID_1_);stroke:#515151;stroke-miterlimit:10;}
	.st1{fill:#FFFFFF;stroke:#FFFFFF;stroke-miterlimit:10;}
</style>
<g>
	<linearGradient id="SVGID_1_" gradientUnits="userSpaceOnUse" x1="11.8958" y1="2.2228" x2="11.8958" y2="12.3823">
		<stop  offset="0.1611" style="stop-color:#D3D3D3"/>
		<stop  offset="0.9871" style="stop-color:#767676"/>
	</linearGradient>
	<path class="st0" d="M16.65,12.28H7.14c-2.36,0-4.3-1.93-4.3-4.3V6.52c0-2.36,1.93-4.3,4.3-4.3h9.51c2.36,0,4.3,1.93,4.3,4.3v1.47
		C20.95,10.35,19.02,12.28,16.65,12.28z"/>
	<g>
		<path class="st1" d="M9.97,4.7c-0.78,0-1.39,0.23-1.83,0.68C7.69,5.84,7.47,6.46,7.47,7.25c0,0.82,0.22,1.45,0.65,1.89
			c0.43,0.44,1.05,0.66,1.84,0.66c0.51,0,1.09-0.08,1.74-0.25v0.69c-0.31,0.1-0.6,0.17-0.89,0.2s-0.61,0.05-0.98,0.05
			c-1.06,0-1.89-0.28-2.46-0.85C6.8,9.09,6.51,8.28,6.51,7.25c0-0.65,0.14-1.22,0.41-1.71C7.2,5.04,7.6,4.66,8.13,4.4
			C8.65,4.13,9.27,4,9.98,4c0.77,0,1.43,0.12,2,0.37l-0.37,0.68C11.04,4.82,10.49,4.7,9.97,4.7z"/>
		<path class="st1" d="M17.28,10.42h-4.51V9.74l1.73-1.65c0.25-0.23,0.47-0.45,0.66-0.64c0.2-0.19,0.36-0.38,0.5-0.57
			s0.24-0.37,0.31-0.56c0.07-0.19,0.11-0.39,0.11-0.61c0-0.17-0.03-0.32-0.08-0.45c-0.06-0.13-0.13-0.24-0.24-0.33
			c-0.1-0.09-0.23-0.16-0.37-0.21c-0.14-0.05-0.3-0.07-0.47-0.07c-0.31,0-0.6,0.06-0.85,0.17c-0.25,0.11-0.49,0.25-0.72,0.43
			l-0.5-0.52c0.13-0.1,0.27-0.2,0.43-0.29c0.15-0.09,0.32-0.17,0.49-0.24c0.18-0.07,0.36-0.12,0.55-0.16C14.51,4.02,14.71,4,14.93,4
			c0.32,0,0.6,0.04,0.86,0.12c0.26,0.08,0.47,0.19,0.65,0.34c0.18,0.15,0.32,0.32,0.41,0.53c0.1,0.21,0.15,0.45,0.15,0.71
			c0,0.25-0.04,0.48-0.13,0.7c-0.09,0.22-0.21,0.44-0.36,0.66c-0.15,0.22-0.34,0.43-0.55,0.65c-0.21,0.22-0.44,0.44-0.69,0.68
			l-1.39,1.29V9.7h3.41V10.42z"/>
	</g>
	<g>
		<path d="M9.97,4.7c-0.78,0-1.39,0.23-1.83,0.68C7.69,5.84,7.47,6.46,7.47,7.25c0,0.82,0.22,1.45,0.65,1.89
			c0.43,0.44,1.05,0.66,1.84,0.66c0.51,0,1.09-0.08,1.74-0.25v0.69c-0.31,0.1-0.6,0.17-0.89,0.2s-0.61,0.05-0.98,0.05
			c-1.06,0-1.89-0.28-2.46-0.85C6.8,9.09,6.51,8.28,6.51,7.25c0-0.65,0.14-1.22,0.41-1.71C7.2,5.04,7.6,4.66,8.13,4.4
			C8.65,4.13,9.27,4,9.98,4c0.77,0,1.43,0.12,2,0.37l-0.37,0.68C11.04,4.82,10.49,4.7,9.97,4.7z"/>
		<path d="M17.28,10.42h-4.51V9.74l1.73-1.65c0.25-0.23,0.47-0.45,0.66-0.64c0.2-0.19,0.36-0.38,0.5-0.57s0.24-0.37,0.31-0.56
			c0.07-0.19,0.11-0.39,0.11-0.61c0-0.17-0.03-0.32-0.08-0.45c-0.06-0.13-0.13-0.24-0.24-0.33c-0.1-0.09-0.23-0.16-0.37-0.21
			c-0.14-0.05-0.3-0.07-0.47-0.07c-0.31,0-0.6,0.06-0.85,0.17c-0.25,0.11-0.49,0.25-0.72,0.43l-0.5-0.52
			c0.13-0.1,0.27-0.2,0.43-0.29c0.15-0.09,0.32-0.17,0.49-0.24c0.18-0.07,0.36-0.12,0.55-0.16C14.51,4.02,14.71,4,14.93,4
			c0.32,0,0.6,0.04,0.86,0.12c0.26,0.08,0.47,0.19,0.65,0.34c0.18,0.15,0.32,0.32,0.41,0.53c0.1,0.21,0.15,0.45,0.15,0.71
			c0,0.25-0.04,0.48-0.13,0.7c-0.09,0.22-0.21,0.44-0.36,0.66c-0.15,0.22-0.34,0.43-0.55,0.65c-0.21,0.22-0.44,0.44-0.69,0.68
			l-1.39,1.29V9.7h3.41V10.42z"/>
	</g>
</g>
</svg>
