<?xml version="1.0" encoding="utf-8"?>
<!-- Generator: Adobe Illustrator 26.0.2, SVG Export Plug-In . SVG Version: 6.00 Build 0)  -->
<svg version="1.1" id="Layer_1" xmlns="http://www.w3.org/2000/svg" xmlns:xlink="http://www.w3.org/1999/xlink" x="0px" y="0px"
	 viewBox="0 0 24 14" style="enable-background:new 0 0 24 14;" xml:space="preserve">
<style type="text/css">
	.st0{fill:url(#SVGID_1_);}
	.st1{stroke:#FFFFFF;stroke-miterlimit:10;}
</style>
<g>
	<g>
		<linearGradient id="SVGID_1_" gradientUnits="userSpaceOnUse" x1="11.4714" y1="2.0253" x2="11.4714" y2="13.1247">
			<stop  offset="0.1611" style="stop-color:#D3D3D3"/>
			<stop  offset="0.9871" style="stop-color:#767676"/>
		</linearGradient>
		<path class="st0" d="M15.65,13.02H7.3c-2.91,0-5.29-2.38-5.29-5.29V7.31c0-2.91,2.38-5.29,5.29-5.29h8.35
			c2.91,0,5.29,2.38,5.29,5.29v0.41C20.93,10.64,18.55,13.02,15.65,13.02z"/>
		<g>
			<path class="st1" d="M11.8,10.76c-0.36,0.16-1.08,0.32-2,0.32c-2.13,0-3.74-1.21-3.74-3.44c0-2.13,1.6-3.57,3.95-3.57
				c0.94,0,1.54,0.18,1.79,0.3l-0.24,0.72c-0.37-0.16-0.9-0.28-1.53-0.28c-1.77,0-2.95,1.02-2.95,2.81c0,1.67,1.07,2.73,2.9,2.73
				c0.59,0,1.2-0.11,1.59-0.28L11.8,10.76z"/>
			<polygon class="st1" points="15.78,9.97 15.78,4.43 14.94,4.43 13.34,5.19 13.53,5.87 14.8,5.25 14.82,5.25 14.82,9.97 
				12.98,9.97 12.98,10.99 14.82,10.99 15.78,10.99 17.93,10.99 17.93,9.97 			"/>
		</g>
	</g>
	<g>
		<path d="M11.8,10.76c-0.36,0.16-1.08,0.32-2,0.32c-2.13,0-3.74-1.21-3.74-3.44c0-2.13,1.6-3.57,3.95-3.57
			c0.94,0,1.54,0.18,1.79,0.3l-0.24,0.72c-0.37-0.16-0.9-0.28-1.53-0.28c-1.77,0-2.95,1.02-2.95,2.81c0,1.67,1.07,2.73,2.9,2.73
			c0.59,0,1.2-0.11,1.59-0.28L11.8,10.76z"/>
		<polygon points="15.78,9.97 15.78,4.43 14.94,4.43 13.34,5.19 13.53,5.87 14.8,5.25 14.82,5.25 14.82,9.97 12.98,9.97 
			12.98,10.99 14.82,10.99 15.78,10.99 17.93,10.99 17.93,9.97 		"/>
	</g>
</g>
</svg>
