<?xml version="1.0" encoding="utf-8"?>
<!-- Generator: Adobe Illustrator 26.0.2, SVG Export Plug-In . SVG Version: 6.00 Build 0)  -->
<svg version="1.1" id="Layer_1" xmlns="http://www.w3.org/2000/svg" xmlns:xlink="http://www.w3.org/1999/xlink" x="0px" y="0px"
	 viewBox="0 0 24 14" style="enable-background:new 0 0 24 14;" xml:space="preserve">
<style type="text/css">
	.st0{fill:url(#SVGID_1_);stroke:#515151;stroke-miterlimit:10;}
	.st1{fill:#FFFFFF;stroke:#FFFFFF;stroke-miterlimit:10;}
</style>
<g>
	<linearGradient id="SVGID_1_" gradientUnits="userSpaceOnUse" x1="12" y1="1.9703" x2="12" y2="12.1299">
		<stop  offset="0.1611" style="stop-color:#D3D3D3"/>
		<stop  offset="0.9871" style="stop-color:#767676"/>
	</linearGradient>
	<path class="st0" d="M16.76,12.03H7.24c-2.36,0-4.3-1.93-4.3-4.3V6.27c0-2.36,1.93-4.3,4.3-4.3h9.51c2.36,0,4.3,1.93,4.3,4.3v1.47
		C21.05,10.1,19.12,12.03,16.76,12.03z"/>
	<g>
		<path class="st1" d="M12.17,10.27c-0.36,0.17-1.07,0.33-1.99,0.33c-2.12,0-3.72-1.25-3.72-3.54c0-2.19,1.6-3.67,3.93-3.67
			c0.94,0,1.53,0.19,1.79,0.31l-0.23,0.74c-0.37-0.17-0.89-0.29-1.52-0.29c-1.76,0-2.94,1.05-2.94,2.88c0,1.71,1.06,2.81,2.89,2.81
			c0.59,0,1.19-0.11,1.59-0.29L12.17,10.27z"/>
		<path class="st1" d="M13.27,9.45c0.28,0.17,0.93,0.42,1.61,0.42c1.26,0,1.65-0.75,1.64-1.31c-0.01-0.94-0.93-1.35-1.88-1.35H14.1
			V6.53h0.55c0.71,0,1.62-0.34,1.62-1.14c0-0.54-0.37-1.02-1.27-1.02c-0.58,0-1.14,0.24-1.45,0.45l-0.26-0.66
			c0.38-0.26,1.12-0.52,1.9-0.52c1.43,0,2.08,0.79,2.08,1.61c0,0.69-0.45,1.29-1.34,1.59v0.02c0.89,0.17,1.62,0.79,1.62,1.73
			c0,1.08-0.9,2.02-2.65,2.02c-0.82,0-1.53-0.24-1.89-0.46L13.27,9.45z"/>
	</g>
	<g>
		<path d="M12.17,10.27c-0.36,0.17-1.07,0.33-1.99,0.33c-2.12,0-3.72-1.25-3.72-3.54c0-2.19,1.6-3.67,3.93-3.67
			c0.94,0,1.53,0.19,1.79,0.31l-0.23,0.74c-0.37-0.17-0.89-0.29-1.52-0.29c-1.76,0-2.94,1.05-2.94,2.88c0,1.71,1.06,2.81,2.89,2.81
			c0.59,0,1.19-0.11,1.59-0.29L12.17,10.27z"/>
		<path d="M13.27,9.45c0.28,0.17,0.93,0.42,1.61,0.42c1.26,0,1.65-0.75,1.64-1.31c-0.01-0.94-0.93-1.35-1.88-1.35H14.1V6.53h0.55
			c0.71,0,1.62-0.34,1.62-1.14c0-0.54-0.37-1.02-1.27-1.02c-0.58,0-1.14,0.24-1.45,0.45l-0.26-0.66c0.38-0.26,1.12-0.52,1.9-0.52
			c1.43,0,2.08,0.79,2.08,1.61c0,0.69-0.45,1.29-1.34,1.59v0.02c0.89,0.17,1.62,0.79,1.62,1.73c0,1.08-0.9,2.02-2.65,2.02
			c-0.82,0-1.53-0.24-1.89-0.46L13.27,9.45z"/>
	</g>
</g>
</svg>
