<?xml version="1.0" encoding="utf-8"?>
<!-- Generator: Adobe Illustrator 26.0.2, SVG Export Plug-In . SVG Version: 6.00 Build 0)  -->
<svg version="1.1" id="Layer_1" xmlns="http://www.w3.org/2000/svg" xmlns:xlink="http://www.w3.org/1999/xlink" x="0px" y="0px"
	 viewBox="0 0 46 30" style="enable-background:new 0 0 46 30;" xml:space="preserve">
<style type="text/css">
	.st0{fill:url(#SVGID_1_);stroke:#8C5C01;stroke-miterlimit:10;}
	.st1{fill:#FFFFFF;stroke:#FFFFFF;stroke-width:2;stroke-miterlimit:10;}
	.st2{fill:#342E0A;}
</style>
<g>
	<linearGradient id="SVGID_1_" gradientUnits="userSpaceOnUse" x1="23.1479" y1="3.0496" x2="23.1479" y2="27.6766">
		<stop  offset="0.1611" style="stop-color:#FFFB69"/>
		<stop  offset="0.9859" style="stop-color:#F79801"/>
	</linearGradient>
	<path class="st0" d="M32.9,27.43H13.4c-6.71,0-12.19-5.49-12.19-12.19v0C1.2,8.54,6.69,3.05,13.4,3.05h19.5
		c6.71,0,12.19,5.49,12.19,12.19v0C45.09,21.95,39.6,27.43,32.9,27.43z"/>
	<g>
		<g>
			<path class="st1" d="M18,16.73c-0.4,1.12-1.27,1.04-1.64,0.03l-2.92-7.98h-1.71l4.63,12.43H18l4.63-12.43H20.9L18,16.73z"/>
			<path class="st1" d="M31.3,20.33V8.78h-1.33l-3.4,2.54l0.85,1.05l1.31-1.03c0.12-0.1,0.23-0.19,0.32-0.27
				c0.09-0.08,0.17-0.15,0.25-0.22c0.08-0.07,0.16-0.14,0.24-0.21c0.08-0.07,0.17-0.16,0.27-0.26c-0.01,0.19-0.01,0.42-0.02,0.67
				c-0.01,0.25-0.02,0.52-0.03,0.79c-0.01,0.28-0.02,0.55-0.02,0.83c0,0.28,0,0.54,0,0.78v6.88h-3.17v0.89h3.17h1.56h2.97v-0.89
				H31.3z"/>
		</g>
		<g>
			<path class="st2" d="M18,16.73c-0.4,1.12-0.68,2.03-0.83,2.75c-0.17-0.8-0.44-1.7-0.82-2.71l-2.92-7.98h-1.71l4.63,12.43H18
				l4.63-12.43H20.9L18,16.73z"/>
			<path class="st2" d="M31.3,20.33V8.78h-1.33l-3.4,2.54l0.85,1.05l1.31-1.03c0.12-0.1,0.23-0.19,0.32-0.27
				c0.09-0.08,0.17-0.15,0.25-0.22c0.08-0.07,0.16-0.14,0.24-0.21c0.08-0.07,0.17-0.16,0.27-0.26c-0.01,0.19-0.01,0.42-0.02,0.67
				c-0.01,0.25-0.02,0.52-0.03,0.79c-0.01,0.28-0.02,0.55-0.02,0.83c0,0.28,0,0.54,0,0.78v6.88h-3.17v0.89h3.17h1.56h2.97v-0.89
				H31.3z"/>
		</g>
	</g>
</g>
</svg>
