<?xml version="1.0" encoding="utf-8"?>
<!-- Generator: Adobe Illustrator 26.0.2, SVG Export Plug-In . SVG Version: 6.00 Build 0)  -->
<svg version="1.1" id="Layer_1" xmlns="http://www.w3.org/2000/svg" xmlns:xlink="http://www.w3.org/1999/xlink" x="0px" y="0px"
	 viewBox="0 0 46 30" style="enable-background:new 0 0 46 30;" xml:space="preserve">
<style type="text/css">
	.st0{fill:url(#SVGID_1_);stroke:#8C5C01;stroke-miterlimit:10;}
	.st1{fill:#FFFFFF;stroke:#FFFFFF;stroke-width:2;stroke-miterlimit:10;}
	.st2{fill:#332905;}
</style>
<g>
	<linearGradient id="SVGID_1_" gradientUnits="userSpaceOnUse" x1="23" y1="2.8079" x2="23" y2="27.435">
		<stop  offset="0.1611" style="stop-color:#FFFB69"/>
		<stop  offset="0.9859" style="stop-color:#F79801"/>
	</linearGradient>
	<path class="st0" d="M32.75,27.19h-19.5C6.54,27.19,1.06,21.71,1.06,15v0c0-6.71,5.49-12.19,12.19-12.19h19.5
		c6.71,0,12.19,5.49,12.19,12.19v0C44.94,21.71,39.46,27.19,32.75,27.19z"/>
	<g>
		<g>
			<path class="st1" d="M17.85,16.49c-0.4,1.12-1.27,1.04-1.64,0.03l-2.92-7.98h-1.71l4.63,12.43h1.64l4.63-12.43h-1.73L17.85,16.49
				z"/>
		</g>
	</g>
	<path class="st2" d="M16.04,20.98L11.97,8.54h1.74l1.94,6.13c0.54,1.68,1,3.19,1.33,4.65h0.04c0.35-1.44,0.87-3.01,1.42-4.63
		l2.11-6.15h1.72l-4.45,12.44H16.04z"/>
	<path class="st1" d="M25.06,20.86v-1l1.49-1.24c3.58-2.92,5.2-4.47,5.23-6.28c0-1.22-0.69-2.34-2.79-2.34
		c-1.27,0-2.33,0.55-2.98,1.02l-0.6-1.14c0.97-0.7,2.35-1.22,3.97-1.22c3.02,0,4.3,1.77,4.3,3.49c0,2.22-1.88,4.01-4.84,6.44
		l-1.12,0.89v0.04h6.3v1.35H25.06z"/>
	<path class="st2" d="M25.06,20.86v-1l1.49-1.24c3.58-2.92,5.2-4.47,5.23-6.28c0-1.22-0.69-2.34-2.79-2.34
		c-1.27,0-2.33,0.55-2.98,1.02l-0.6-1.14c0.97-0.7,2.35-1.22,3.97-1.22c3.02,0,4.3,1.77,4.3,3.49c0,2.22-1.88,4.01-4.84,6.44
		l-1.12,0.89v0.04h6.3v1.35H25.06z"/>
</g>
</svg>
