<?xml version="1.0" encoding="utf-8"?>
<!-- Generator: Adobe Illustrator 26.0.2, SVG Export Plug-In . SVG Version: 6.00 Build 0)  -->
<svg version="1.1" id="Layer_1" xmlns="http://www.w3.org/2000/svg" xmlns:xlink="http://www.w3.org/1999/xlink" x="0px" y="0px"
	 viewBox="0 0 46 30" style="enable-background:new 0 0 46 30;" xml:space="preserve">
<style type="text/css">
	.st0{fill:url(#SVGID_1_);stroke:#515151;stroke-miterlimit:10;}
	.st1{fill:#FFFFFF;stroke:#FFFFFF;stroke-width:2;stroke-miterlimit:10;}
</style>
<g>
	<linearGradient id="SVGID_1_" gradientUnits="userSpaceOnUse" x1="23" y1="2.8079" x2="23" y2="27.435">
		<stop  offset="0.1611" style="stop-color:#D3D3D3"/>
		<stop  offset="0.9871" style="stop-color:#767676"/>
	</linearGradient>
	<path class="st0" d="M34.53,27.19H11.47c-5.73,0-10.41-4.69-10.41-10.41v-3.56c0-5.73,4.69-10.41,10.41-10.41h23.06
		c5.73,0,10.41,4.69,10.41,10.41v3.56C44.94,22.51,40.26,27.19,34.53,27.19z"/>
	<g>
		<path class="st1" d="M23.16,21.11c-0.8,0.33-2.4,0.66-4.45,0.66c-4.75,0-8.32-2.48-8.32-7.04c0-4.36,3.57-7.31,8.79-7.31
			c2.1,0,3.42,0.37,4,0.62L22.66,9.5c-0.82-0.33-2-0.58-3.4-0.58c-3.95,0-6.57,2.09-6.57,5.74c0,3.41,2.37,5.6,6.47,5.6
			c1.32,0,2.67-0.23,3.55-0.58L23.16,21.11z"/>
		<path class="st1" d="M25.64,19.48c0.62,0.33,2.07,0.85,3.6,0.85c2.82,0,3.7-1.49,3.67-2.6c-0.02-1.88-2.07-2.69-4.2-2.69h-1.23
			v-1.36h1.23c1.6,0,3.62-0.68,3.62-2.27c0-1.07-0.82-2.02-2.85-2.02c-1.3,0-2.55,0.48-3.25,0.89l-0.57-1.32
			c0.85-0.52,2.5-1.03,4.25-1.03c3.2,0,4.65,1.57,4.65,3.2c0,1.38-1,2.56-3,3.16v0.04c2,0.33,3.62,1.57,3.62,3.45
			c0,2.15-2.02,4.03-5.92,4.03c-1.82,0-3.42-0.48-4.22-0.91L25.64,19.48z"/>
	</g>
	<g>
		<path d="M23.37,21.11c-0.8,0.33-2.4,0.66-4.45,0.66c-4.75,0-8.32-2.48-8.32-7.04c0-4.36,3.57-7.31,8.79-7.31
			c2.1,0,3.42,0.37,4,0.62L22.87,9.5c-0.82-0.33-2-0.58-3.4-0.58c-3.95,0-6.57,2.09-6.57,5.74c0,3.41,2.37,5.6,6.47,5.6
			c1.32,0,2.67-0.23,3.55-0.58L23.37,21.11z"/>
		<path d="M25.85,19.48c0.62,0.33,2.07,0.85,3.6,0.85c2.82,0,3.7-1.49,3.67-2.6c-0.02-1.88-2.07-2.69-4.2-2.69H27.7v-1.36h1.23
			c1.6,0,3.62-0.68,3.62-2.27c0-1.07-0.82-2.02-2.85-2.02c-1.3,0-2.55,0.48-3.25,0.89l-0.57-1.32c0.85-0.52,2.5-1.03,4.25-1.03
			c3.2,0,4.65,1.57,4.65,3.2c0,1.38-1,2.56-3,3.16v0.04c2,0.33,3.62,1.57,3.62,3.45c0,2.15-2.02,4.03-5.92,4.03
			c-1.82,0-3.42-0.48-4.22-0.91L25.85,19.48z"/>
	</g>
</g>
</svg>
