<?xml version="1.0" encoding="utf-8"?>
<!-- Generator: Adobe Illustrator 26.0.2, SVG Export Plug-In . SVG Version: 6.00 Build 0)  -->
<svg version="1.1" id="Layer_1" xmlns="http://www.w3.org/2000/svg" xmlns:xlink="http://www.w3.org/1999/xlink" x="0px" y="0px"
	 viewBox="0 0 24 14" style="enable-background:new 0 0 24 14;" xml:space="preserve">
<style type="text/css">
	.st0{fill:url(#SVGID_1_);stroke:#8C5C01;stroke-miterlimit:10;}
	.st1{fill:#FFFFFF;stroke:#FFFFFF;stroke-miterlimit:10;}
	.st2{fill:#332905;}
</style>
<g>
	<linearGradient id="SVGID_1_" gradientUnits="userSpaceOnUse" x1="12" y1="1" x2="12" y2="13.1195">
		<stop  offset="0.1611" style="stop-color:#FFFB69"/>
		<stop  offset="0.9859" style="stop-color:#F79801"/>
	</linearGradient>
	<path class="st0" d="M16.8,13H7.2c-3.3,0-6-2.7-6-6v0c0-3.3,2.7-6,6-6h9.6c3.3,0,6,2.7,6,6v0C22.8,10.3,20.1,13,16.8,13z"/>
	<g>
		<g>
			<g>
				<path class="st1" d="M9.51,7.85C9.32,8.4,8.89,8.36,8.71,7.87L7.27,3.94H6.43l2.28,6.12h0.81l2.28-6.12h-0.85L9.51,7.85z"/>
			</g>
		</g>
		<path class="st2" d="M8.58,10.06l-2-6.12h0.85l0.95,3.02c0.26,0.83,0.49,1.57,0.65,2.29h0.02c0.17-0.71,0.43-1.48,0.7-2.28
			l1.04-3.03h0.85l-2.19,6.12H8.58z"/>
		<g>
			<path class="st1" d="M17.35,5.46c0,0.19-0.04,0.37-0.11,0.53c-0.08,0.16-0.18,0.3-0.32,0.41c-0.14,0.12-0.3,0.21-0.49,0.29
				c-0.19,0.08-0.4,0.13-0.63,0.16v0.02c0.58,0.06,1.02,0.21,1.32,0.45c0.3,0.24,0.45,0.55,0.45,0.93c0,0.25-0.05,0.49-0.16,0.7
				c-0.11,0.21-0.27,0.39-0.48,0.55c-0.22,0.15-0.49,0.27-0.82,0.36c-0.33,0.08-0.72,0.13-1.17,0.13c-0.36,0-0.69-0.02-1.01-0.07
				c-0.32-0.04-0.61-0.13-0.89-0.25V8.99c0.28,0.12,0.59,0.21,0.92,0.28c0.33,0.07,0.65,0.1,0.95,0.1c0.3,0,0.56-0.03,0.78-0.08
				c0.22-0.05,0.4-0.13,0.54-0.23s0.25-0.22,0.31-0.36c0.07-0.14,0.1-0.3,0.1-0.48c0-0.18-0.04-0.33-0.13-0.46
				c-0.09-0.13-0.21-0.23-0.37-0.32c-0.16-0.08-0.36-0.14-0.59-0.18c-0.23-0.04-0.49-0.06-0.78-0.06h-0.65v-0.6h0.65
				c0.26,0,0.5-0.03,0.71-0.08c0.21-0.05,0.38-0.13,0.52-0.23c0.14-0.1,0.24-0.21,0.32-0.35c0.07-0.13,0.11-0.28,0.11-0.44
				c0-0.14-0.03-0.26-0.09-0.37c-0.06-0.11-0.14-0.2-0.25-0.27c-0.11-0.08-0.24-0.13-0.39-0.17c-0.15-0.04-0.32-0.06-0.5-0.06
				c-0.35,0-0.66,0.04-0.92,0.13c-0.27,0.09-0.52,0.2-0.76,0.35l-0.45-0.49c0.12-0.08,0.26-0.16,0.41-0.23
				c0.15-0.07,0.32-0.13,0.5-0.19c0.18-0.05,0.37-0.1,0.58-0.13c0.2-0.03,0.42-0.05,0.65-0.05c0.35,0,0.66,0.04,0.93,0.11
				c0.27,0.07,0.49,0.17,0.67,0.3c0.18,0.13,0.32,0.28,0.41,0.45C17.3,5.06,17.35,5.26,17.35,5.46z"/>
		</g>
		<g>
			<path class="st2" d="M17.35,5.46c0,0.19-0.04,0.37-0.11,0.53c-0.08,0.16-0.18,0.3-0.32,0.41c-0.14,0.12-0.3,0.21-0.49,0.29
				c-0.19,0.08-0.4,0.13-0.63,0.16v0.02c0.58,0.06,1.02,0.21,1.32,0.45c0.3,0.24,0.45,0.55,0.45,0.93c0,0.25-0.05,0.49-0.16,0.7
				c-0.11,0.21-0.27,0.39-0.48,0.55c-0.22,0.15-0.49,0.27-0.82,0.36c-0.33,0.08-0.72,0.13-1.17,0.13c-0.36,0-0.69-0.02-1.01-0.07
				c-0.32-0.04-0.61-0.13-0.89-0.25V8.99c0.28,0.12,0.59,0.21,0.92,0.28c0.33,0.07,0.65,0.1,0.95,0.1c0.3,0,0.56-0.03,0.78-0.08
				c0.22-0.05,0.4-0.13,0.54-0.23s0.25-0.22,0.31-0.36c0.07-0.14,0.1-0.3,0.1-0.48c0-0.18-0.04-0.33-0.13-0.46
				c-0.09-0.13-0.21-0.23-0.37-0.32c-0.16-0.08-0.36-0.14-0.59-0.18c-0.23-0.04-0.49-0.06-0.78-0.06h-0.65v-0.6h0.65
				c0.26,0,0.5-0.03,0.71-0.08c0.21-0.05,0.38-0.13,0.52-0.23c0.14-0.1,0.24-0.21,0.32-0.35c0.07-0.13,0.11-0.28,0.11-0.44
				c0-0.14-0.03-0.26-0.09-0.37c-0.06-0.11-0.14-0.2-0.25-0.27c-0.11-0.08-0.24-0.13-0.39-0.17c-0.15-0.04-0.32-0.06-0.5-0.06
				c-0.35,0-0.66,0.04-0.92,0.13c-0.27,0.09-0.52,0.2-0.76,0.35l-0.45-0.49c0.12-0.08,0.26-0.16,0.41-0.23
				c0.15-0.07,0.32-0.13,0.5-0.19c0.18-0.05,0.37-0.1,0.58-0.13c0.2-0.03,0.42-0.05,0.65-0.05c0.35,0,0.66,0.04,0.93,0.11
				c0.27,0.07,0.49,0.17,0.67,0.3c0.18,0.13,0.32,0.28,0.41,0.45C17.3,5.06,17.35,5.26,17.35,5.46z"/>
		</g>
	</g>
</g>
</svg>
