<?xml version="1.0" encoding="utf-8"?>
<!-- Generator: Adobe Illustrator 26.0.2, SVG Export Plug-In . SVG Version: 6.00 Build 0)  -->
<svg version="1.1" id="Layer_1" xmlns="http://www.w3.org/2000/svg" xmlns:xlink="http://www.w3.org/1999/xlink" x="0px" y="0px"
	 viewBox="0 0 24 14" style="enable-background:new 0 0 24 14;" xml:space="preserve">
<style type="text/css">
	.st0{fill:url(#SVGID_1_);stroke:#8C5C01;stroke-miterlimit:10;}
	.st1{fill:#FFFFFF;stroke:#FFFFFF;stroke-width:2;stroke-miterlimit:10;}
	.st2{fill:#332905;}
</style>
<g>
	<linearGradient id="SVGID_1_" gradientUnits="userSpaceOnUse" x1="12" y1="1" x2="12" y2="13.1195">
		<stop  offset="0.1611" style="stop-color:#FFFB69"/>
		<stop  offset="0.9859" style="stop-color:#F79801"/>
	</linearGradient>
	<path class="st0" d="M16.8,13H7.2c-3.3,0-6-2.7-6-6v0c0-3.3,2.7-6,6-6h9.6c3.3,0,6,2.7,6,6v0C22.8,10.3,20.1,13,16.8,13z"/>
	<g>
		<g>
			<path class="st1" d="M9.47,7.73c-0.2,0.55-0.62,0.51-0.81,0.02L7.22,3.82H6.38l2.28,6.12h0.81l2.28-6.12h-0.85L9.47,7.73z"/>
		</g>
	</g>
	<path class="st2" d="M8.57,9.94l-2-6.12h0.85l0.95,3.02c0.26,0.83,0.49,1.57,0.65,2.29h0.02c0.17-0.71,0.43-1.48,0.7-2.28
		l1.04-3.03h0.85L9.45,9.94H8.57z"/>
	<path class="st1" d="M13.02,9.88V9.39l0.73-0.61c1.76-1.44,2.56-2.2,2.57-3.09c0-0.6-0.34-1.15-1.37-1.15
		c-0.63,0-1.15,0.27-1.47,0.5l-0.3-0.56c0.48-0.35,1.16-0.6,1.96-0.6c1.49,0,2.11,0.87,2.11,1.72c0,1.09-0.92,1.97-2.38,3.17
		L14.32,9.2v0.02h3.1v0.66H13.02z"/>
	<path class="st2" d="M13.02,9.88V9.39l0.73-0.61c1.76-1.44,2.56-2.2,2.57-3.09c0-0.6-0.34-1.15-1.37-1.15
		c-0.63,0-1.15,0.27-1.47,0.5l-0.3-0.56c0.48-0.35,1.16-0.6,1.96-0.6c1.49,0,2.11,0.87,2.11,1.72c0,1.09-0.92,1.97-2.38,3.17
		L14.32,9.2v0.02h3.1v0.66H13.02z"/>
</g>
</svg>
